<svg width="88" height="88" viewBox="0 0 88 88" fill="none" xmlns="http://www.w3.org/2000/svg">
<path d="M53.9041 31.6039V31.1311C53.9041 29.9876 52.9738 29.057 51.8302 29.057H48.9943V26.3059C51.4538 24.6406 52.9186 21.888 52.9186 18.9184C52.9186 14.0008 48.9181 10 44.0005 10C39.0833 10 35.0827 14.0008 35.0827 18.9184C35.0827 21.888 36.5475 24.6407 39.0071 26.3059V29.057H36.1711C35.0276 29.057 34.0973 29.9876 34.0973 31.1311V31.6039H12.7676V77.9998H75.2342V31.6039H53.9041ZM44.0004 15.9954C45.6124 15.9954 46.924 17.3065 46.924 18.9182C46.924 20.5304 45.6124 21.8414 44.0004 21.8414C42.3885 21.8414 41.0771 20.5303 41.0771 18.9182C41.0771 17.3065 42.3885 15.9954 44.0004 15.9954ZM53.9041 38.3507V36.1884H70.6494V73.4153H17.3515V36.1884H34.097V38.3507H53.9041Z" fill="#3178C6"/>
<path d="M64.2851 64.2267C64.0917 63.1626 63.3896 62.2583 62.3987 61.8035L58.4444 60.1877C57.8601 59.9192 57.4823 59.3303 57.4823 58.687V58.1039C57.4823 57.8502 57.5243 57.6007 57.5764 57.4197C57.6797 57.2815 60.111 54.0009 60.111 50.8998C60.111 47.1284 57.719 44.3906 54.4234 44.3906C51.1278 44.3906 48.7358 47.1283 48.7358 50.8998C48.7358 54.0009 51.1672 57.2815 51.2403 57.3619C51.3228 57.6007 51.3645 57.8506 51.3645 58.1038V58.6868C51.3645 59.3303 50.9869 59.9191 50.4109 60.184L46.4399 61.807C45.4572 62.2581 44.7551 63.1625 44.559 64.2477L44.3379 67.1018H64.5089L64.2851 64.2267Z" fill="#3178C6"/>
<path d="M44.2115 45.9023H23.7471V50.5962H44.2115V45.9023Z" fill="#3178C6"/>
<path d="M39.6115 54.4453H23.7471V59.139H39.6115V54.4453Z" fill="#3178C6"/>
<path d="M39.6115 62.9844H23.7471V67.6788H39.6115V62.9844Z" fill="#3178C6"/>
</svg>
