<svg width="88" height="88" viewBox="0 0 88 88" fill="none" xmlns="http://www.w3.org/2000/svg">
<path d="M72.6275 51.8803H18.9418L8.13929 51.875L8.14049 51.8803H8.1123L11.4539 67.9405L73.1751 55.066L73.2607 55.0485L73.2875 55.0425L72.6275 51.8803Z" fill="#42B983"/>
<path d="M80.9459 30.8154H78.1962C76.1062 30.8154 74.4009 32.5066 74.4009 34.5966C74.4009 36.6859 76.1062 38.3779 78.1962 38.3779H78.5259C78.2237 35.1048 80.4098 32.0386 83.6962 31.3511L82.0823 23.5689L82.0792 23.5542L82.0735 23.5273L80.9462 23.7609V30.799L80.9459 30.8154Z" fill="#42B983"/>
<path d="M87.973 51.9832L87.9998 51.9771L86.3791 44.2287L86.3693 44.1802H86.3689L86.3636 44.1534C86.1642 44.195 85.9655 44.2199 85.7668 44.2428C85.6866 44.252 85.607 44.2615 85.5264 44.2675C84.3934 44.3541 83.2903 44.1379 82.3037 43.6814C82.2305 43.6465 82.1554 43.617 82.0842 43.5793C81.9574 43.5149 81.8352 43.4417 81.713 43.3693C81.4566 43.2101 81.2037 43.0443 80.9734 42.8477V42.8671C80.9643 42.8597 80.9549 42.8544 80.9463 42.8477V51.8536L80.9459 51.8811H76.8474L76.0229 51.8757L76.0239 51.8811H75.9961L76.505 54.3698L87.9595 51.9857L87.973 51.9832Z" fill="#42B983"/>
<path d="M63.1538 49.1302V45.8303H66.4539V49.1302H78.1964V41.128C74.58 41.128 71.6511 38.1987 71.6511 34.5968C71.6511 30.98 74.58 28.0655 78.1964 28.0655V24.3393V20.0625H66.4539V23.363H63.1538V20.0625H0V49.1302H7.535H63.1538ZM63.1538 42.4613V36.4114H66.4539V42.4613H63.1538ZM66.4539 26.7857V26.7864V32.7678H63.1538V27.4739V26.7314H64.2448L66.4539 26.7857ZM55.0962 30.6913V40.4405H52.0572V30.6913H49.1975V30.375V27.7218H57.9698V28.5462V30.6913H55.0962ZM48.51 30.5266L47.7123 30.6911H43.4359V31.5847V32.5145V32.52V32.5475H47.7536V35.5177H43.4359V37.4312V37.4425V37.4702H48.51V40.4403H40.3838V32.2172V27.7216H48.51V30.5266ZM36.0662 27.7216H38.4046L39.8071 27.7377L35.805 32.9187L35.9286 33.1525L38.7001 38.218L39.9011 40.4403H36.3962L33.7702 35.4486L32.8763 36.59V40.4403H29.8375V34.4173V27.7216H32.8763V30.0594L32.8541 31.954L32.8763 31.9245V31.9702L36.0662 27.7216ZM28.6658 32.2589H25.5886L25.5064 31.9152C25.4102 31.503 25.2448 31.1727 25.0113 30.9114C24.8189 30.6912 24.5164 30.5818 24.1177 30.5818C23.8839 30.5818 23.6914 30.6227 23.5127 30.7053C23.3475 30.7878 23.2098 30.8973 23.1002 31.035C23.0177 31.1316 22.9487 31.2277 22.9075 31.3378C22.8528 31.4614 22.8113 31.6266 22.7702 31.8327C22.7289 32.0662 22.7014 32.355 22.6877 32.7128C22.6602 33.07 22.6602 33.5239 22.6602 34.0878C22.6602 34.6377 22.6602 35.0916 22.6877 35.4628C22.6877 35.6139 22.7014 35.765 22.7152 35.9027C22.7289 36.0538 22.7427 36.2055 22.7702 36.3289C22.8111 36.535 22.8527 36.7002 22.9075 36.8237C22.9487 36.9339 23.0177 37.0298 23.0864 37.1266C23.21 37.2643 23.3477 37.3736 23.5127 37.4569C23.6912 37.5389 23.8839 37.5805 24.1177 37.5805C24.5164 37.5805 24.8189 37.4705 25.025 37.2502C25.2589 36.9891 25.4237 36.6594 25.5202 36.2464L25.6027 35.9027H28.2865L28.6682 35.9066L28.5864 36.4257C28.3527 37.7725 27.8439 38.7903 27.0325 39.4913C26.2353 40.1788 25.245 40.5366 24.1177 40.5366C23.4164 40.5366 22.7977 40.413 22.2613 40.1653C21.7389 39.9316 21.2575 39.5878 20.845 39.1475C20.5287 38.8178 20.2952 38.46 20.1303 38.1028C19.9652 37.7457 19.8412 37.3603 19.7591 36.9339C19.7316 36.8103 19.7175 36.6727 19.7041 36.5352C19.6628 36.2464 19.6491 35.9443 19.6353 35.6282C19.6216 35.1602 19.6078 34.6519 19.6078 34.088C19.6078 33.5107 19.6216 33.0018 19.6353 32.5478C19.6491 32.0664 19.6903 31.6268 19.7727 31.2278C19.8414 30.8016 19.9653 30.4168 20.1305 30.0589C20.2953 29.7018 20.5289 29.3439 20.8452 29.0143C21.2577 28.5738 21.7391 28.23 22.2614 27.9964C22.7978 27.7486 23.4166 27.6252 24.1178 27.6252C25.245 27.6252 26.2353 27.983 27.0327 28.6705C27.8441 29.3714 28.353 30.4027 28.5866 31.7368L28.6612 32.2094L28.6658 32.2589ZM18.3289 27.7216V36.8236V40.4403H15.2902V37.4566V27.7216H18.3289ZM11.275 30.6913V38.2953V40.4403H8.23625V38.9277V30.6911H5.36233V27.7216H14.1488V30.6911H11.275V30.6913Z" fill="#42B983"/>
</svg>
