<svg width="202" height="37" viewBox="0 0 202 37" fill="none" xmlns="http://www.w3.org/2000/svg">
<g style="mix-blend-mode:lighten" filter="url(#filter0_f_2129_16172)">
<path d="M14.8989 8.51H18.6999L21.4089 17.267L24.1389 8.51H27.9399L22.9839 23H19.8549L14.8989 8.51ZM37.8378 12.5V23H34.7508V22.181C34.3308 22.853 33.8478 23.21 32.5458 23.21C30.4878 23.21 28.6818 22.202 28.6818 19.052V12.5H31.8318V18.464C31.8318 19.892 32.1678 20.522 33.2178 20.522C34.2888 20.522 34.6878 19.934 34.6878 18.485V12.5H37.8378ZM45.7625 19.787L48.0725 21.404C47.3375 22.685 46.0775 23.21 44.1665 23.21C40.8485 23.21 39.4205 21.068 39.4205 18.464V16.994C39.4205 13.739 41.1005 12.29 43.8305 12.29C46.8755 12.29 48.2405 14.033 48.2405 17.309V18.548H42.5705C42.6125 19.745 42.9065 20.564 44.1875 20.564C45.1745 20.564 45.3845 20.27 45.7625 19.787ZM43.8515 14.936C43.0325 14.936 42.6755 15.503 42.5915 16.448H45.0905C45.0275 15.293 44.5865 14.936 43.8515 14.936ZM55.4929 8.51H64.6489V11.408H58.9789V14.39H64.0189V17.288H58.9789V23H55.4929V8.51ZM71.6229 19.787L73.9329 21.404C73.1979 22.685 71.9379 23.21 70.0269 23.21C66.7089 23.21 65.2809 21.068 65.2809 18.464V16.994C65.2809 13.739 66.9609 12.29 69.6909 12.29C72.7359 12.29 74.1009 14.033 74.1009 17.309V18.548H68.4309C68.4729 19.745 68.7669 20.564 70.0479 20.564C71.0349 20.564 71.2449 20.27 71.6229 19.787ZM69.7119 14.936C68.8929 14.936 68.5359 15.503 68.4519 16.448H70.9509C70.8879 15.293 70.4469 14.936 69.7119 14.936ZM83.7893 14.033L81.4583 15.713C81.0593 15.251 80.6393 14.978 79.6733 14.978C79.2323 14.978 78.6863 15.062 78.6863 15.524C78.6863 15.881 79.0223 16.049 79.9883 16.238C82.8653 16.784 83.9363 17.939 83.9363 19.871C83.9363 21.971 82.4453 23.21 79.7363 23.21C77.5943 23.21 76.2083 22.748 75.2633 21.467L77.6993 19.703C78.0563 20.186 78.4763 20.522 79.6733 20.522C80.3663 20.522 80.7863 20.333 80.7863 19.955C80.7863 19.556 80.4293 19.409 79.4423 19.199C77.0693 18.674 75.5363 17.708 75.5363 15.65C75.5363 13.55 77.0483 12.29 79.7363 12.29C81.4583 12.29 82.9703 12.689 83.7893 14.033ZM89.499 20.858L92.334 19.262C92.796 19.934 93.51 20.312 94.161 20.312C95.253 20.312 95.904 19.766 95.904 17.624V8.51H99.39V17.624C99.39 21.698 97.479 23.21 94.434 23.21C92.103 23.21 90.549 22.328 89.499 20.858ZM101.062 19.871C101.062 17.666 102.742 16.595 104.926 16.595H106.795V16.28C106.795 15.251 106.606 14.852 105.136 14.852C104.233 14.852 103.813 15.02 103.435 15.566L101.23 14.033C102.049 12.731 103.267 12.29 105.493 12.29C108.223 12.29 109.861 13.067 109.861 16.301V23H106.795V22.139C106.438 22.706 105.871 23.21 104.716 23.21C102.658 23.21 101.062 22.076 101.062 19.871ZM106.795 19.136V18.821H105.367C104.569 18.821 104.128 19.094 104.128 19.787C104.128 20.396 104.611 20.732 105.409 20.732C106.459 20.732 106.795 20.102 106.795 19.136ZM120.999 16.994V18.464C120.999 21.194 119.613 23.21 116.967 23.21C116.022 23.21 115.371 23.063 114.909 22.79V26.99H111.759V12.5H114.909V13.025C115.392 12.563 116.064 12.29 116.988 12.29C119.361 12.29 120.999 13.991 120.999 16.994ZM116.379 20.564C117.681 20.564 117.849 19.577 117.849 18.191V17.267C117.849 15.713 117.513 14.936 116.379 14.936C115.245 14.936 114.909 15.713 114.909 17.267V18.506C114.909 19.724 115.161 20.564 116.379 20.564ZM122.042 19.871C122.042 17.666 123.722 16.595 125.906 16.595H127.775V16.28C127.775 15.251 127.586 14.852 126.116 14.852C125.213 14.852 124.793 15.02 124.415 15.566L122.21 14.033C123.029 12.731 124.247 12.29 126.473 12.29C129.203 12.29 130.841 13.067 130.841 16.301V23H127.775V22.139C127.418 22.706 126.851 23.21 125.696 23.21C123.638 23.21 122.042 22.076 122.042 19.871ZM127.775 19.136V18.821H126.347C125.549 18.821 125.108 19.094 125.108 19.787C125.108 20.396 125.591 20.732 126.389 20.732C127.439 20.732 127.775 20.102 127.775 19.136ZM132.738 23V12.5H135.804V13.298C136.14 12.878 136.917 12.29 138.03 12.29C140.088 12.29 141.894 13.214 141.894 16.406V23H138.744V17.015C138.744 15.608 138.408 14.978 137.4 14.978C136.308 14.978 135.888 15.65 135.888 16.994V23H132.738ZM158.45 20.102V23H149.315V20.942L154.04 15.377C154.901 14.369 155.237 13.55 155.237 12.647C155.237 11.639 154.523 11.156 153.704 11.156C152.843 11.156 152.255 11.681 152.171 12.647H149.168C149.168 10.127 151.289 8.3 153.914 8.3C156.665 8.3 158.702 10.253 158.702 12.626C158.702 14.621 157.442 16.154 156.497 17.246L154.019 20.102H158.45ZM170.936 18.38C170.936 21.908 168.542 23.21 165.728 23.21C162.914 23.21 160.52 21.908 160.52 18.38V13.13C160.52 9.392 162.914 8.3 165.728 8.3C168.542 8.3 170.936 9.392 170.936 13.109V18.38ZM163.985 13.529V17.981C163.985 19.535 164.405 20.312 165.728 20.312C167.03 20.312 167.45 19.535 167.45 17.981V13.529C167.45 11.975 167.03 11.198 165.728 11.198C164.405 11.198 163.985 11.975 163.985 13.529ZM181.952 20.102V23H172.817V20.942L177.542 15.377C178.403 14.369 178.739 13.55 178.739 12.647C178.739 11.639 178.025 11.156 177.206 11.156C176.345 11.156 175.757 11.681 175.673 12.647H172.67C172.67 10.127 174.791 8.3 177.416 8.3C180.167 8.3 182.204 10.253 182.204 12.626C182.204 14.621 180.944 16.154 179.999 17.246L177.521 20.102H181.952ZM187.508 16.973V14.075H188.642C189.524 14.075 190.322 13.613 190.322 12.584C190.322 11.681 189.671 11.156 188.789 11.156C187.928 11.156 187.424 11.681 187.256 12.437H184.253C184.4 10.043 186.353 8.3 188.999 8.3C191.75 8.3 193.787 10.253 193.787 12.374C193.787 14.075 192.695 15.02 191.897 15.482C193.073 16.112 193.997 17.225 193.997 18.905C193.997 21.299 192.359 23.21 189.167 23.21C185.975 23.21 184.148 21.425 184.043 18.989H187.046C187.172 19.787 187.802 20.312 188.894 20.312C189.986 20.312 190.532 19.577 190.532 18.653C190.532 17.582 189.923 16.973 188.642 16.973H187.508Z" fill="#F17C67"/>
</g>
<g style="mix-blend-mode:lighten" filter="url(#filter1_f_2129_16172)">
<path d="M8.89893 10.51H12.6999L15.4089 19.267L18.1389 10.51H21.9399L16.9839 25H13.8549L8.89893 10.51ZM31.8378 14.5V25H28.7508V24.181C28.3308 24.853 27.8478 25.21 26.5458 25.21C24.4878 25.21 22.6818 24.202 22.6818 21.052V14.5H25.8318V20.464C25.8318 21.892 26.1678 22.522 27.2178 22.522C28.2888 22.522 28.6878 21.934 28.6878 20.485V14.5H31.8378ZM39.7625 21.787L42.0725 23.404C41.3375 24.685 40.0775 25.21 38.1665 25.21C34.8485 25.21 33.4205 23.068 33.4205 20.464V18.994C33.4205 15.739 35.1005 14.29 37.8305 14.29C40.8755 14.29 42.2405 16.033 42.2405 19.309V20.548H36.5705C36.6125 21.745 36.9065 22.564 38.1875 22.564C39.1745 22.564 39.3845 22.27 39.7625 21.787ZM37.8515 16.936C37.0325 16.936 36.6755 17.503 36.5915 18.448H39.0905C39.0275 17.293 38.5865 16.936 37.8515 16.936ZM49.4929 10.51H58.6489V13.408H52.9789V16.39H58.0189V19.288H52.9789V25H49.4929V10.51ZM65.6229 21.787L67.9329 23.404C67.1979 24.685 65.9379 25.21 64.0269 25.21C60.7089 25.21 59.2809 23.068 59.2809 20.464V18.994C59.2809 15.739 60.9609 14.29 63.6909 14.29C66.7359 14.29 68.1009 16.033 68.1009 19.309V20.548H62.4309C62.4729 21.745 62.7669 22.564 64.0479 22.564C65.0349 22.564 65.2449 22.27 65.6229 21.787ZM63.7119 16.936C62.8929 16.936 62.5359 17.503 62.4519 18.448H64.9509C64.8879 17.293 64.4469 16.936 63.7119 16.936ZM77.7893 16.033L75.4583 17.713C75.0593 17.251 74.6393 16.978 73.6733 16.978C73.2323 16.978 72.6863 17.062 72.6863 17.524C72.6863 17.881 73.0223 18.049 73.9883 18.238C76.8653 18.784 77.9363 19.939 77.9363 21.871C77.9363 23.971 76.4453 25.21 73.7363 25.21C71.5943 25.21 70.2083 24.748 69.2633 23.467L71.6993 21.703C72.0563 22.186 72.4763 22.522 73.6733 22.522C74.3663 22.522 74.7863 22.333 74.7863 21.955C74.7863 21.556 74.4293 21.409 73.4423 21.199C71.0693 20.674 69.5363 19.708 69.5363 17.65C69.5363 15.55 71.0483 14.29 73.7363 14.29C75.4583 14.29 76.9703 14.689 77.7893 16.033ZM83.499 22.858L86.334 21.262C86.796 21.934 87.51 22.312 88.161 22.312C89.253 22.312 89.904 21.766 89.904 19.624V10.51H93.39V19.624C93.39 23.698 91.479 25.21 88.434 25.21C86.103 25.21 84.549 24.328 83.499 22.858ZM95.0621 21.871C95.0621 19.666 96.7421 18.595 98.9261 18.595H100.795V18.28C100.795 17.251 100.606 16.852 99.1361 16.852C98.2331 16.852 97.8131 17.02 97.4351 17.566L95.2301 16.033C96.0491 14.731 97.2671 14.29 99.4931 14.29C102.223 14.29 103.861 15.067 103.861 18.301V25H100.795V24.139C100.438 24.706 99.8711 25.21 98.7161 25.21C96.6581 25.21 95.0621 24.076 95.0621 21.871ZM100.795 21.136V20.821H99.3671C98.5691 20.821 98.1281 21.094 98.1281 21.787C98.1281 22.396 98.6111 22.732 99.4091 22.732C100.459 22.732 100.795 22.102 100.795 21.136ZM114.999 18.994V20.464C114.999 23.194 113.613 25.21 110.967 25.21C110.022 25.21 109.371 25.063 108.909 24.79V28.99H105.759V14.5H108.909V15.025C109.392 14.563 110.064 14.29 110.988 14.29C113.361 14.29 114.999 15.991 114.999 18.994ZM110.379 22.564C111.681 22.564 111.849 21.577 111.849 20.191V19.267C111.849 17.713 111.513 16.936 110.379 16.936C109.245 16.936 108.909 17.713 108.909 19.267V20.506C108.909 21.724 109.161 22.564 110.379 22.564ZM116.042 21.871C116.042 19.666 117.722 18.595 119.906 18.595H121.775V18.28C121.775 17.251 121.586 16.852 120.116 16.852C119.213 16.852 118.793 17.02 118.415 17.566L116.21 16.033C117.029 14.731 118.247 14.29 120.473 14.29C123.203 14.29 124.841 15.067 124.841 18.301V25H121.775V24.139C121.418 24.706 120.851 25.21 119.696 25.21C117.638 25.21 116.042 24.076 116.042 21.871ZM121.775 21.136V20.821H120.347C119.549 20.821 119.108 21.094 119.108 21.787C119.108 22.396 119.591 22.732 120.389 22.732C121.439 22.732 121.775 22.102 121.775 21.136ZM126.738 25V14.5H129.804V15.298C130.14 14.878 130.917 14.29 132.03 14.29C134.088 14.29 135.894 15.214 135.894 18.406V25H132.744V19.015C132.744 17.608 132.408 16.978 131.4 16.978C130.308 16.978 129.888 17.65 129.888 18.994V25H126.738ZM152.45 22.102V25H143.315V22.942L148.04 17.377C148.901 16.369 149.237 15.55 149.237 14.647C149.237 13.639 148.523 13.156 147.704 13.156C146.843 13.156 146.255 13.681 146.171 14.647H143.168C143.168 12.127 145.289 10.3 147.914 10.3C150.665 10.3 152.702 12.253 152.702 14.626C152.702 16.621 151.442 18.154 150.497 19.246L148.019 22.102H152.45ZM164.936 20.38C164.936 23.908 162.542 25.21 159.728 25.21C156.914 25.21 154.52 23.908 154.52 20.38V15.13C154.52 11.392 156.914 10.3 159.728 10.3C162.542 10.3 164.936 11.392 164.936 15.109V20.38ZM157.985 15.529V19.981C157.985 21.535 158.405 22.312 159.728 22.312C161.03 22.312 161.45 21.535 161.45 19.981V15.529C161.45 13.975 161.03 13.198 159.728 13.198C158.405 13.198 157.985 13.975 157.985 15.529ZM175.952 22.102V25H166.817V22.942L171.542 17.377C172.403 16.369 172.739 15.55 172.739 14.647C172.739 13.639 172.025 13.156 171.206 13.156C170.345 13.156 169.757 13.681 169.673 14.647H166.67C166.67 12.127 168.791 10.3 171.416 10.3C174.167 10.3 176.204 12.253 176.204 14.626C176.204 16.621 174.944 18.154 173.999 19.246L171.521 22.102H175.952ZM181.508 18.973V16.075H182.642C183.524 16.075 184.322 15.613 184.322 14.584C184.322 13.681 183.671 13.156 182.789 13.156C181.928 13.156 181.424 13.681 181.256 14.437H178.253C178.4 12.043 180.353 10.3 182.999 10.3C185.75 10.3 187.787 12.253 187.787 14.374C187.787 16.075 186.695 17.02 185.897 17.482C187.073 18.112 187.997 19.225 187.997 20.905C187.997 23.299 186.359 25.21 183.167 25.21C179.975 25.21 178.148 23.425 178.043 20.989H181.046C181.172 21.787 181.802 22.312 182.894 22.312C183.986 22.312 184.532 21.577 184.532 20.653C184.532 19.582 183.923 18.973 182.642 18.973H181.508Z" fill="#33A6B8"/>
</g>
<path d="M10.8989 8.51H14.6999L17.4089 17.267L20.1389 8.51H23.9399L18.9839 23H15.8549L10.8989 8.51ZM33.8378 12.5V23H30.7508V22.181C30.3308 22.853 29.8478 23.21 28.5458 23.21C26.4878 23.21 24.6818 22.202 24.6818 19.052V12.5H27.8318V18.464C27.8318 19.892 28.1678 20.522 29.2178 20.522C30.2888 20.522 30.6878 19.934 30.6878 18.485V12.5H33.8378ZM41.7625 19.787L44.0725 21.404C43.3375 22.685 42.0775 23.21 40.1665 23.21C36.8485 23.21 35.4205 21.068 35.4205 18.464V16.994C35.4205 13.739 37.1005 12.29 39.8305 12.29C42.8755 12.29 44.2405 14.033 44.2405 17.309V18.548H38.5705C38.6125 19.745 38.9065 20.564 40.1875 20.564C41.1745 20.564 41.3845 20.27 41.7625 19.787ZM39.8515 14.936C39.0325 14.936 38.6755 15.503 38.5915 16.448H41.0905C41.0275 15.293 40.5865 14.936 39.8515 14.936ZM51.4929 8.51H60.6489V11.408H54.9789V14.39H60.0189V17.288H54.9789V23H51.4929V8.51ZM67.6229 19.787L69.9329 21.404C69.1979 22.685 67.9379 23.21 66.0269 23.21C62.7089 23.21 61.2809 21.068 61.2809 18.464V16.994C61.2809 13.739 62.9609 12.29 65.6909 12.29C68.7359 12.29 70.1009 14.033 70.1009 17.309V18.548H64.4309C64.4729 19.745 64.7669 20.564 66.0479 20.564C67.0349 20.564 67.2449 20.27 67.6229 19.787ZM65.7119 14.936C64.8929 14.936 64.5359 15.503 64.4519 16.448H66.9509C66.8879 15.293 66.4469 14.936 65.7119 14.936ZM79.7893 14.033L77.4583 15.713C77.0593 15.251 76.6393 14.978 75.6733 14.978C75.2323 14.978 74.6863 15.062 74.6863 15.524C74.6863 15.881 75.0223 16.049 75.9883 16.238C78.8653 16.784 79.9363 17.939 79.9363 19.871C79.9363 21.971 78.4453 23.21 75.7363 23.21C73.5943 23.21 72.2083 22.748 71.2633 21.467L73.6993 19.703C74.0563 20.186 74.4763 20.522 75.6733 20.522C76.3663 20.522 76.7863 20.333 76.7863 19.955C76.7863 19.556 76.4293 19.409 75.4423 19.199C73.0693 18.674 71.5363 17.708 71.5363 15.65C71.5363 13.55 73.0483 12.29 75.7363 12.29C77.4583 12.29 78.9703 12.689 79.7893 14.033ZM85.499 20.858L88.334 19.262C88.796 19.934 89.51 20.312 90.161 20.312C91.253 20.312 91.904 19.766 91.904 17.624V8.51H95.39V17.624C95.39 21.698 93.479 23.21 90.434 23.21C88.103 23.21 86.549 22.328 85.499 20.858ZM97.0621 19.871C97.0621 17.666 98.7421 16.595 100.926 16.595H102.795V16.28C102.795 15.251 102.606 14.852 101.136 14.852C100.233 14.852 99.8131 15.02 99.4351 15.566L97.2301 14.033C98.0491 12.731 99.2671 12.29 101.493 12.29C104.223 12.29 105.861 13.067 105.861 16.301V23H102.795V22.139C102.438 22.706 101.871 23.21 100.716 23.21C98.6581 23.21 97.0621 22.076 97.0621 19.871ZM102.795 19.136V18.821H101.367C100.569 18.821 100.128 19.094 100.128 19.787C100.128 20.396 100.611 20.732 101.409 20.732C102.459 20.732 102.795 20.102 102.795 19.136ZM116.999 16.994V18.464C116.999 21.194 115.613 23.21 112.967 23.21C112.022 23.21 111.371 23.063 110.909 22.79V26.99H107.759V12.5H110.909V13.025C111.392 12.563 112.064 12.29 112.988 12.29C115.361 12.29 116.999 13.991 116.999 16.994ZM112.379 20.564C113.681 20.564 113.849 19.577 113.849 18.191V17.267C113.849 15.713 113.513 14.936 112.379 14.936C111.245 14.936 110.909 15.713 110.909 17.267V18.506C110.909 19.724 111.161 20.564 112.379 20.564ZM118.042 19.871C118.042 17.666 119.722 16.595 121.906 16.595H123.775V16.28C123.775 15.251 123.586 14.852 122.116 14.852C121.213 14.852 120.793 15.02 120.415 15.566L118.21 14.033C119.029 12.731 120.247 12.29 122.473 12.29C125.203 12.29 126.841 13.067 126.841 16.301V23H123.775V22.139C123.418 22.706 122.851 23.21 121.696 23.21C119.638 23.21 118.042 22.076 118.042 19.871ZM123.775 19.136V18.821H122.347C121.549 18.821 121.108 19.094 121.108 19.787C121.108 20.396 121.591 20.732 122.389 20.732C123.439 20.732 123.775 20.102 123.775 19.136ZM128.738 23V12.5H131.804V13.298C132.14 12.878 132.917 12.29 134.03 12.29C136.088 12.29 137.894 13.214 137.894 16.406V23H134.744V17.015C134.744 15.608 134.408 14.978 133.4 14.978C132.308 14.978 131.888 15.65 131.888 16.994V23H128.738ZM154.45 20.102V23H145.315V20.942L150.04 15.377C150.901 14.369 151.237 13.55 151.237 12.647C151.237 11.639 150.523 11.156 149.704 11.156C148.843 11.156 148.255 11.681 148.171 12.647H145.168C145.168 10.127 147.289 8.3 149.914 8.3C152.665 8.3 154.702 10.253 154.702 12.626C154.702 14.621 153.442 16.154 152.497 17.246L150.019 20.102H154.45ZM166.936 18.38C166.936 21.908 164.542 23.21 161.728 23.21C158.914 23.21 156.52 21.908 156.52 18.38V13.13C156.52 9.392 158.914 8.3 161.728 8.3C164.542 8.3 166.936 9.392 166.936 13.109V18.38ZM159.985 13.529V17.981C159.985 19.535 160.405 20.312 161.728 20.312C163.03 20.312 163.45 19.535 163.45 17.981V13.529C163.45 11.975 163.03 11.198 161.728 11.198C160.405 11.198 159.985 11.975 159.985 13.529ZM177.952 20.102V23H168.817V20.942L173.542 15.377C174.403 14.369 174.739 13.55 174.739 12.647C174.739 11.639 174.025 11.156 173.206 11.156C172.345 11.156 171.757 11.681 171.673 12.647H168.67C168.67 10.127 170.791 8.3 173.416 8.3C176.167 8.3 178.204 10.253 178.204 12.626C178.204 14.621 176.944 16.154 175.999 17.246L173.521 20.102H177.952ZM183.508 16.973V14.075H184.642C185.524 14.075 186.322 13.613 186.322 12.584C186.322 11.681 185.671 11.156 184.789 11.156C183.928 11.156 183.424 11.681 183.256 12.437H180.253C180.4 10.043 182.353 8.3 184.999 8.3C187.75 8.3 189.787 10.253 189.787 12.374C189.787 14.075 188.695 15.02 187.897 15.482C189.073 16.112 189.997 17.225 189.997 18.905C189.997 21.299 188.359 23.21 185.167 23.21C181.975 23.21 180.148 21.425 180.043 18.989H183.046C183.172 19.787 183.802 20.312 184.894 20.312C185.986 20.312 186.532 19.577 186.532 18.653C186.532 17.582 185.923 16.973 184.642 16.973H183.508Z" fill="white"/>
<defs>
<filter id="filter0_f_2129_16172" x="6.89893" y="0.300781" width="195.098" height="34.6875" filterUnits="userSpaceOnUse" color-interpolation-filters="sRGB">
<feFlood flood-opacity="0" result="BackgroundImageFix"/>
<feBlend mode="normal" in="SourceGraphic" in2="BackgroundImageFix" result="shape"/>
<feGaussianBlur stdDeviation="4" result="effect1_foregroundBlur_2129_16172"/>
</filter>
<filter id="filter1_f_2129_16172" x="0.898926" y="2.30078" width="195.098" height="34.6875" filterUnits="userSpaceOnUse" color-interpolation-filters="sRGB">
<feFlood flood-opacity="0" result="BackgroundImageFix"/>
<feBlend mode="normal" in="SourceGraphic" in2="BackgroundImageFix" result="shape"/>
<feGaussianBlur stdDeviation="4" result="effect1_foregroundBlur_2129_16172"/>
</filter>
</defs>
</svg>
