<svg width="93" height="11" viewBox="0 0 93 11" fill="none" xmlns="http://www.w3.org/2000/svg">
<path d="M6.25706 8.6V10H0.419063V8.852L3.73706 4.96C4.36706 4.232 4.71706 3.602 4.71706 2.93C4.71706 2.048 4.05906 1.6 3.34506 1.6C2.58906 1.6 2.01506 2.062 1.97306 2.93H0.489063C0.489063 1.292 1.80506 0.213999 3.40106 0.213999C5.05306 0.213999 6.32706 1.334 6.32706 2.958C6.32706 4.176 5.48706 5.128 4.87106 5.87L2.58906 8.6H6.25706ZM13.7955 7.172C13.7955 9.174 12.3675 10.126 10.7575 10.126C9.14752 10.126 7.71952 9.174 7.71952 7.172V3.182C7.71952 1.124 9.14752 0.213999 10.7575 0.213999C12.3675 0.213999 13.7955 1.124 13.7955 3.168V7.172ZM12.1715 3.266C12.1715 2.23 11.6255 1.628 10.7575 1.628C9.87552 1.628 9.32952 2.23 9.32952 3.266V7.074C9.32952 8.11 9.87552 8.712 10.7575 8.712C11.6255 8.712 12.1715 8.11 12.1715 7.074V3.266ZM20.886 8.6V10H15.048V8.852L18.366 4.96C18.996 4.232 19.346 3.602 19.346 2.93C19.346 2.048 18.688 1.6 17.974 1.6C17.218 1.6 16.644 2.062 16.602 2.93H15.118C15.118 1.292 16.434 0.213999 18.03 0.213999C19.682 0.213999 20.956 1.334 20.956 2.958C20.956 4.176 20.116 5.128 19.5 5.87L17.218 8.6H20.886ZM24.3924 5.716V4.316H25.0644C26.0724 4.316 26.6184 3.784 26.6184 2.874C26.6184 2.174 26.0724 1.6 25.2464 1.6C24.4624 1.6 23.9444 2.118 23.8744 2.79H22.3904C22.4324 1.236 23.7484 0.213999 25.3024 0.213999C26.9964 0.213999 28.2284 1.376 28.2284 2.832C28.2284 3.882 27.6124 4.61 26.8564 4.988C27.7384 5.38 28.3684 6.136 28.3684 7.326C28.3684 8.852 27.2764 10.126 25.4144 10.126C23.4544 10.126 22.3484 9.006 22.2644 7.48H23.7484C23.8604 8.18 24.3504 8.712 25.3444 8.712C26.1844 8.712 26.7584 8.096 26.7584 7.284C26.7584 6.304 26.1844 5.716 25.0644 5.716H24.3924ZM31.8189 8.068V10H29.8869V8.068H31.8189ZM37.4163 0.339999V10H35.7923V2.09L34.4062 3.042V1.404L35.8903 0.339999H37.4163ZM46.6627 7.172C46.6627 9.174 45.2347 10.126 43.6247 10.126C42.0147 10.126 40.5867 9.174 40.5867 7.172V3.182C40.5867 1.124 42.0147 0.213999 43.6247 0.213999C45.2347 0.213999 46.6627 1.124 46.6627 3.168V7.172ZM45.0387 3.266C45.0387 2.23 44.4927 1.628 43.6247 1.628C42.7427 1.628 42.1967 2.23 42.1967 3.266V7.074C42.1967 8.11 42.7427 8.712 43.6247 8.712C44.4927 8.712 45.0387 8.11 45.0387 7.074V3.266ZM50.0572 8.068V10H48.1252V8.068H50.0572ZM57.3625 8.6V10H51.5245V8.852L54.8425 4.96C55.4725 4.232 55.8225 3.602 55.8225 2.93C55.8225 2.048 55.1645 1.6 54.4505 1.6C53.6945 1.6 53.1205 2.062 53.0785 2.93H51.5945C51.5945 1.292 52.9105 0.213999 54.5065 0.213999C56.1585 0.213999 57.4325 1.334 57.4325 2.958C57.4325 4.176 56.5925 5.128 55.9765 5.87L53.6945 8.6H57.3625ZM58.741 7.298C58.741 6.206 59.441 5.324 60.197 4.988C59.427 4.596 58.881 3.784 58.881 2.874C58.881 1.208 60.309 0.213999 61.863 0.213999C63.431 0.213999 64.845 1.208 64.845 2.874C64.845 3.784 64.299 4.596 63.529 4.988C64.313 5.324 64.985 6.206 64.985 7.298C64.985 9.062 63.529 10.126 61.863 10.126C60.197 10.126 58.741 9.062 58.741 7.298ZM60.365 7.2C60.365 8.04 60.995 8.726 61.863 8.726C62.703 8.726 63.375 8.04 63.375 7.2C63.375 6.262 62.577 5.688 61.863 5.688C61.121 5.688 60.365 6.262 60.365 7.2ZM60.491 2.986C60.491 3.756 61.093 4.372 61.863 4.372C62.619 4.372 63.235 3.756 63.235 2.986C63.235 2.23 62.619 1.628 61.863 1.628C61.093 1.628 60.491 2.23 60.491 2.986ZM76.3454 1.796L75.1134 2.678C74.6374 2.02 74.1194 1.628 73.0274 1.628C72.0334 1.628 71.4454 2.076 71.4454 2.888C71.4454 3.812 72.1734 4.176 73.5174 4.47C75.4634 4.89 76.4714 5.618 76.4714 7.354C76.4714 8.796 75.5054 10.126 73.1814 10.126C71.5294 10.126 70.3674 9.622 69.5694 8.544L70.8434 7.662C71.4174 8.348 71.9914 8.712 73.0974 8.712C74.4274 8.712 74.8474 8.124 74.8474 7.424C74.8474 6.654 74.4134 6.178 72.7334 5.814C70.8714 5.422 69.8214 4.526 69.8214 2.888C69.8214 1.432 70.7734 0.213999 73.0414 0.213999C74.5814 0.213999 75.6594 0.731999 76.3454 1.796ZM78.7445 10H77.0085L80.3685 0.339999H81.9085L85.2685 10H83.5465L82.8885 7.998H79.4025L78.7445 10ZM81.1385 2.692L79.8505 6.598H82.4265L81.1385 2.692ZM84.9261 0.339999H92.1081V1.754H89.3361V10H87.7121V1.754H84.9261V0.339999Z" fill="#42B983"/>
</svg>
