<svg width="702" height="130" viewBox="0 0 702 130" fill="none" xmlns="http://www.w3.org/2000/svg">
<g style="mix-blend-mode:lighten" filter="url(#filter0_f_33_16596)">
<path d="M47.082 19.82L64.074 69.5H74.802L91.794 19.82H78.762L69.402 49.844L60.114 19.82H47.082ZM125.73 33.5H114.93V54.02C114.93 58.988 113.562 61.004 109.89 61.004C106.29 61.004 105.138 58.844 105.138 53.948V33.5H94.3377V55.964C94.3377 66.764 100.53 70.22 107.586 70.22C112.05 70.22 113.706 68.996 115.146 66.692V69.5H125.73V33.5ZM152.9 58.484C151.604 60.14 150.884 61.148 147.5 61.148C143.108 61.148 142.1 58.34 141.956 54.236H161.396V49.988C161.396 38.756 156.716 32.78 146.276 32.78C136.916 32.78 131.156 37.748 131.156 48.908V53.948C131.156 62.876 136.052 70.22 147.428 70.22C153.98 70.22 158.3 68.42 160.82 64.028L152.9 58.484ZM146.348 41.852C148.868 41.852 150.38 43.076 150.596 47.036H142.028C142.316 43.796 143.54 41.852 146.348 41.852ZM186.261 19.82V69.5H198.213V49.916H215.493V39.98H198.213V29.756H217.653V19.82H186.261ZM241.564 58.484C240.268 60.14 239.548 61.148 236.164 61.148C231.772 61.148 230.764 58.34 230.62 54.236H250.06V49.988C250.06 38.756 245.38 32.78 234.94 32.78C225.58 32.78 219.82 37.748 219.82 48.908V53.948C219.82 62.876 224.716 70.22 236.092 70.22C242.644 70.22 246.964 68.42 249.484 64.028L241.564 58.484ZM235.012 41.852C237.532 41.852 239.044 43.076 239.26 47.036H230.692C230.98 43.796 232.204 41.852 235.012 41.852ZM283.277 38.756C280.469 34.148 275.285 32.78 269.381 32.78C260.165 32.78 254.981 37.1 254.981 44.3C254.981 51.356 260.237 54.668 268.373 56.468C271.757 57.188 272.981 57.692 272.981 59.06C272.981 60.356 271.541 61.004 269.165 61.004C265.061 61.004 263.621 59.852 262.397 58.196L254.045 64.244C257.285 68.636 262.037 70.22 269.381 70.22C278.669 70.22 283.781 65.972 283.781 58.772C283.781 52.148 280.109 48.188 270.245 46.316C266.933 45.668 265.781 45.092 265.781 43.868C265.781 42.284 267.653 41.996 269.165 41.996C272.477 41.996 273.917 42.932 275.285 44.516L283.277 38.756ZM302.854 62.156C306.454 67.196 311.782 70.22 319.774 70.22C330.214 70.22 336.766 65.036 336.766 51.068V19.82H324.814V51.068C324.814 58.412 322.582 60.284 318.838 60.284C316.606 60.284 314.158 58.988 312.574 56.684L302.854 62.156ZM342.499 58.772C342.499 66.332 347.971 70.22 355.027 70.22C358.987 70.22 360.931 68.492 362.155 66.548V69.5H372.667V46.532C372.667 35.444 367.051 32.78 357.691 32.78C350.059 32.78 345.883 34.292 343.075 38.756L350.635 44.012C351.931 42.14 353.371 41.564 356.467 41.564C361.507 41.564 362.155 42.932 362.155 46.46V47.54H355.747C348.259 47.54 342.499 51.212 342.499 58.772ZM362.155 56.252C362.155 59.564 361.003 61.724 357.403 61.724C354.667 61.724 353.011 60.572 353.011 58.484C353.011 56.108 354.523 55.172 357.259 55.172H362.155V56.252ZM410.854 48.908C410.854 38.612 405.238 32.78 397.102 32.78C393.934 32.78 391.63 33.716 389.974 35.3V33.5H379.174V83.18H389.974V68.78C391.558 69.716 393.79 70.22 397.03 70.22C406.102 70.22 410.854 63.308 410.854 53.948V48.908ZM395.014 61.148C390.838 61.148 389.974 58.268 389.974 54.092V49.844C389.974 44.516 391.126 41.852 395.014 41.852C398.902 41.852 400.054 44.516 400.054 49.844V53.012C400.054 57.764 399.478 61.148 395.014 61.148ZM414.428 58.772C414.428 66.332 419.9 70.22 426.956 70.22C430.916 70.22 432.86 68.492 434.084 66.548V69.5H444.596V46.532C444.596 35.444 438.98 32.78 429.62 32.78C421.988 32.78 417.812 34.292 415.004 38.756L422.564 44.012C423.86 42.14 425.3 41.564 428.396 41.564C433.436 41.564 434.084 42.932 434.084 46.46V47.54H427.676C420.188 47.54 414.428 51.212 414.428 58.772ZM434.084 56.252C434.084 59.564 432.932 61.724 429.332 61.724C426.596 61.724 424.94 60.572 424.94 58.484C424.94 56.108 426.452 55.172 429.188 55.172H434.084V56.252ZM451.103 69.5H461.903V48.908C461.903 44.3 463.343 41.996 467.087 41.996C470.543 41.996 471.695 44.156 471.695 48.98V69.5H482.495V46.892C482.495 35.948 476.303 32.78 469.247 32.78C465.431 32.78 462.767 34.796 461.615 36.236V33.5H451.103V69.5ZM539.258 59.564H524.066L532.562 49.772C535.802 46.028 540.122 40.772 540.122 33.932C540.122 25.796 533.138 19.1 523.706 19.1C514.706 19.1 507.434 25.364 507.434 34.004H517.73C518.018 30.692 520.034 28.892 522.986 28.892C525.794 28.892 528.242 30.548 528.242 34.004C528.242 37.1 527.09 39.908 524.138 43.364L507.938 62.444V69.5H539.258V59.564ZM582.067 53.66V35.588C582.067 22.844 573.859 19.1 564.211 19.1C554.563 19.1 546.355 22.844 546.355 35.66V53.66C546.355 65.756 554.563 70.22 564.211 70.22C573.859 70.22 582.067 65.756 582.067 53.66ZM558.235 37.028C558.235 31.7 559.675 29.036 564.211 29.036C568.675 29.036 570.115 31.7 570.115 37.028V52.292C570.115 57.62 568.675 60.284 564.211 60.284C559.675 60.284 558.235 57.62 558.235 52.292V37.028ZM619.836 59.564H604.644L613.14 49.772C616.38 46.028 620.7 40.772 620.7 33.932C620.7 25.796 613.716 19.1 604.284 19.1C595.284 19.1 588.012 25.364 588.012 34.004H598.308C598.596 30.692 600.612 28.892 603.564 28.892C606.372 28.892 608.82 30.548 608.82 34.004C608.82 37.1 607.668 39.908 604.716 43.364L588.516 62.444V69.5H619.836V59.564ZM638.885 48.836H642.773C647.165 48.836 649.253 50.924 649.253 54.596C649.253 57.764 647.381 60.284 643.637 60.284C639.893 60.284 637.733 58.484 637.301 55.748H627.005C627.365 64.1 633.629 70.22 644.573 70.22C655.517 70.22 661.133 63.668 661.133 55.46C661.133 49.7 657.965 45.884 653.933 43.724C656.669 42.14 660.413 38.9 660.413 33.068C660.413 25.796 653.429 19.1 643.997 19.1C634.925 19.1 628.229 25.076 627.725 33.284H638.021C638.597 30.692 640.325 28.892 643.277 28.892C646.301 28.892 648.533 30.692 648.533 33.788C648.533 37.316 645.797 38.9 642.773 38.9H638.885V48.836Z" fill="#F17C67"/>
</g>
<g style="mix-blend-mode:lighten" filter="url(#filter1_f_33_16596)">
<path d="M37.082 23.82L54.074 73.5H64.802L81.794 23.82H68.762L59.402 53.844L50.114 23.82H37.082ZM115.73 37.5H104.93V58.02C104.93 62.988 103.562 65.004 99.8897 65.004C96.2897 65.004 95.1377 62.844 95.1377 57.948V37.5H84.3377V59.964C84.3377 70.764 90.5297 74.22 97.5857 74.22C102.05 74.22 103.706 72.996 105.146 70.692V73.5H115.73V37.5ZM142.9 62.484C141.604 64.14 140.884 65.148 137.5 65.148C133.108 65.148 132.1 62.34 131.956 58.236H151.396V53.988C151.396 42.756 146.716 36.78 136.276 36.78C126.916 36.78 121.156 41.748 121.156 52.908V57.948C121.156 66.876 126.052 74.22 137.428 74.22C143.98 74.22 148.3 72.42 150.82 68.028L142.9 62.484ZM136.348 45.852C138.868 45.852 140.38 47.076 140.596 51.036H132.028C132.316 47.796 133.54 45.852 136.348 45.852ZM176.261 23.82V73.5H188.213V53.916H205.493V43.98H188.213V33.756H207.653V23.82H176.261ZM231.564 62.484C230.268 64.14 229.548 65.148 226.164 65.148C221.772 65.148 220.764 62.34 220.62 58.236H240.06V53.988C240.06 42.756 235.38 36.78 224.94 36.78C215.58 36.78 209.82 41.748 209.82 52.908V57.948C209.82 66.876 214.716 74.22 226.092 74.22C232.644 74.22 236.964 72.42 239.484 68.028L231.564 62.484ZM225.012 45.852C227.532 45.852 229.044 47.076 229.26 51.036H220.692C220.98 47.796 222.204 45.852 225.012 45.852ZM273.277 42.756C270.469 38.148 265.285 36.78 259.381 36.78C250.165 36.78 244.981 41.1 244.981 48.3C244.981 55.356 250.237 58.668 258.373 60.468C261.757 61.188 262.981 61.692 262.981 63.06C262.981 64.356 261.541 65.004 259.165 65.004C255.061 65.004 253.621 63.852 252.397 62.196L244.045 68.244C247.285 72.636 252.037 74.22 259.381 74.22C268.669 74.22 273.781 69.972 273.781 62.772C273.781 56.148 270.109 52.188 260.245 50.316C256.933 49.668 255.781 49.092 255.781 47.868C255.781 46.284 257.653 45.996 259.165 45.996C262.477 45.996 263.917 46.932 265.285 48.516L273.277 42.756ZM292.854 66.156C296.454 71.196 301.782 74.22 309.774 74.22C320.214 74.22 326.766 69.036 326.766 55.068V23.82H314.814V55.068C314.814 62.412 312.582 64.284 308.838 64.284C306.606 64.284 304.158 62.988 302.574 60.684L292.854 66.156ZM332.499 62.772C332.499 70.332 337.971 74.22 345.027 74.22C348.987 74.22 350.931 72.492 352.155 70.548V73.5H362.667V50.532C362.667 39.444 357.051 36.78 347.691 36.78C340.059 36.78 335.883 38.292 333.075 42.756L340.635 48.012C341.931 46.14 343.371 45.564 346.467 45.564C351.507 45.564 352.155 46.932 352.155 50.46V51.54H345.747C338.259 51.54 332.499 55.212 332.499 62.772ZM352.155 60.252C352.155 63.564 351.003 65.724 347.403 65.724C344.667 65.724 343.011 64.572 343.011 62.484C343.011 60.108 344.523 59.172 347.259 59.172H352.155V60.252ZM400.854 52.908C400.854 42.612 395.238 36.78 387.102 36.78C383.934 36.78 381.63 37.716 379.974 39.3V37.5H369.174V87.18H379.974V72.78C381.558 73.716 383.79 74.22 387.03 74.22C396.102 74.22 400.854 67.308 400.854 57.948V52.908ZM385.014 65.148C380.838 65.148 379.974 62.268 379.974 58.092V53.844C379.974 48.516 381.126 45.852 385.014 45.852C388.902 45.852 390.054 48.516 390.054 53.844V57.012C390.054 61.764 389.478 65.148 385.014 65.148ZM404.428 62.772C404.428 70.332 409.9 74.22 416.956 74.22C420.916 74.22 422.86 72.492 424.084 70.548V73.5H434.596V50.532C434.596 39.444 428.98 36.78 419.62 36.78C411.988 36.78 407.812 38.292 405.004 42.756L412.564 48.012C413.86 46.14 415.3 45.564 418.396 45.564C423.436 45.564 424.084 46.932 424.084 50.46V51.54H417.676C410.188 51.54 404.428 55.212 404.428 62.772ZM424.084 60.252C424.084 63.564 422.932 65.724 419.332 65.724C416.596 65.724 414.94 64.572 414.94 62.484C414.94 60.108 416.452 59.172 419.188 59.172H424.084V60.252ZM441.103 73.5H451.903V52.908C451.903 48.3 453.343 45.996 457.087 45.996C460.543 45.996 461.695 48.156 461.695 52.98V73.5H472.495V50.892C472.495 39.948 466.303 36.78 459.247 36.78C455.431 36.78 452.767 38.796 451.615 40.236V37.5H441.103V73.5ZM529.258 63.564H514.066L522.562 53.772C525.802 50.028 530.122 44.772 530.122 37.932C530.122 29.796 523.138 23.1 513.706 23.1C504.706 23.1 497.434 29.364 497.434 38.004H507.73C508.018 34.692 510.034 32.892 512.986 32.892C515.794 32.892 518.242 34.548 518.242 38.004C518.242 41.1 517.09 43.908 514.138 47.364L497.938 66.444V73.5H529.258V63.564ZM572.067 57.66V39.588C572.067 26.844 563.859 23.1 554.211 23.1C544.563 23.1 536.355 26.844 536.355 39.66V57.66C536.355 69.756 544.563 74.22 554.211 74.22C563.859 74.22 572.067 69.756 572.067 57.66ZM548.235 41.028C548.235 35.7 549.675 33.036 554.211 33.036C558.675 33.036 560.115 35.7 560.115 41.028V56.292C560.115 61.62 558.675 64.284 554.211 64.284C549.675 64.284 548.235 61.62 548.235 56.292V41.028ZM609.836 63.564H594.644L603.14 53.772C606.38 50.028 610.7 44.772 610.7 37.932C610.7 29.796 603.716 23.1 594.284 23.1C585.284 23.1 578.012 29.364 578.012 38.004H588.308C588.596 34.692 590.612 32.892 593.564 32.892C596.372 32.892 598.82 34.548 598.82 38.004C598.82 41.1 597.668 43.908 594.716 47.364L578.516 66.444V73.5H609.836V63.564ZM628.885 52.836H632.773C637.165 52.836 639.253 54.924 639.253 58.596C639.253 61.764 637.381 64.284 633.637 64.284C629.893 64.284 627.733 62.484 627.301 59.748H617.005C617.365 68.1 623.629 74.22 634.573 74.22C645.517 74.22 651.133 67.668 651.133 59.46C651.133 53.7 647.965 49.884 643.933 47.724C646.669 46.14 650.413 42.9 650.413 37.068C650.413 29.796 643.429 23.1 633.997 23.1C624.925 23.1 618.229 29.076 617.725 37.284H628.021C628.597 34.692 630.325 32.892 633.277 32.892C636.301 32.892 638.533 34.692 638.533 37.788C638.533 41.316 635.797 42.9 632.773 42.9H628.885V52.836Z" fill="#33A6B8"/>
</g>
<path d="M41.082 21.82L58.074 71.5H68.802L85.794 21.82H72.762L63.402 51.844L54.114 21.82H41.082ZM119.73 35.5H108.93V56.02C108.93 60.988 107.562 63.004 103.89 63.004C100.29 63.004 99.1377 60.844 99.1377 55.948V35.5H88.3377V57.964C88.3377 68.764 94.5297 72.22 101.586 72.22C106.05 72.22 107.706 70.996 109.146 68.692V71.5H119.73V35.5ZM146.9 60.484C145.604 62.14 144.884 63.148 141.5 63.148C137.108 63.148 136.1 60.34 135.956 56.236H155.396V51.988C155.396 40.756 150.716 34.78 140.276 34.78C130.916 34.78 125.156 39.748 125.156 50.908V55.948C125.156 64.876 130.052 72.22 141.428 72.22C147.98 72.22 152.3 70.42 154.82 66.028L146.9 60.484ZM140.348 43.852C142.868 43.852 144.38 45.076 144.596 49.036H136.028C136.316 45.796 137.54 43.852 140.348 43.852ZM180.261 21.82V71.5H192.213V51.916H209.493V41.98H192.213V31.756H211.653V21.82H180.261ZM235.564 60.484C234.268 62.14 233.548 63.148 230.164 63.148C225.772 63.148 224.764 60.34 224.62 56.236H244.06V51.988C244.06 40.756 239.38 34.78 228.94 34.78C219.58 34.78 213.82 39.748 213.82 50.908V55.948C213.82 64.876 218.716 72.22 230.092 72.22C236.644 72.22 240.964 70.42 243.484 66.028L235.564 60.484ZM229.012 43.852C231.532 43.852 233.044 45.076 233.26 49.036H224.692C224.98 45.796 226.204 43.852 229.012 43.852ZM277.277 40.756C274.469 36.148 269.285 34.78 263.381 34.78C254.165 34.78 248.981 39.1 248.981 46.3C248.981 53.356 254.237 56.668 262.373 58.468C265.757 59.188 266.981 59.692 266.981 61.06C266.981 62.356 265.541 63.004 263.165 63.004C259.061 63.004 257.621 61.852 256.397 60.196L248.045 66.244C251.285 70.636 256.037 72.22 263.381 72.22C272.669 72.22 277.781 67.972 277.781 60.772C277.781 54.148 274.109 50.188 264.245 48.316C260.933 47.668 259.781 47.092 259.781 45.868C259.781 44.284 261.653 43.996 263.165 43.996C266.477 43.996 267.917 44.932 269.285 46.516L277.277 40.756ZM296.854 64.156C300.454 69.196 305.782 72.22 313.774 72.22C324.214 72.22 330.766 67.036 330.766 53.068V21.82H318.814V53.068C318.814 60.412 316.582 62.284 312.838 62.284C310.606 62.284 308.158 60.988 306.574 58.684L296.854 64.156ZM336.499 60.772C336.499 68.332 341.971 72.22 349.027 72.22C352.987 72.22 354.931 70.492 356.155 68.548V71.5H366.667V48.532C366.667 37.444 361.051 34.78 351.691 34.78C344.059 34.78 339.883 36.292 337.075 40.756L344.635 46.012C345.931 44.14 347.371 43.564 350.467 43.564C355.507 43.564 356.155 44.932 356.155 48.46V49.54H349.747C342.259 49.54 336.499 53.212 336.499 60.772ZM356.155 58.252C356.155 61.564 355.003 63.724 351.403 63.724C348.667 63.724 347.011 62.572 347.011 60.484C347.011 58.108 348.523 57.172 351.259 57.172H356.155V58.252ZM404.854 50.908C404.854 40.612 399.238 34.78 391.102 34.78C387.934 34.78 385.63 35.716 383.974 37.3V35.5H373.174V85.18H383.974V70.78C385.558 71.716 387.79 72.22 391.03 72.22C400.102 72.22 404.854 65.308 404.854 55.948V50.908ZM389.014 63.148C384.838 63.148 383.974 60.268 383.974 56.092V51.844C383.974 46.516 385.126 43.852 389.014 43.852C392.902 43.852 394.054 46.516 394.054 51.844V55.012C394.054 59.764 393.478 63.148 389.014 63.148ZM408.428 60.772C408.428 68.332 413.9 72.22 420.956 72.22C424.916 72.22 426.86 70.492 428.084 68.548V71.5H438.596V48.532C438.596 37.444 432.98 34.78 423.62 34.78C415.988 34.78 411.812 36.292 409.004 40.756L416.564 46.012C417.86 44.14 419.3 43.564 422.396 43.564C427.436 43.564 428.084 44.932 428.084 48.46V49.54H421.676C414.188 49.54 408.428 53.212 408.428 60.772ZM428.084 58.252C428.084 61.564 426.932 63.724 423.332 63.724C420.596 63.724 418.94 62.572 418.94 60.484C418.94 58.108 420.452 57.172 423.188 57.172H428.084V58.252ZM445.103 71.5H455.903V50.908C455.903 46.3 457.343 43.996 461.087 43.996C464.543 43.996 465.695 46.156 465.695 50.98V71.5H476.495V48.892C476.495 37.948 470.303 34.78 463.247 34.78C459.431 34.78 456.767 36.796 455.615 38.236V35.5H445.103V71.5ZM533.258 61.564H518.066L526.562 51.772C529.802 48.028 534.122 42.772 534.122 35.932C534.122 27.796 527.138 21.1 517.706 21.1C508.706 21.1 501.434 27.364 501.434 36.004H511.73C512.018 32.692 514.034 30.892 516.986 30.892C519.794 30.892 522.242 32.548 522.242 36.004C522.242 39.1 521.09 41.908 518.138 45.364L501.938 64.444V71.5H533.258V61.564ZM576.067 55.66V37.588C576.067 24.844 567.859 21.1 558.211 21.1C548.563 21.1 540.355 24.844 540.355 37.66V55.66C540.355 67.756 548.563 72.22 558.211 72.22C567.859 72.22 576.067 67.756 576.067 55.66ZM552.235 39.028C552.235 33.7 553.675 31.036 558.211 31.036C562.675 31.036 564.115 33.7 564.115 39.028V54.292C564.115 59.62 562.675 62.284 558.211 62.284C553.675 62.284 552.235 59.62 552.235 54.292V39.028ZM613.836 61.564H598.644L607.14 51.772C610.38 48.028 614.7 42.772 614.7 35.932C614.7 27.796 607.716 21.1 598.284 21.1C589.284 21.1 582.012 27.364 582.012 36.004H592.308C592.596 32.692 594.612 30.892 597.564 30.892C600.372 30.892 602.82 32.548 602.82 36.004C602.82 39.1 601.668 41.908 598.716 45.364L582.516 64.444V71.5H613.836V61.564ZM632.885 50.836H636.773C641.165 50.836 643.253 52.924 643.253 56.596C643.253 59.764 641.381 62.284 637.637 62.284C633.893 62.284 631.733 60.484 631.301 57.748H621.005C621.365 66.1 627.629 72.22 638.573 72.22C649.517 72.22 655.133 65.668 655.133 57.46C655.133 51.7 651.965 47.884 647.933 45.724C650.669 44.14 654.413 40.9 654.413 35.068C654.413 27.796 647.429 21.1 637.997 21.1C628.925 21.1 622.229 27.076 621.725 35.284H632.021C632.597 32.692 634.325 30.892 637.277 30.892C640.301 30.892 642.533 32.692 642.533 35.788C642.533 39.316 639.797 40.9 636.773 40.9H632.885V50.836Z" fill="white"/>
<path d="M126.692 118.9H119.88L124.118 113.83C125.262 112.452 126.822 110.684 126.822 108.422C126.822 105.406 124.456 103.326 121.388 103.326C118.424 103.326 115.98 105.328 115.98 108.37H118.736C118.814 106.758 119.88 105.9 121.284 105.9C122.61 105.9 123.832 106.732 123.832 108.37C123.832 109.618 123.182 110.788 122.012 112.14L115.85 119.368V121.5H126.692V118.9ZM140.692 116.248V108.812C140.692 105.016 138.04 103.326 135.05 103.326C132.06 103.326 129.408 105.016 129.408 108.838V116.248C129.408 119.966 132.06 121.734 135.05 121.734C138.04 121.734 140.692 119.966 140.692 116.248ZM137.676 108.994V116.066C137.676 117.99 136.662 119.108 135.05 119.108C133.412 119.108 132.398 117.99 132.398 116.066V108.994C132.398 107.07 133.412 105.952 135.05 105.952C136.662 105.952 137.676 107.07 137.676 108.994ZM153.86 118.9H147.048L151.286 113.83C152.43 112.452 153.99 110.684 153.99 108.422C153.99 105.406 151.624 103.326 148.556 103.326C145.592 103.326 143.148 105.328 143.148 108.37H145.904C145.982 106.758 147.048 105.9 148.452 105.9C149.778 105.9 151 106.732 151 108.37C151 109.618 150.35 110.788 149.18 112.14L143.018 119.368V121.5H153.86V118.9ZM160.372 113.544H161.62C163.7 113.544 164.766 114.636 164.766 116.456C164.766 117.964 163.7 119.108 162.14 119.108C160.294 119.108 159.384 118.12 159.176 116.82H156.42C156.576 119.654 158.63 121.734 162.27 121.734C165.728 121.734 167.756 119.368 167.756 116.534C167.756 114.324 166.586 112.92 164.948 112.192C166.352 111.49 167.496 110.138 167.496 108.188C167.496 105.484 165.208 103.326 162.062 103.326C159.176 103.326 156.732 105.224 156.654 108.11H159.41C159.54 106.862 160.502 105.9 161.958 105.9C163.492 105.9 164.506 106.966 164.506 108.266C164.506 109.956 163.492 110.944 161.62 110.944H160.372V113.544ZM174.164 117.912H170.576V121.5H174.164V117.912ZM184.559 103.56H181.725L178.969 105.536V108.578L181.543 106.81V121.5H184.559V103.56ZM201.731 116.248V108.812C201.731 105.016 199.079 103.326 196.089 103.326C193.099 103.326 190.447 105.016 190.447 108.838V116.248C190.447 119.966 193.099 121.734 196.089 121.734C199.079 121.734 201.731 119.966 201.731 116.248ZM198.715 108.994V116.066C198.715 117.99 197.701 119.108 196.089 119.108C194.451 119.108 193.437 117.99 193.437 116.066V108.994C193.437 107.07 194.451 105.952 196.089 105.952C197.701 105.952 198.715 107.07 198.715 108.994ZM208.035 117.912H204.447V121.5H208.035V117.912ZM221.602 118.9H214.79L219.028 113.83C220.172 112.452 221.732 110.684 221.732 108.422C221.732 105.406 219.366 103.326 216.298 103.326C213.334 103.326 210.89 105.328 210.89 108.37H213.646C213.724 106.758 214.79 105.9 216.194 105.9C217.52 105.9 218.742 106.732 218.742 108.37C218.742 109.618 218.092 110.788 216.922 112.14L210.76 119.368V121.5H221.602V118.9ZM224.162 116.482C224.162 119.758 226.866 121.734 229.96 121.734C233.054 121.734 235.758 119.758 235.758 116.482C235.758 114.454 234.51 112.816 233.054 112.192C234.484 111.464 235.498 109.956 235.498 108.266C235.498 105.172 232.872 103.326 229.96 103.326C227.074 103.326 224.422 105.172 224.422 108.266C224.422 109.956 225.436 111.464 226.866 112.192C225.462 112.816 224.162 114.454 224.162 116.482ZM227.178 116.3C227.178 114.558 228.582 113.492 229.96 113.492C231.286 113.492 232.768 114.558 232.768 116.3C232.768 117.86 231.52 119.134 229.96 119.134C228.348 119.134 227.178 117.86 227.178 116.3ZM227.412 108.474C227.412 107.07 228.53 105.952 229.96 105.952C231.364 105.952 232.508 107.07 232.508 108.474C232.508 109.904 231.364 111.048 229.96 111.048C228.53 111.048 227.412 109.904 227.412 108.474ZM256.856 106.264C255.582 104.288 253.58 103.326 250.72 103.326C246.508 103.326 244.74 105.588 244.74 108.292C244.74 111.334 246.69 112.998 250.148 113.726C253.268 114.402 254.074 115.286 254.074 116.716C254.074 118.016 253.294 119.108 250.824 119.108C248.77 119.108 247.704 118.432 246.638 117.158L244.272 118.796C245.754 120.798 247.912 121.734 250.98 121.734C255.296 121.734 257.09 119.264 257.09 116.586C257.09 113.362 255.218 112.01 251.604 111.23C249.108 110.684 247.756 110.008 247.756 108.292C247.756 106.784 248.848 105.952 250.694 105.952C252.722 105.952 253.684 106.68 254.568 107.902L256.856 106.264ZM261.311 121.5L262.533 117.782H269.007L270.229 121.5H273.427L267.187 103.56H264.327L258.087 121.5H261.311ZM265.757 107.928L268.149 115.182H263.365L265.757 107.928ZM272.791 103.56V106.186H277.965V121.5H280.981V106.186H286.129V103.56H272.791Z" fill="#42B983"/>
<rect x="302.5" y="112" width="98" height="2" fill="#42B983"/>
<path d="M428.787 103.56V115.91L421.403 103.56H418.803V121.5H421.715V109.306L429.021 121.5H431.699V103.56H428.787ZM434.519 117.678C434.519 120.278 436.287 121.734 439.147 121.734C440.733 121.734 441.539 121.318 442.163 120.304V121.5H444.893V112.764C444.893 109.306 443.099 108.266 439.771 108.266C437.197 108.266 435.793 108.89 434.857 110.424L436.859 111.828C437.483 110.814 438.185 110.658 439.589 110.658C441.539 110.658 442.163 111.1 442.163 112.738V113.83H439.355C436.573 113.83 434.519 114.896 434.519 117.678ZM442.163 116.586C442.163 118.848 441.149 119.368 439.459 119.368C438.133 119.368 437.249 118.874 437.249 117.678C437.249 116.534 437.925 115.962 439.563 115.962H442.163V116.586ZM454.988 108.5L450.646 113.57V103.56H447.864V121.5H450.646V117.236L451.53 116.248L455.82 121.5H459.174L453.428 114.09L458.394 108.5H454.988ZM460.087 117.678C460.087 120.278 461.855 121.734 464.715 121.734C466.301 121.734 467.107 121.318 467.731 120.304V121.5H470.461V112.764C470.461 109.306 468.667 108.266 465.339 108.266C462.765 108.266 461.361 108.89 460.425 110.424L462.427 111.828C463.051 110.814 463.753 110.658 465.157 110.658C467.107 110.658 467.731 111.1 467.731 112.738V113.83H464.923C462.141 113.83 460.087 114.896 460.087 117.678ZM467.731 116.586C467.731 118.848 466.717 119.368 465.027 119.368C463.701 119.368 462.817 118.874 462.817 117.678C462.817 116.534 463.493 115.962 465.131 115.962H467.731V116.586ZM473.432 121.5H476.214V113.648C476.214 111.906 477.176 110.736 478.892 110.736C480.322 110.736 481.362 111.386 481.362 113.674V121.5H484.118V113.362C484.118 109.618 482.064 108.266 479.386 108.266C477.67 108.266 476.734 108.89 476.162 109.67V108.5H473.432V121.5ZM497.622 114.168C497.622 110.346 495.62 108.266 492.11 108.266C488.6 108.266 486.572 110.346 486.572 114.168V115.806C486.572 119.394 488.47 121.734 492.11 121.734C495.932 121.734 497.622 119.264 497.622 115.806V114.168ZM492.11 119.342C490.004 119.342 489.328 117.756 489.328 115.728V114.22C489.328 111.984 490.238 110.684 492.11 110.684C493.956 110.684 494.866 111.958 494.866 114.22V115.728C494.866 117.756 494.086 119.342 492.11 119.342ZM502.984 117.912H499.916V125.478L502.984 122.852V117.912ZM511.234 103.56V106.186H516.408V121.5H519.424V106.186H524.572V103.56H511.234ZM539.351 113.674V111.386C539.351 105.744 536.647 103.326 532.617 103.326C528.613 103.326 525.909 105.744 525.909 111.386V113.674C525.909 119.316 528.613 121.734 532.617 121.734C536.647 121.734 539.351 119.316 539.351 113.674ZM528.925 111.386C528.925 107.512 530.225 105.952 532.617 105.952C535.009 105.952 536.335 107.512 536.335 111.386V113.674C536.335 117.548 535.009 119.108 532.617 119.108C530.225 119.108 528.925 117.548 528.925 113.674V111.386ZM557.064 121.5L550.226 110.788L555.894 103.56H552.202L545.598 112.218V103.56H542.582V121.5H545.598V116.716L548.25 113.31L553.45 121.5H557.064ZM557.194 103.56L562.784 114.012V121.5H565.8V114.012L571.39 103.56H567.906L564.292 110.736L560.704 103.56H557.194ZM585.918 113.674V111.386C585.918 105.744 583.214 103.326 579.184 103.326C575.18 103.326 572.476 105.744 572.476 111.386V113.674C572.476 119.316 575.18 121.734 579.184 121.734C583.214 121.734 585.918 119.316 585.918 113.674ZM575.492 111.386C575.492 107.512 576.792 105.952 579.184 105.952C581.576 105.952 582.902 107.512 582.902 111.386V113.674C582.902 117.548 581.576 119.108 579.184 119.108C576.792 119.108 575.492 117.548 575.492 113.674V111.386Z" fill="#42B983"/>
<defs>
<filter id="filter0_f_33_16596" x="39.082" y="11.1" width="630.051" height="80.0801" filterUnits="userSpaceOnUse" color-interpolation-filters="sRGB">
<feFlood flood-opacity="0" result="BackgroundImageFix"/>
<feBlend mode="normal" in="SourceGraphic" in2="BackgroundImageFix" result="shape"/>
<feGaussianBlur stdDeviation="4" result="effect1_foregroundBlur_33_16596"/>
</filter>
<filter id="filter1_f_33_16596" x="29.082" y="15.1" width="630.051" height="80.0801" filterUnits="userSpaceOnUse" color-interpolation-filters="sRGB">
<feFlood flood-opacity="0" result="BackgroundImageFix"/>
<feBlend mode="normal" in="SourceGraphic" in2="BackgroundImageFix" result="shape"/>
<feGaussianBlur stdDeviation="4" result="effect1_foregroundBlur_33_16596"/>
</filter>
</defs>
</svg>
