<svg width="24" height="24" viewBox="0 0 24 24" fill="none" xmlns="http://www.w3.org/2000/svg">
<path d="M18 15C18 15.6669 17.6736 16.2575 17.1718 16.6209C19 17.0567 19 18.5953 19 20H13C13 18.5953 13 17.0567 14.8282 16.6209C14.3264 16.2575 14 15.6669 14 15C14 13.8954 14.8954 13 16 13C17.1046 13 18 13.8954 18 15Z" fill="white"/>
<path d="M6 14C5.44772 14 5 14.4477 5 15C5 15.5523 5.44772 16 6 16H11C11.5523 16 12 15.5523 12 15C12 14.4477 11.5523 14 11 14H6Z" fill="white"/>
<path d="M5 18C5 17.4477 5.44772 17 6 17H8C8.55228 17 9 17.4477 9 18C9 18.5523 8.55228 19 8 19H6C5.44772 19 5 18.5523 5 18Z" fill="white"/>
<path fill-rule="evenodd" clip-rule="evenodd" d="M9 3C9 1.89543 9.89543 1 11 1H13C14.1046 1 15 1.89543 15 3V7H20C21.1046 7 22 7.89543 22 9V21C22 22.1046 21.1046 23 20 23H4C2.89543 23 2 22.1046 2 21V9C2 7.89543 2.89543 7 4 7H9V3ZM15 10V9H20V21H4V9H9V10C9 11.1046 9.89543 12 11 12H13C14.1046 12 15 11.1046 15 10ZM13 3H11V10H13V3Z" fill="white"/>
</svg>
