<svg width="24" height="24" viewBox="0 0 24 24" fill="none" xmlns="http://www.w3.org/2000/svg">
<path d="M2.25026 0.750012C1.83601 0.335771 1.1644 0.335771 0.750157 0.750012C0.335916 1.16425 0.335916 1.83587 0.750157 2.25011L10.5638 12.0637L0.750134 21.8774C0.335893 22.2916 0.335893 22.9632 0.750134 23.3775C1.16437 23.7917 1.83599 23.7917 2.25023 23.3775L12.0639 13.5638L21.8775 23.3774C22.2917 23.7917 22.9633 23.7917 23.3776 23.3774C23.7918 22.9632 23.7918 22.2916 23.3776 21.8773L13.564 12.0637L23.3776 2.25013C23.7918 1.83589 23.7918 1.16428 23.3776 0.750036C22.9633 0.335795 22.2917 0.335795 21.8775 0.750036L12.0639 10.5636L2.25026 0.750012Z" fill="white"/>
</svg>
