<?xml version="1.0" encoding="UTF-8"?>
<!DOCTYPE svg PUBLIC "-//W3C//DTD SVG 1.1//EN" "http://www.w3.org/Graphics/SVG/1.1/DTD/svg11.dtd">
<svg xmlns="http://www.w3.org/2000/svg" version="1.1" width="40px" height="40px" style="shape-rendering:geometricPrecision; text-rendering:geometricPrecision; image-rendering:optimizeQuality; fill-rule:evenodd; clip-rule:evenodd" xmlns:xlink="http://www.w3.org/1999/xlink">
<g><path style="opacity:0.983" fill="#1c78f2" d="M 16.5,-0.5 C 18.5,-0.5 20.5,-0.5 22.5,-0.5C 31.6126,2.27842 37.2793,8.27842 39.5,17.5C 39.5,18.8333 39.5,20.1667 39.5,21.5C 37.5318,30.8015 31.8652,36.4682 22.5,38.5C 22.5,33.8333 22.5,29.1667 22.5,24.5C 24.1667,24.5 25.8333,24.5 27.5,24.5C 27.5,22.8333 27.5,21.1667 27.5,19.5C 25.8333,19.5 24.1667,19.5 22.5,19.5C 22.0535,16.9899 22.7202,14.9899 24.5,13.5C 25.8333,13.5 27.1667,13.5 28.5,13.5C 28.7845,11.5853 28.4511,9.91866 27.5,8.5C 19.1276,6.86802 15.4609,10.5347 16.5,19.5C 14.8333,19.5 13.1667,19.5 11.5,19.5C 11.5,21.1667 11.5,22.8333 11.5,24.5C 13.1667,24.5 14.8333,24.5 16.5,24.5C 16.5,29.1667 16.5,33.8333 16.5,38.5C 7.25496,36.9205 1.58829,31.5872 -0.5,22.5C -0.5,20.5 -0.5,18.5 -0.5,16.5C 2.16667,7.83333 7.83333,2.16667 16.5,-0.5 Z"/></g>
<g><path style="opacity:0.978" fill="#fafcfe" d="M 27.5,8.5 C 27.5,9.83333 27.5,11.1667 27.5,12.5C 26.209,12.2627 25.209,12.596 24.5,13.5C 22.7202,14.9899 22.0535,16.9899 22.5,19.5C 24.1667,19.5 25.8333,19.5 27.5,19.5C 27.5,21.1667 27.5,22.8333 27.5,24.5C 25.8333,24.5 24.1667,24.5 22.5,24.5C 22.5,29.1667 22.5,33.8333 22.5,38.5C 22.5,38.8333 22.5,39.1667 22.5,39.5C 20.5,39.5 18.5,39.5 16.5,39.5C 16.5,39.1667 16.5,38.8333 16.5,38.5C 16.5,33.8333 16.5,29.1667 16.5,24.5C 14.8333,24.5 13.1667,24.5 11.5,24.5C 11.5,22.8333 11.5,21.1667 11.5,19.5C 13.1667,19.5 14.8333,19.5 16.5,19.5C 15.4609,10.5347 19.1276,6.86802 27.5,8.5 Z"/></g>
<g><path style="opacity:1" fill="#7eb2f7" d="M 27.5,8.5 C 28.4511,9.91866 28.7845,11.5853 28.5,13.5C 27.1667,13.5 25.8333,13.5 24.5,13.5C 25.209,12.596 26.209,12.2627 27.5,12.5C 27.5,11.1667 27.5,9.83333 27.5,8.5 Z"/></g>
</svg>
