<svg width="40" height="40" viewBox="0 0 40 40" xmlns="http://www.w3.org/2000/svg">
<path d="M26.621 31.0469C26.621 31.2031 26.8065 31.3281 27.0403 31.3281C27.3065 31.3516 27.4919 31.2266 27.4919 31.0469C27.4919 30.8906 27.3065 30.7656 27.0726 30.7656C26.8306 30.7422 26.621 30.8672 26.621 31.0469ZM29.129 30.6953C29.1855 30.8516 29.0242 31.0312 28.7823 31.0781C28.5726 31.1562 28.3306 31.0781 28.2823 30.9219C28.2339 30.7656 28.3871 30.5859 28.629 30.5156C28.8387 30.4609 29.0726 30.5391 29.129 30.6953ZM25.5645 30.5625C25.7984 30.6172 25.9597 30.7656 25.9355 30.9453C25.9113 31.1016 25.7016 31.2031 25.4597 31.1484C25.2258 31.0938 25.0645 30.9453 25.0887 30.7891C25.1129 30.6406 25.3306 30.5391 25.5645 30.5625ZM20.2581 0.625C31.4435 0.625 40 8.85156 40 19.6875C40 28.3516 34.371 35.7656 26.3306 38.375C25.2984 38.5547 24.9355 37.9375 24.9355 37.4297C24.9355 36.9453 24.9597 34.2734 24.9597 32.6328C24.9597 32.6328 30.6048 33.8047 31.7903 30.3047C31.7903 30.3047 32.7097 28.0312 34.0323 27.4453C34.0323 27.4453 35.879 26.2188 33.9032 26.2422C33.9032 26.2422 31.8952 26.3984 30.7903 28.2578C29.0242 31.2734 26.0645 30.4062 24.9113 29.8906C24.7258 28.6406 24.2016 27.7734 23.621 27.2578C28.129 26.7734 32.6774 26.1406 32.6774 18.625C32.6774 16.4766 32.0645 15.3984 30.7742 14.0234C30.9839 13.5156 31.6694 11.4219 30.5645 8.71875C28.879 8.21094 25 10.8281 25 10.8281C23.3871 10.3906 21.6532 10.1641 19.9355 10.1641C18.2177 10.1641 16.4839 10.3906 14.871 10.8281C14.871 10.8281 10.9919 8.20312 9.30645 8.71875C8.20161 11.4297 8.8871 13.5156 9.09678 14.0234C7.80645 15.4062 7.01613 16.4844 7.01613 18.625C7.01613 26.1641 11.7661 26.7656 16.2742 27.2578C15.5323 27.875 14.9032 29.0469 14.9032 30.8828C14.9032 33.5156 14.9274 36.7734 14.9274 37.4141C14.9274 37.9219 14.5565 38.5391 13.5323 38.3594C5.46774 35.7656 0 28.3516 0 19.6875C0 8.85156 9.07258 0.625 20.2581 0.625ZM32.1613 27.5703C32.2661 27.6484 32.2419 27.8281 32.1048 27.9766C31.9758 28.1016 31.7903 28.1562 31.6855 28.0547C31.5806 27.9766 31.6048 27.7969 31.7419 27.6484C31.871 27.5234 32.0565 27.4688 32.1613 27.5703ZM33.0323 26.9375C33.0887 27.0391 33.0081 27.1641 32.8468 27.2422C32.7177 27.3203 32.5565 27.2969 32.5 27.1875C32.4435 27.0859 32.5242 26.9609 32.6855 26.8828C32.8468 26.8359 32.9758 26.8594 33.0323 26.9375ZM30.4194 29.7188C30.5484 29.8203 30.5 30.0547 30.3145 30.2031C30.129 30.3828 29.8952 30.4062 29.7903 30.2812C29.6855 30.1797 29.7339 29.9453 29.8952 29.7969C30.0726 29.6172 30.3145 29.5938 30.4194 29.7188ZM31.3387 28.5703C31.4677 28.6484 31.4677 28.8516 31.3387 29.0312C31.2097 29.2109 30.9919 29.2891 30.8871 29.2109C30.7581 29.1094 30.7581 28.9062 30.8871 28.7266C31 28.5469 31.2097 28.4688 31.3387 28.5703Z" />
</svg>
