<svg width="24" height="24" viewBox="0 0 24 24" xmlns="http://www.w3.org/2000/svg">
<path fill-rule="evenodd" clip-rule="evenodd" d="M6 2C4.34315 2 3 3.34315 3 5V19C3 20.6569 4.34315 22 6 22H13C13.5523 22 14 21.5523 14 21C14 20.4477 13.5523 20 13 20H6C5.44772 20 5 19.5523 5 19V5C5 4.44772 5.44772 4 6 4H12.5714C13.1237 4 13.5714 3.55228 13.5714 3C13.5714 2.44772 13.1237 2 12.5714 2H6ZM15.7071 17.7071C15.3166 18.0976 14.6834 18.0976 14.2929 17.7071L9.29289 12.7071C9.19702 12.6112 9.12468 12.5007 9.07588 12.3828C9.02699 12.2649 9 12.1356 9 12C9 11.7294 9.10747 11.4839 9.28205 11.3039L9.294 11.2918L14.2929 6.29289C14.6834 5.90237 15.3166 5.90237 15.7071 6.29289C16.0976 6.68342 16.0976 7.31658 15.7071 7.70711L12.4142 11L20 11C20.5523 11 21 11.4477 21 12C21 12.5523 20.5523 13 20 13L12.4142 13L15.7071 16.2929C16.0976 16.6834 16.0976 17.3166 15.7071 17.7071Z" />
</svg>
