<svg width="24" height="24" viewBox="0 0 24 24" fill="none" xmlns="http://www.w3.org/2000/svg">
<path fill-rule="evenodd" clip-rule="evenodd" d="M6 2C4.34315 2 3 3.34315 3 5V19C3 20.6569 4.34315 22 6 22H13C13.5523 22 14 21.5523 14 21C14 20.4477 13.5523 20 13 20H6C5.44772 20 5 19.5523 5 19V5C5 4.44772 5.44772 4 6 4H12.5714C13.1237 4 13.5714 3.55228 13.5714 3C13.5714 2.44772 13.1237 2 12.5714 2H6ZM14.2929 6.29289C14.6834 5.90237 15.3166 5.90237 15.7071 6.29289L20.7071 11.2929C20.803 11.3888 20.8753 11.4993 20.9241 11.6172C20.9727 11.7343 20.9996 11.8625 21 11.997L21 12L21 12.003C20.9992 12.2734 20.8911 12.5185 20.716 12.6981L20.706 12.7082L15.7071 17.7071C15.3166 18.0976 14.6834 18.0976 14.2929 17.7071C13.9024 17.3166 13.9024 16.6834 14.2929 16.2929L17.5858 13L10 13C9.44771 13 9 12.5523 9 12C9 11.4477 9.44772 11 10 11L17.5858 11L14.2929 7.70711C13.9024 7.31658 13.9024 6.68342 14.2929 6.29289Z" fill="white"/>
</svg>
