<svg width="60" height="24" viewBox="0 0 60 24" xmlns="http://www.w3.org/2000/svg">
<path d="M8.06381 7.01671C5.70367 6.95702 2.39948 7.0764 0 7.0764V18.25H3.43532V9.79818C3.43532 9.79818 6.49038 9.70267 7.59178 9.82205C8.62762 9.92949 9.00787 10.5144 9.0472 11.7321C9.07343 13.1168 9.0472 13.845 9.0472 18.25H12.4825C12.4825 18.25 12.5219 13.2123 12.4825 11.4575C12.4301 8.34179 11.2369 7.08834 8.06381 7.01671Z" />
<path d="M23.125 7C20.0253 7 17.5 9.52114 17.5 12.625C17.5 15.7289 20.0253 18.25 23.125 18.25C26.2247 18.25 28.75 15.7289 28.75 12.625C28.75 9.52114 26.2247 7 23.125 7ZM23.125 15.5624C21.4973 15.5624 20.1809 14.2423 20.1809 12.6131C20.1809 10.9839 21.4973 9.66385 23.125 9.66385C24.7527 9.66385 26.0691 10.9839 26.0691 12.6131C26.0691 14.2542 24.7527 15.5624 23.125 15.5624Z" />
<path d="M60 12.625C60 9.52114 57.4747 7 54.375 7C51.2753 7 48.75 9.52114 48.75 12.625C48.75 14.4445 49.5878 16.0024 50.8923 17.037C51.8019 17.7505 53.0705 18.25 54.7699 18.25C55.5957 18.25 57.738 18.0241 59.2819 16.3235L58.0133 14.6348C57.4747 15.1105 56.1223 15.7764 55.0452 15.7764C53.6809 15.7764 52.8551 15.5148 52.2566 14.9559C51.8856 14.6229 51.6223 14.1115 51.5027 13.4812H59.9162C59.9641 13.1958 60 12.9223 60 12.625ZM51.5266 11.6023C51.8378 10.2822 52.7713 9.30708 54.363 9.30708C56.0266 9.30708 56.9003 10.3536 57.1875 11.6023H51.5266Z" />
<path d="M39.9766 5.75H37.5234V9.18342H35V12.186H37.5234V15.75H39.9766V12.186H42.5V9.18342H39.9766V5.75Z"/>
</svg>
