<?xml version="1.0" standalone="no"?>
<!DOCTYPE svg PUBLIC "-//W3C//DTD SVG 20010904//EN"
 "http://www.w3.org/TR/2001/REC-SVG-20010904/DTD/svg10.dtd">
<svg version="1.0" xmlns="http://www.w3.org/2000/svg"
 width="40.000000" height="40.000000" viewBox="0 0 96.000000 96.000000"
 preserveAspectRatio="xMidYMid meet">

<g transform="translate(0.000000,96.000000) scale(0.100000,-0.100000)"
 stroke="none">
<path d="M185 855 l-25 -24 0 -351 0 -351 25 -24 24 -25 271 0 271 0 24 25 25
24 0 258 0 258 -118 118 -117 117 -178 0 c-176 0 -178 0 -202 -25z m455 -150
l105 -105 -113 0 -112 0 0 105 c0 58 3 105 8 105 4 0 54 -47 112 -105z m0
-225 l0 -40 -160 0 -160 0 0 40 0 40 160 0 160 0 0 -40z m0 -120 l0 -40 -160
0 -160 0 0 40 0 40 160 0 160 0 0 -40z m-120 -120 l0 -40 -100 0 -100 0 0 40
0 40 100 0 100 0 0 -40z"/>
</g>
</svg>
