<svg width="49" height="40" viewBox="0 0 49 40" fill="none" xmlns="http://www.w3.org/2000/svg">
<path id="white_background" d="M43.5859 9.70971C43.6152 10.1329 43.6152 10.556 43.6152 10.9831C43.6152 23.9956 33.709 39.0031 15.5952 39.0031V38.9953C10.2443 39.0031 5.00457 37.4703 0.5 34.5804C1.27806 34.674 2.06002 34.7208 2.84394 34.7228C7.27831 34.7267 11.5859 33.2388 15.0745 30.499C10.8605 30.419 7.1652 27.6714 5.87428 23.6602C7.35046 23.9449 8.87148 23.8864 10.3204 23.4906C5.72608 22.5624 2.42078 18.5258 2.42078 13.8379C2.42078 13.795 2.42078 13.7541 2.42078 13.7131C3.7897 14.4756 5.32243 14.8987 6.89025 14.9455C2.56313 12.0536 1.22931 6.29716 3.84235 1.79649C8.84223 7.94884 16.2192 11.689 24.1383 12.0849C23.3446 8.6645 24.4288 5.08034 26.9873 2.67595C30.9536 -1.0525 37.1918 -0.861402 40.9202 3.10301C43.1257 2.66815 45.2396 1.85889 47.174 0.712273C46.4388 2.99186 44.9002 4.92824 42.8449 6.15871C44.7969 5.9286 46.704 5.406 48.5 4.60843C47.1779 6.58966 45.5126 8.31544 43.5859 9.70971Z" fill="#1D9BF0"/>
</svg>
