<svg width="30" height="24" viewBox="0 0 30 24" fill="none" xmlns="http://www.w3.org/2000/svg">
<path d="M26.9762 5.97474C26.9942 6.23512 26.9942 6.4955 26.9942 6.75829C26.9942 14.7654 20.8986 24 9.75248 24V23.9952C6.45989 24 3.23569 23.0569 0.463867 21.2786C0.942637 21.3362 1.42381 21.365 1.90618 21.3662C4.6348 21.3686 7.28544 20.453 9.4321 18.7671C6.83907 18.7179 4.56521 17.0272 3.77086 14.559C4.6792 14.7342 5.61514 14.6982 6.50669 14.4546C3.67966 13.8834 1.64579 11.3996 1.64579 8.51498C1.64579 8.48858 1.64579 8.46338 1.64579 8.43818C2.48814 8.90735 3.43128 9.16774 4.39602 9.19653C1.73339 7.41705 0.912639 3.87487 2.52054 1.10545C5.59714 4.89121 10.1365 7.19266 15.0094 7.43625C14.521 5.33158 15.1881 3.12612 16.7624 1.64661C19.2031 -0.647644 23.0416 -0.530052 25.3359 1.90939C26.693 1.64181 27.9937 1.14384 29.1841 0.438287C28.7317 1.841 27.7849 3.03252 26.5202 3.78968C27.7213 3.64808 28.8949 3.3265 30 2.83574C29.1865 4.05486 28.1617 5.11679 26.9762 5.97474Z"/>
</svg>
