<svg width="46" height="46" viewBox="0 0 46 46" fill="none" xmlns="http://www.w3.org/2000/svg">
<g clip-path="url(#clip0_1324_19980)">
<path d="M38.3865 21.945C38.4048 21.7111 38.4168 21.4753 38.4168 21.2366C38.4168 16.2743 34.3941 12.2515 29.4317 12.2515C27.9025 12.2515 26.4631 12.6346 25.2026 13.3084C23.8427 9.47811 20.1884 6.73438 15.8918 6.73438C10.4357 6.73438 6.01261 11.1575 6.01261 16.6136C6.01261 17.6393 6.16903 18.6283 6.45914 19.5585C2.6777 21.047 0 24.7292 0 29.0392C0 34.6658 4.56128 39.2271 10.1879 39.2271H36.48C36.7514 39.2526 37.0261 39.2671 37.3043 39.2671C42.1068 39.2671 46.0001 35.3739 46.0001 30.5713C46 26.1355 42.6779 22.4781 38.3865 21.945ZM28.0051 26.6149H26.1676C25.6246 26.6149 25.1803 27.0592 25.1803 27.6023V32.8199C25.1803 33.3629 24.736 33.8073 24.193 33.8073H21.807C21.2639 33.8073 20.8197 33.3629 20.8197 32.8199V27.6023C20.8197 27.0593 20.3754 26.6149 19.8324 26.6149H17.9949C17.4519 26.6149 17.2761 26.2609 17.6043 25.8283L22.4033 19.5029C22.7314 19.0702 23.2685 19.0702 23.5967 19.5029L28.3957 25.8283C28.7239 26.261 28.5481 26.6149 28.0051 26.6149Z" fill="#35495E"/>
</g>
<defs>
<clipPath id="clip0_1324_19980">
<rect width="46" height="46" fill="white"/>
</clipPath>
</defs>
</svg>
