<svg width="334" height="53" viewBox="0 0 334 53" fill="none" xmlns="http://www.w3.org/2000/svg">
<g style="mix-blend-mode:lighten" filter="url(#filter0_f_3097_12492)">
<path d="M18.041 9.16H24.557L29.201 24.172L33.881 9.16H40.397L31.901 34H26.537L18.041 9.16ZM57.3648 16V34H52.0728V32.596C51.3528 33.748 50.5248 34.36 48.2928 34.36C44.7648 34.36 41.6688 32.632 41.6688 27.232V16H47.0688V26.224C47.0688 28.672 47.6448 29.752 49.4448 29.752C51.2808 29.752 51.9648 28.744 51.9648 26.26V16H57.3648ZM70.95 28.492L74.91 31.264C73.65 33.46 71.49 34.36 68.214 34.36C62.526 34.36 60.078 30.688 60.078 26.224V23.704C60.078 18.124 62.958 15.64 67.638 15.64C72.858 15.64 75.198 18.628 75.198 24.244V26.368H65.478C65.55 28.42 66.054 29.824 68.25 29.824C69.942 29.824 70.302 29.32 70.95 28.492ZM67.674 20.176C66.27 20.176 65.658 21.148 65.514 22.768H69.798C69.69 20.788 68.934 20.176 67.674 20.176ZM87.6307 9.16H103.327V14.128H93.6067V19.24H102.247V24.208H93.6067V34H87.6307V9.16ZM115.282 28.492L119.242 31.264C117.982 33.46 115.822 34.36 112.546 34.36C106.858 34.36 104.41 30.688 104.41 26.224V23.704C104.41 18.124 107.29 15.64 111.97 15.64C117.19 15.64 119.53 18.628 119.53 24.244V26.368H109.81C109.882 28.42 110.386 29.824 112.582 29.824C114.274 29.824 114.634 29.32 115.282 28.492ZM112.006 20.176C110.602 20.176 109.99 21.148 109.846 22.768H114.13C114.022 20.788 113.266 20.176 112.006 20.176ZM136.139 18.628L132.143 21.508C131.459 20.716 130.739 20.248 129.083 20.248C128.327 20.248 127.391 20.392 127.391 21.184C127.391 21.796 127.967 22.084 129.623 22.408C134.555 23.344 136.391 25.324 136.391 28.636C136.391 32.236 133.835 34.36 129.191 34.36C125.519 34.36 123.143 33.568 121.523 31.372L125.699 28.348C126.311 29.176 127.031 29.752 129.083 29.752C130.271 29.752 130.991 29.428 130.991 28.78C130.991 28.096 130.379 27.844 128.687 27.484C124.619 26.584 121.991 24.928 121.991 21.4C121.991 17.8 124.583 15.64 129.191 15.64C132.143 15.64 134.735 16.324 136.139 18.628ZM145.927 30.328L150.787 27.592C151.579 28.744 152.803 29.392 153.919 29.392C155.791 29.392 156.907 28.456 156.907 24.784V9.16H162.883V24.784C162.883 31.768 159.607 34.36 154.387 34.36C150.391 34.36 147.727 32.848 145.927 30.328ZM165.749 28.636C165.749 24.856 168.629 23.02 172.373 23.02H175.577V22.48C175.577 20.716 175.253 20.032 172.733 20.032C171.185 20.032 170.465 20.32 169.817 21.256L166.037 18.628C167.441 16.396 169.529 15.64 173.345 15.64C178.025 15.64 180.833 16.972 180.833 22.516V34H175.577V32.524C174.965 33.496 173.993 34.36 172.013 34.36C168.485 34.36 165.749 32.416 165.749 28.636ZM175.577 27.376V26.836H173.129C171.761 26.836 171.005 27.304 171.005 28.492C171.005 29.536 171.833 30.112 173.201 30.112C175.001 30.112 175.577 29.032 175.577 27.376ZM199.927 23.704V26.224C199.927 30.904 197.551 34.36 193.015 34.36C191.395 34.36 190.279 34.108 189.487 33.64V40.84H184.087V16H189.487V16.9C190.315 16.108 191.467 15.64 193.051 15.64C197.119 15.64 199.927 18.556 199.927 23.704ZM192.007 29.824C194.239 29.824 194.527 28.132 194.527 25.756V24.172C194.527 21.508 193.951 20.176 192.007 20.176C190.063 20.176 189.487 21.508 189.487 24.172V26.296C189.487 28.384 189.919 29.824 192.007 29.824ZM201.714 28.636C201.714 24.856 204.594 23.02 208.338 23.02H211.542V22.48C211.542 20.716 211.218 20.032 208.698 20.032C207.15 20.032 206.43 20.32 205.782 21.256L202.002 18.628C203.406 16.396 205.494 15.64 209.31 15.64C213.99 15.64 216.798 16.972 216.798 22.516V34H211.542V32.524C210.93 33.496 209.958 34.36 207.978 34.36C204.45 34.36 201.714 32.416 201.714 28.636ZM211.542 27.376V26.836H209.094C207.726 26.836 206.97 27.304 206.97 28.492C206.97 29.536 207.798 30.112 209.166 30.112C210.966 30.112 211.542 29.032 211.542 27.376ZM220.052 34V16H225.308V17.368C225.884 16.648 227.216 15.64 229.124 15.64C232.652 15.64 235.748 17.224 235.748 22.696V34H230.348V23.74C230.348 21.328 229.772 20.248 228.044 20.248C226.172 20.248 225.452 21.4 225.452 23.704V34H220.052ZM264.129 29.032V34H248.469V30.472L256.569 20.932C258.045 19.204 258.621 17.8 258.621 16.252C258.621 14.524 257.397 13.696 255.993 13.696C254.517 13.696 253.509 14.596 253.365 16.252H248.217C248.217 11.932 251.853 8.8 256.353 8.8C261.069 8.8 264.561 12.148 264.561 16.216C264.561 19.636 262.401 22.264 260.781 24.136L256.533 29.032H264.129ZM285.533 26.08C285.533 32.128 281.429 34.36 276.605 34.36C271.781 34.36 267.677 32.128 267.677 26.08V17.08C267.677 10.672 271.781 8.8 276.605 8.8C281.429 8.8 285.533 10.672 285.533 17.044V26.08ZM273.617 17.764V25.396C273.617 28.06 274.337 29.392 276.605 29.392C278.837 29.392 279.557 28.06 279.557 25.396V17.764C279.557 15.1 278.837 13.768 276.605 13.768C274.337 13.768 273.617 15.1 273.617 17.764ZM304.418 29.032V34H288.758V30.472L296.858 20.932C298.334 19.204 298.91 17.8 298.91 16.252C298.91 14.524 297.686 13.696 296.282 13.696C294.806 13.696 293.798 14.596 293.654 16.252H288.506C288.506 11.932 292.142 8.8 296.642 8.8C301.358 8.8 304.85 12.148 304.85 16.216C304.85 19.636 302.69 22.264 301.07 24.136L296.822 29.032H304.418ZM313.942 23.668V18.7H315.886C317.398 18.7 318.766 17.908 318.766 16.144C318.766 14.596 317.65 13.696 316.138 13.696C314.662 13.696 313.798 14.596 313.51 15.892H308.362C308.614 11.788 311.962 8.8 316.498 8.8C321.214 8.8 324.706 12.148 324.706 15.784C324.706 18.7 322.834 20.32 321.466 21.112C323.482 22.192 325.066 24.1 325.066 26.98C325.066 31.084 322.258 34.36 316.786 34.36C311.314 34.36 308.182 31.3 308.002 27.124H313.15C313.366 28.492 314.446 29.392 316.318 29.392C318.19 29.392 319.126 28.132 319.126 26.548C319.126 24.712 318.082 23.668 315.886 23.668H313.942Z" fill="#F17C67"/>
</g>
<g style="mix-blend-mode:lighten" filter="url(#filter1_f_3097_12492)">
<path d="M8.04102 13.16H14.557L19.201 28.172L23.881 13.16H30.397L21.901 38H16.537L8.04102 13.16ZM47.3648 20V38H42.0728V36.596C41.3528 37.748 40.5248 38.36 38.2928 38.36C34.7648 38.36 31.6688 36.632 31.6688 31.232V20H37.0688V30.224C37.0688 32.672 37.6448 33.752 39.4448 33.752C41.2808 33.752 41.9648 32.744 41.9648 30.26V20H47.3648ZM60.95 32.492L64.91 35.264C63.65 37.46 61.49 38.36 58.214 38.36C52.526 38.36 50.078 34.688 50.078 30.224V27.704C50.078 22.124 52.958 19.64 57.638 19.64C62.858 19.64 65.198 22.628 65.198 28.244V30.368H55.478C55.55 32.42 56.054 33.824 58.25 33.824C59.942 33.824 60.302 33.32 60.95 32.492ZM57.674 24.176C56.27 24.176 55.658 25.148 55.514 26.768H59.798C59.69 24.788 58.934 24.176 57.674 24.176ZM77.6307 13.16H93.3267V18.128H83.6067V23.24H92.2467V28.208H83.6067V38H77.6307V13.16ZM105.282 32.492L109.242 35.264C107.982 37.46 105.822 38.36 102.546 38.36C96.8581 38.36 94.4101 34.688 94.4101 30.224V27.704C94.4101 22.124 97.2901 19.64 101.97 19.64C107.19 19.64 109.53 22.628 109.53 28.244V30.368H99.8101C99.8821 32.42 100.386 33.824 102.582 33.824C104.274 33.824 104.634 33.32 105.282 32.492ZM102.006 24.176C100.602 24.176 99.9901 25.148 99.8461 26.768H104.13C104.022 24.788 103.266 24.176 102.006 24.176ZM126.139 22.628L122.143 25.508C121.459 24.716 120.739 24.248 119.083 24.248C118.327 24.248 117.391 24.392 117.391 25.184C117.391 25.796 117.967 26.084 119.623 26.408C124.555 27.344 126.391 29.324 126.391 32.636C126.391 36.236 123.835 38.36 119.191 38.36C115.519 38.36 113.143 37.568 111.523 35.372L115.699 32.348C116.311 33.176 117.031 33.752 119.083 33.752C120.271 33.752 120.991 33.428 120.991 32.78C120.991 32.096 120.379 31.844 118.687 31.484C114.619 30.584 111.991 28.928 111.991 25.4C111.991 21.8 114.583 19.64 119.191 19.64C122.143 19.64 124.735 20.324 126.139 22.628ZM135.927 34.328L140.787 31.592C141.579 32.744 142.803 33.392 143.919 33.392C145.791 33.392 146.907 32.456 146.907 28.784V13.16H152.883V28.784C152.883 35.768 149.607 38.36 144.387 38.36C140.391 38.36 137.727 36.848 135.927 34.328ZM155.749 32.636C155.749 28.856 158.629 27.02 162.373 27.02H165.577V26.48C165.577 24.716 165.253 24.032 162.733 24.032C161.185 24.032 160.465 24.32 159.817 25.256L156.037 22.628C157.441 20.396 159.529 19.64 163.345 19.64C168.025 19.64 170.833 20.972 170.833 26.516V38H165.577V36.524C164.965 37.496 163.993 38.36 162.013 38.36C158.485 38.36 155.749 36.416 155.749 32.636ZM165.577 31.376V30.836H163.129C161.761 30.836 161.005 31.304 161.005 32.492C161.005 33.536 161.833 34.112 163.201 34.112C165.001 34.112 165.577 33.032 165.577 31.376ZM189.927 27.704V30.224C189.927 34.904 187.551 38.36 183.015 38.36C181.395 38.36 180.279 38.108 179.487 37.64V44.84H174.087V20H179.487V20.9C180.315 20.108 181.467 19.64 183.051 19.64C187.119 19.64 189.927 22.556 189.927 27.704ZM182.007 33.824C184.239 33.824 184.527 32.132 184.527 29.756V28.172C184.527 25.508 183.951 24.176 182.007 24.176C180.063 24.176 179.487 25.508 179.487 28.172V30.296C179.487 32.384 179.919 33.824 182.007 33.824ZM191.714 32.636C191.714 28.856 194.594 27.02 198.338 27.02H201.542V26.48C201.542 24.716 201.218 24.032 198.698 24.032C197.15 24.032 196.43 24.32 195.782 25.256L192.002 22.628C193.406 20.396 195.494 19.64 199.31 19.64C203.99 19.64 206.798 20.972 206.798 26.516V38H201.542V36.524C200.93 37.496 199.958 38.36 197.978 38.36C194.45 38.36 191.714 36.416 191.714 32.636ZM201.542 31.376V30.836H199.094C197.726 30.836 196.97 31.304 196.97 32.492C196.97 33.536 197.798 34.112 199.166 34.112C200.966 34.112 201.542 33.032 201.542 31.376ZM210.052 38V20H215.308V21.368C215.884 20.648 217.216 19.64 219.124 19.64C222.652 19.64 225.748 21.224 225.748 26.696V38H220.348V27.74C220.348 25.328 219.772 24.248 218.044 24.248C216.172 24.248 215.452 25.4 215.452 27.704V38H210.052ZM254.129 33.032V38H238.469V34.472L246.569 24.932C248.045 23.204 248.621 21.8 248.621 20.252C248.621 18.524 247.397 17.696 245.993 17.696C244.517 17.696 243.509 18.596 243.365 20.252H238.217C238.217 15.932 241.853 12.8 246.353 12.8C251.069 12.8 254.561 16.148 254.561 20.216C254.561 23.636 252.401 26.264 250.781 28.136L246.533 33.032H254.129ZM275.533 30.08C275.533 36.128 271.429 38.36 266.605 38.36C261.781 38.36 257.677 36.128 257.677 30.08V21.08C257.677 14.672 261.781 12.8 266.605 12.8C271.429 12.8 275.533 14.672 275.533 21.044V30.08ZM263.617 21.764V29.396C263.617 32.06 264.337 33.392 266.605 33.392C268.837 33.392 269.557 32.06 269.557 29.396V21.764C269.557 19.1 268.837 17.768 266.605 17.768C264.337 17.768 263.617 19.1 263.617 21.764ZM294.418 33.032V38H278.758V34.472L286.858 24.932C288.334 23.204 288.91 21.8 288.91 20.252C288.91 18.524 287.686 17.696 286.282 17.696C284.806 17.696 283.798 18.596 283.654 20.252H278.506C278.506 15.932 282.142 12.8 286.642 12.8C291.358 12.8 294.85 16.148 294.85 20.216C294.85 23.636 292.69 26.264 291.07 28.136L286.822 33.032H294.418ZM303.942 27.668V22.7H305.886C307.398 22.7 308.766 21.908 308.766 20.144C308.766 18.596 307.65 17.696 306.138 17.696C304.662 17.696 303.798 18.596 303.51 19.892H298.362C298.614 15.788 301.962 12.8 306.498 12.8C311.214 12.8 314.706 16.148 314.706 19.784C314.706 22.7 312.834 24.32 311.466 25.112C313.482 26.192 315.066 28.1 315.066 30.98C315.066 35.084 312.258 38.36 306.786 38.36C301.314 38.36 298.182 35.3 298.002 31.124H303.15C303.366 32.492 304.446 33.392 306.318 33.392C308.19 33.392 309.126 32.132 309.126 30.548C309.126 28.712 308.082 27.668 305.886 27.668H303.942Z" fill="#33A6B8"/>
</g>
<path d="M12.041 11.16H18.557L23.201 26.172L27.881 11.16H34.397L25.901 36H20.537L12.041 11.16ZM51.3648 18V36H46.0728V34.596C45.3528 35.748 44.5248 36.36 42.2928 36.36C38.7648 36.36 35.6688 34.632 35.6688 29.232V18H41.0688V28.224C41.0688 30.672 41.6448 31.752 43.4448 31.752C45.2808 31.752 45.9648 30.744 45.9648 28.26V18H51.3648ZM64.95 30.492L68.91 33.264C67.65 35.46 65.49 36.36 62.214 36.36C56.526 36.36 54.078 32.688 54.078 28.224V25.704C54.078 20.124 56.958 17.64 61.638 17.64C66.858 17.64 69.198 20.628 69.198 26.244V28.368H59.478C59.55 30.42 60.054 31.824 62.25 31.824C63.942 31.824 64.302 31.32 64.95 30.492ZM61.674 22.176C60.27 22.176 59.658 23.148 59.514 24.768H63.798C63.69 22.788 62.934 22.176 61.674 22.176ZM81.6307 11.16H97.3267V16.128H87.6067V21.24H96.2467V26.208H87.6067V36H81.6307V11.16ZM109.282 30.492L113.242 33.264C111.982 35.46 109.822 36.36 106.546 36.36C100.858 36.36 98.4101 32.688 98.4101 28.224V25.704C98.4101 20.124 101.29 17.64 105.97 17.64C111.19 17.64 113.53 20.628 113.53 26.244V28.368H103.81C103.882 30.42 104.386 31.824 106.582 31.824C108.274 31.824 108.634 31.32 109.282 30.492ZM106.006 22.176C104.602 22.176 103.99 23.148 103.846 24.768H108.13C108.022 22.788 107.266 22.176 106.006 22.176ZM130.139 20.628L126.143 23.508C125.459 22.716 124.739 22.248 123.083 22.248C122.327 22.248 121.391 22.392 121.391 23.184C121.391 23.796 121.967 24.084 123.623 24.408C128.555 25.344 130.391 27.324 130.391 30.636C130.391 34.236 127.835 36.36 123.191 36.36C119.519 36.36 117.143 35.568 115.523 33.372L119.699 30.348C120.311 31.176 121.031 31.752 123.083 31.752C124.271 31.752 124.991 31.428 124.991 30.78C124.991 30.096 124.379 29.844 122.687 29.484C118.619 28.584 115.991 26.928 115.991 23.4C115.991 19.8 118.583 17.64 123.191 17.64C126.143 17.64 128.735 18.324 130.139 20.628ZM139.927 32.328L144.787 29.592C145.579 30.744 146.803 31.392 147.919 31.392C149.791 31.392 150.907 30.456 150.907 26.784V11.16H156.883V26.784C156.883 33.768 153.607 36.36 148.387 36.36C144.391 36.36 141.727 34.848 139.927 32.328ZM159.749 30.636C159.749 26.856 162.629 25.02 166.373 25.02H169.577V24.48C169.577 22.716 169.253 22.032 166.733 22.032C165.185 22.032 164.465 22.32 163.817 23.256L160.037 20.628C161.441 18.396 163.529 17.64 167.345 17.64C172.025 17.64 174.833 18.972 174.833 24.516V36H169.577V34.524C168.965 35.496 167.993 36.36 166.013 36.36C162.485 36.36 159.749 34.416 159.749 30.636ZM169.577 29.376V28.836H167.129C165.761 28.836 165.005 29.304 165.005 30.492C165.005 31.536 165.833 32.112 167.201 32.112C169.001 32.112 169.577 31.032 169.577 29.376ZM193.927 25.704V28.224C193.927 32.904 191.551 36.36 187.015 36.36C185.395 36.36 184.279 36.108 183.487 35.64V42.84H178.087V18H183.487V18.9C184.315 18.108 185.467 17.64 187.051 17.64C191.119 17.64 193.927 20.556 193.927 25.704ZM186.007 31.824C188.239 31.824 188.527 30.132 188.527 27.756V26.172C188.527 23.508 187.951 22.176 186.007 22.176C184.063 22.176 183.487 23.508 183.487 26.172V28.296C183.487 30.384 183.919 31.824 186.007 31.824ZM195.714 30.636C195.714 26.856 198.594 25.02 202.338 25.02H205.542V24.48C205.542 22.716 205.218 22.032 202.698 22.032C201.15 22.032 200.43 22.32 199.782 23.256L196.002 20.628C197.406 18.396 199.494 17.64 203.31 17.64C207.99 17.64 210.798 18.972 210.798 24.516V36H205.542V34.524C204.93 35.496 203.958 36.36 201.978 36.36C198.45 36.36 195.714 34.416 195.714 30.636ZM205.542 29.376V28.836H203.094C201.726 28.836 200.97 29.304 200.97 30.492C200.97 31.536 201.798 32.112 203.166 32.112C204.966 32.112 205.542 31.032 205.542 29.376ZM214.052 36V18H219.308V19.368C219.884 18.648 221.216 17.64 223.124 17.64C226.652 17.64 229.748 19.224 229.748 24.696V36H224.348V25.74C224.348 23.328 223.772 22.248 222.044 22.248C220.172 22.248 219.452 23.4 219.452 25.704V36H214.052ZM258.129 31.032V36H242.469V32.472L250.569 22.932C252.045 21.204 252.621 19.8 252.621 18.252C252.621 16.524 251.397 15.696 249.993 15.696C248.517 15.696 247.509 16.596 247.365 18.252H242.217C242.217 13.932 245.853 10.8 250.353 10.8C255.069 10.8 258.561 14.148 258.561 18.216C258.561 21.636 256.401 24.264 254.781 26.136L250.533 31.032H258.129ZM279.533 28.08C279.533 34.128 275.429 36.36 270.605 36.36C265.781 36.36 261.677 34.128 261.677 28.08V19.08C261.677 12.672 265.781 10.8 270.605 10.8C275.429 10.8 279.533 12.672 279.533 19.044V28.08ZM267.617 19.764V27.396C267.617 30.06 268.337 31.392 270.605 31.392C272.837 31.392 273.557 30.06 273.557 27.396V19.764C273.557 17.1 272.837 15.768 270.605 15.768C268.337 15.768 267.617 17.1 267.617 19.764ZM298.418 31.032V36H282.758V32.472L290.858 22.932C292.334 21.204 292.91 19.8 292.91 18.252C292.91 16.524 291.686 15.696 290.282 15.696C288.806 15.696 287.798 16.596 287.654 18.252H282.506C282.506 13.932 286.142 10.8 290.642 10.8C295.358 10.8 298.85 14.148 298.85 18.216C298.85 21.636 296.69 24.264 295.07 26.136L290.822 31.032H298.418ZM307.942 25.668V20.7H309.886C311.398 20.7 312.766 19.908 312.766 18.144C312.766 16.596 311.65 15.696 310.138 15.696C308.662 15.696 307.798 16.596 307.51 17.892H302.362C302.614 13.788 305.962 10.8 310.498 10.8C315.214 10.8 318.706 14.148 318.706 17.784C318.706 20.7 316.834 22.32 315.466 23.112C317.482 24.192 319.066 26.1 319.066 28.98C319.066 33.084 316.258 36.36 310.786 36.36C305.314 36.36 302.182 33.3 302.002 29.124H307.15C307.366 30.492 308.446 31.392 310.318 31.392C312.19 31.392 313.126 30.132 313.126 28.548C313.126 26.712 312.082 25.668 309.886 25.668H307.942Z" fill="white"/>
<defs>
<filter id="filter0_f_3097_12492" x="10.041" y="0.800781" width="323.025" height="48.0391" filterUnits="userSpaceOnUse" color-interpolation-filters="sRGB">
<feFlood flood-opacity="0" result="BackgroundImageFix"/>
<feBlend mode="normal" in="SourceGraphic" in2="BackgroundImageFix" result="shape"/>
<feGaussianBlur stdDeviation="4" result="effect1_foregroundBlur_3097_12492"/>
</filter>
<filter id="filter1_f_3097_12492" x="0.0410156" y="4.80078" width="323.025" height="48.0391" filterUnits="userSpaceOnUse" color-interpolation-filters="sRGB">
<feFlood flood-opacity="0" result="BackgroundImageFix"/>
<feBlend mode="normal" in="SourceGraphic" in2="BackgroundImageFix" result="shape"/>
<feGaussianBlur stdDeviation="4" result="effect1_foregroundBlur_3097_12492"/>
</filter>
</defs>
</svg>
