<svg width="246" height="44" viewBox="0 0 246 44" fill="none" xmlns="http://www.w3.org/2000/svg">
<path d="M39.76 22.1918C41.7765 22.1916 43.7549 21.6434 45.4832 20.6058C47.2114 19.5682 48.6243 18.0804 49.5704 16.302C50.5165 14.5235 50.9602 12.5214 50.8537 10.5103C50.7473 8.49916 50.0948 6.55491 48.9663 4.88594C47.8378 3.21698 46.2757 1.88623 44.4476 1.03638C42.6194 0.186519 40.5942 -0.150402 38.5889 0.0617346C36.5837 0.273871 34.674 1.02707 33.0647 2.24057C31.4554 3.45407 30.2072 5.08212 29.4538 6.95018L25.435 0.00254587L17.8045 13.2119L25.435 26.4213L35.6853 8.82998H45.8594L25.435 44L12.7175 22.0013L0 44H50.8701L38.1958 22.08C38.714 22.1533 39.2367 22.1907 39.76 22.1918Z" fill="white"/>
<path d="M94.9082 34.8296H90.775V33.4325C90.0806 34.5553 89.1879 35.1167 87.0055 35.1167C83.6659 35.1167 80.9215 33.4655 80.9215 28.611V18.3179H85.1539V27.9937C85.1539 30.6026 86.0797 31.4942 87.8322 31.4942C89.783 31.4942 90.7089 30.3054 90.7089 28.0268V18.3179H94.9082V34.8296Z" fill="white"/>
<path d="M133.462 12.0435V15.9733H123.868V21.6203H132.468V25.517H123.868V34.8297H119.239V12.0435H133.462Z" fill="white"/>
<path d="M158.061 22.9738C157.334 22.1152 156.606 21.6529 154.821 21.6529C153.73 21.6529 152.738 21.9831 152.738 22.9408C152.738 23.8985 153.63 24.2948 155.383 24.559C159.453 25.1864 161.503 26.7385 161.503 30.0078C161.503 33.1781 159.285 35.1265 155.019 35.1265C151.647 35.1265 149.596 34.3009 148.175 32.3855L151.415 30.0739C152.076 30.9655 152.903 31.4939 154.953 31.4939C156.408 31.4939 157.301 30.9985 157.301 30.1399C157.301 29.1238 156.573 28.786 154.49 28.4557C151.051 27.8943 148.538 26.4413 148.538 23.1059C148.538 19.9687 150.787 18.0254 154.92 18.0254C157.631 18.0254 159.88 18.6528 161.169 20.7663L158.061 22.9738Z" fill="white"/>
<path d="M171.816 29.5789C172.163 30.0843 172.626 30.4984 173.167 30.786C173.709 31.0735 174.312 31.2259 174.925 31.2301C177.14 31.2301 178.33 30.0413 178.33 26.0784V12.0435H182.96V26.0784C182.96 32.6501 180.017 35.1269 175.222 35.1269C171.949 35.1269 169.535 33.938 167.981 31.7255L171.816 29.5789Z" fill="white"/>
<path d="M71.07 27.3587L71.0675 27.3664L66.0746 12.0435H61.0156L68.9844 34.8297H73.1837L73.349 34.3597L71.07 27.3587Z" fill="white"/>
<path d="M74.1792 31.9795L81.1204 12.0435H76.0614L71.8748 24.8947L74.1792 31.9795Z" fill="white"/>
<path d="M110.019 25.748C110.019 20.7284 107.87 18.0205 103.208 18.0205C98.9093 18.0205 96.3963 20.4312 96.3963 25.4178V27.6634C96.3963 31.9234 98.777 35.1267 103.737 35.1267C106.713 35.1267 108.631 34.3341 109.788 32.3197L106.647 30.13C106.018 31.0216 105.456 31.55 103.704 31.55C101.356 31.55 100.629 29.8988 100.596 27.6202V24.6252C100.761 22.7429 101.555 21.5769 103.241 21.5769C104.828 21.5769 105.688 22.4685 105.784 24.6252H102.122V27.6303H110.007L110.019 25.748Z" fill="white"/>
<path d="M147.615 25.748C147.615 20.7284 145.466 18.0205 140.804 18.0205C136.503 18.0205 133.99 20.4312 133.99 25.4178V27.6634C133.99 31.9234 136.37 35.1267 141.333 35.1267C144.309 35.1267 146.226 34.3341 147.384 32.3197L144.242 30.13C143.614 31.0216 143.052 31.55 141.3 31.55C138.949 31.55 138.222 29.8988 138.189 27.6202V24.6252C138.357 22.7429 139.15 21.5769 140.837 21.5769C142.424 21.5769 143.284 22.4685 143.38 24.6252H139.715V27.6303H147.615V25.748Z" fill="white"/>
<path d="M191.589 18.0205C188.184 18.0205 186.332 18.747 185.108 20.7615L188.084 22.8419C188.779 21.7522 189.572 21.521 191.192 21.521C193.573 21.521 194.135 22.1154 194.135 23.9647V24.9224V28.0266V28.6541C194.135 30.8997 193.209 31.7253 191.292 31.7253C189.837 31.7253 188.878 31.1308 188.878 29.8759C188.878 28.621 189.641 28.0266 191.358 28.0266H192.609V24.9224H190.862C187.39 24.9224 184.757 26.4466 184.757 29.942C184.757 33.3104 187.138 35.1267 190.577 35.1267C192.495 35.1267 193.487 34.4992 194.138 33.3764V34.8295H198.271V23.9978C198.269 19.2754 195.85 18.0205 191.589 18.0205Z" fill="white"/>
<path d="M235.401 19.715V18.3179H231.169V34.8296H235.401V19.715Z" fill="white"/>
<path d="M239.104 18.0204C238.352 18.011 237.608 18.1708 236.927 18.4878V21.94C237.36 21.7414 237.833 21.6433 238.31 21.653C240.03 21.653 240.956 22.5777 240.956 25.1535V34.8294H245.155V24.493C245.155 19.6055 242.444 18.0204 239.104 18.0204Z" fill="white"/>
<path d="M208.222 18.0205C206.535 18.0205 205.345 18.5159 204.551 19.4075V18.3177H200.319V41.1039H204.551V34.169V25.3187C204.551 22.908 205.477 21.587 207.494 21.587C209.577 21.587 210.404 23.0401 210.404 25.682V27.3992C210.404 29.7769 209.776 31.5601 207.494 31.5601C207.005 31.5745 206.52 31.4736 206.078 31.2655V34.898C206.769 35.0615 207.478 35.1383 208.189 35.1267C212.454 35.1267 214.636 31.9564 214.636 27.6634V25.4178C214.636 20.6954 212.057 18.0205 208.222 18.0205Z" fill="white"/>
<path d="M222.439 18.0205C219.034 18.0205 217.182 18.747 215.958 20.7615L218.934 22.8419C219.629 21.7522 220.422 21.521 222.042 21.521C224.423 21.521 224.985 22.1154 224.985 23.9647V24.9224V28.0266V28.6541C224.985 30.8997 224.059 31.7253 222.142 31.7253C220.687 31.7253 219.728 31.1308 219.728 29.8759C219.728 28.621 220.491 28.0266 222.208 28.0266H223.459V24.9224H221.712C218.24 24.9224 215.607 26.4466 215.607 29.942C215.607 33.3104 217.988 35.1267 221.427 35.1267C223.345 35.1267 224.337 34.4992 224.988 33.3764V34.8295H229.121V23.9978C229.118 19.2754 226.705 18.0205 222.439 18.0205Z" fill="white"/>
</svg>
