<svg width="40" height="36" viewBox="0 0 40 36" xmlns="http://www.w3.org/2000/svg">
<path d="M38.1705 8.86285C37.7343 7.22472 36.4491 5.93458 34.8174 5.49676C31.8598 4.70117 20 4.70117 20 4.70117C20 4.70117 8.14025 4.70117 5.18254 5.49676C3.55081 5.93465 2.26567 7.22472 1.82949 8.86285C1.03699 11.8321 1.03699 18.027 1.03699 18.027C1.03699 18.027 1.03699 24.222 1.82949 27.1912C2.26567 28.8293 3.55081 30.0657 5.18254 30.5035C8.14025 31.2991 20 31.2991 20 31.2991C20 31.2991 31.8597 31.2991 34.8174 30.5035C36.4491 30.0657 37.7343 28.8293 38.1705 27.1912C38.963 24.222 38.963 18.027 38.963 18.027C38.963 18.027 38.963 11.8321 38.1705 8.86285ZM16.1212 23.6516V12.4025L26.0336 18.0272L16.1212 23.6516Z" />
</svg>
