<svg width="980" height="911" viewBox="0 0 980 911" fill="none" xmlns="http://www.w3.org/2000/svg">
<path d="M713 671C690.909 671 673 653.091 673 631C673 608.909 690.909 591 713 591C735.091 591 753 608.909 753 631C753 653.091 735.091 671 713 671Z" fill="url(#paint0_linear_33_13467)"/>
<path d="M797 591H873V667L797 591Z" fill="url(#paint1_linear_33_13467)"/>
<path d="M869 671H793V595L869 671Z" fill="url(#paint2_linear_33_13467)"/>
<g clip-path="url(#clip0_33_13467)">
<rect x="794" y="191" width="37.3333" height="79.9993" transform="rotate(-90 794 191)" fill="url(#paint3_linear_33_13467)"/>
<rect x="873.999" y="111" width="37.3333" height="79.9993" transform="rotate(90 873.999 111)" fill="url(#paint4_linear_33_13467)"/>
</g>
<g clip-path="url(#clip1_33_13467)">
<rect x="913" y="591" width="37.3333" height="79.9993" fill="url(#paint5_linear_33_13467)"/>
<rect x="993" y="670.999" width="37.3333" height="79.9993" transform="rotate(-180 993 670.999)" fill="url(#paint6_linear_33_13467)"/>
</g>
<g opacity="0.3" clip-path="url(#clip2_33_13467)">
<rect x="898" y="576" width="51.3333" height="109.999" fill="url(#paint7_linear_33_13467)"/>
<rect x="1008" y="685.999" width="51.3333" height="109.999" transform="rotate(-180 1008 685.999)" fill="url(#paint8_linear_33_13467)"/>
</g>
<g opacity="0.1" clip-path="url(#clip3_33_13467)">
<rect x="883" y="561" width="65.3333" height="139.999" fill="url(#paint9_linear_33_13467)"/>
<rect x="1023" y="700.999" width="65.3333" height="139.999" transform="rotate(-180 1023 700.999)" fill="url(#paint10_linear_33_13467)"/>
</g>
<g opacity="0.2">
<path d="M952.895 147.458L989.249 111H916.541L952.895 147.458Z" fill="url(#paint11_linear_33_13467)"/>
<path d="M952.895 154.542L916.541 191H989.249L952.895 154.542Z" fill="url(#paint12_linear_33_13467)"/>
<path d="M949.458 150.896L913 114.542V187.251L949.458 150.896Z" fill="url(#paint13_linear_33_13467)"/>
<path d="M956.541 150.896L993 187.251V114.542L956.541 150.896Z" fill="url(#paint14_linear_33_13467)"/>
</g>
<g clip-path="url(#clip4_33_13467)">
<rect x="314" y="711" width="37.3333" height="79.9993" fill="url(#paint15_linear_33_13467)"/>
<rect x="394" y="790.999" width="37.3333" height="79.9993" transform="rotate(-180 394 790.999)" fill="url(#paint16_linear_33_13467)"/>
</g>
<path d="M834 311C811.909 311 794 293.091 794 271C794 248.909 811.909 231 834 231C856.091 231 874 248.909 874 271C874 293.091 856.091 311 834 311Z" fill="url(#paint17_linear_33_13467)"/>
<path d="M953 911C930.909 911 913 893.091 913 871C913 848.909 930.909 831 953 831C975.091 831 993 848.909 993 871C993 893.091 975.091 911 953 911Z" fill="url(#paint18_linear_33_13467)"/>
<path d="M917 231H993V307L917 231Z" fill="url(#paint19_linear_33_13467)"/>
<path d="M989 311H913V235L989 311Z" fill="url(#paint20_linear_33_13467)"/>
<path d="M917 711H993V787L917 711Z" fill="url(#paint21_linear_33_13467)"/>
<path d="M989 791H913V715L989 791Z" fill="url(#paint22_linear_33_13467)"/>
<g opacity="0.2">
<path d="M869 712H793V788L869 712Z" fill="url(#paint23_linear_33_13467)"/>
<path d="M797 792H873V716L797 792Z" fill="url(#paint24_linear_33_13467)"/>
</g>
<g opacity="0.4">
<path d="M678 232H754V308L678 232Z" fill="url(#paint25_linear_33_13467)"/>
<path d="M750 312H674V236L750 312Z" fill="url(#paint26_linear_33_13467)"/>
</g>
<g opacity="0.4">
<path d="M994 551L914 551L914 471" fill="url(#paint27_linear_33_13467)"/>
</g>
<g opacity="0.2" clip-path="url(#clip5_33_13467)">
<rect x="434" y="311" width="37.3333" height="79.9993" transform="rotate(-90 434 311)" fill="url(#paint28_linear_33_13467)"/>
<rect x="513.999" y="231" width="37.3333" height="79.9993" transform="rotate(90 513.999 231)" fill="url(#paint29_linear_33_13467)"/>
</g>
<path d="M593.895 267.458L630.249 231H557.541L593.895 267.458Z" fill="url(#paint30_linear_33_13467)"/>
<path d="M593.895 274.542L557.541 311H630.249L593.895 274.542Z" fill="url(#paint31_linear_33_13467)"/>
<path d="M590.458 270.896L554 234.542V307.251L590.458 270.896Z" fill="url(#paint32_linear_33_13467)"/>
<path d="M597.541 270.896L634 307.251V234.542L597.541 270.896Z" fill="url(#paint33_linear_33_13467)"/>
<g clip-path="url(#clip6_33_13467)">
<rect x="794" y="551" width="37.3333" height="79.9993" transform="rotate(-90 794 551)" fill="url(#paint34_linear_33_13467)"/>
<rect x="873.999" y="471" width="37.3333" height="79.9993" transform="rotate(90 873.999 471)" fill="url(#paint35_linear_33_13467)"/>
</g>
<path d="M870 351H794V427L870 351Z" fill="url(#paint36_linear_33_13467)"/>
<path d="M798 431H874V355L798 431Z" fill="url(#paint37_linear_33_13467)"/>
<g opacity="0.3">
<path d="M834 326C803.624 326 779 301.376 779 271C779 240.624 803.624 216 834 216C864.376 216 889 240.624 889 271C889 301.376 864.376 326 834 326Z" fill="url(#paint38_linear_33_13467)"/>
</g>
<g opacity="0.1">
<path d="M834 341C795.34 341 764 309.66 764 271C764 232.34 795.34 201 834 201C872.66 201 904 232.34 904 271C904 309.66 872.66 341 834 341Z" fill="url(#paint39_linear_33_13467)"/>
</g>
<g opacity="0.2">
<path d="M-5.89538 634.542L-42.2494 671L30.4586 671L-5.89538 634.542Z" fill="url(#paint40_linear_33_13467)"/>
<path d="M-5.89539 627.458L30.4586 591L-42.2494 591L-5.89539 627.458Z" fill="url(#paint41_linear_33_13467)"/>
<path d="M-2.458 631.104L34 667.458L34 594.749L-2.458 631.104Z" fill="url(#paint42_linear_33_13467)"/>
</g>
<g opacity="0.4">
<path d="M314 591H394V671" fill="url(#paint43_linear_33_13467)"/>
</g>
<path d="M510 591H434V667L510 591Z" fill="url(#paint44_linear_33_13467)"/>
<path d="M438 671H514V595L438 671Z" fill="url(#paint45_linear_33_13467)"/>
<defs>
<linearGradient id="paint0_linear_33_13467" x1="713" y1="591" x2="713" y2="671" gradientUnits="userSpaceOnUse">
<stop offset="0.40625" stop-color="#F17C67"/>
<stop offset="1" stop-color="#FFC408"/>
</linearGradient>
<linearGradient id="paint1_linear_33_13467" x1="835" y1="591" x2="835" y2="667" gradientUnits="userSpaceOnUse">
<stop stop-color="#42B983"/>
<stop offset="1" stop-color="#35495E"/>
</linearGradient>
<linearGradient id="paint2_linear_33_13467" x1="831" y1="671" x2="831" y2="595" gradientUnits="userSpaceOnUse">
<stop stop-color="#42B983"/>
<stop offset="1" stop-color="#35495E"/>
</linearGradient>
<linearGradient id="paint3_linear_33_13467" x1="812.667" y1="191" x2="812.667" y2="270.999" gradientUnits="userSpaceOnUse">
<stop stop-color="#3178C6"/>
<stop offset="1" stop-color="#33A6B8"/>
</linearGradient>
<linearGradient id="paint4_linear_33_13467" x1="892.666" y1="111" x2="892.666" y2="190.999" gradientUnits="userSpaceOnUse">
<stop stop-color="#3178C6"/>
<stop offset="1" stop-color="#33A6B8"/>
</linearGradient>
<linearGradient id="paint5_linear_33_13467" x1="931.667" y1="591" x2="931.667" y2="670.999" gradientUnits="userSpaceOnUse">
<stop stop-color="#3178C6"/>
<stop offset="1" stop-color="#33A6B8"/>
</linearGradient>
<linearGradient id="paint6_linear_33_13467" x1="1011.67" y1="670.999" x2="1011.67" y2="750.999" gradientUnits="userSpaceOnUse">
<stop stop-color="#3178C6"/>
<stop offset="1" stop-color="#33A6B8"/>
</linearGradient>
<linearGradient id="paint7_linear_33_13467" x1="923.667" y1="576" x2="923.667" y2="685.999" gradientUnits="userSpaceOnUse">
<stop stop-color="#3178C6"/>
<stop offset="1" stop-color="#33A6B8"/>
</linearGradient>
<linearGradient id="paint8_linear_33_13467" x1="1033.67" y1="685.999" x2="1033.67" y2="795.998" gradientUnits="userSpaceOnUse">
<stop stop-color="#3178C6"/>
<stop offset="1" stop-color="#33A6B8"/>
</linearGradient>
<linearGradient id="paint9_linear_33_13467" x1="915.667" y1="561" x2="915.667" y2="700.999" gradientUnits="userSpaceOnUse">
<stop stop-color="#3178C6"/>
<stop offset="1" stop-color="#33A6B8"/>
</linearGradient>
<linearGradient id="paint10_linear_33_13467" x1="1055.67" y1="700.999" x2="1055.67" y2="840.998" gradientUnits="userSpaceOnUse">
<stop stop-color="#3178C6"/>
<stop offset="1" stop-color="#33A6B8"/>
</linearGradient>
<linearGradient id="paint11_linear_33_13467" x1="952.895" y1="111" x2="952.895" y2="147.458" gradientUnits="userSpaceOnUse">
<stop stop-color="#33A6B8"/>
<stop offset="1" stop-color="#74DFAF"/>
</linearGradient>
<linearGradient id="paint12_linear_33_13467" x1="952.895" y1="154.542" x2="952.895" y2="191" gradientUnits="userSpaceOnUse">
<stop stop-color="#33A6B8"/>
<stop offset="1" stop-color="#74DFAF"/>
</linearGradient>
<linearGradient id="paint13_linear_33_13467" x1="931.229" y1="114.542" x2="931.229" y2="187.251" gradientUnits="userSpaceOnUse">
<stop stop-color="#33A6B8"/>
<stop offset="1" stop-color="#74DFAF"/>
</linearGradient>
<linearGradient id="paint14_linear_33_13467" x1="974.771" y1="114.542" x2="974.771" y2="187.251" gradientUnits="userSpaceOnUse">
<stop stop-color="#33A6B8"/>
<stop offset="1" stop-color="#74DFAF"/>
</linearGradient>
<linearGradient id="paint15_linear_33_13467" x1="332.667" y1="711" x2="332.667" y2="790.999" gradientUnits="userSpaceOnUse">
<stop stop-color="#3178C6"/>
<stop offset="1" stop-color="#33A6B8"/>
</linearGradient>
<linearGradient id="paint16_linear_33_13467" x1="412.667" y1="790.999" x2="412.667" y2="870.999" gradientUnits="userSpaceOnUse">
<stop stop-color="#3178C6"/>
<stop offset="1" stop-color="#33A6B8"/>
</linearGradient>
<linearGradient id="paint17_linear_33_13467" x1="834" y1="231" x2="834" y2="311" gradientUnits="userSpaceOnUse">
<stop offset="0.40625" stop-color="#F17C67"/>
<stop offset="1" stop-color="#FFC408"/>
</linearGradient>
<linearGradient id="paint18_linear_33_13467" x1="953" y1="831" x2="953" y2="911" gradientUnits="userSpaceOnUse">
<stop offset="0.40625" stop-color="#F17C67"/>
<stop offset="1" stop-color="#FFC408"/>
</linearGradient>
<linearGradient id="paint19_linear_33_13467" x1="955" y1="231" x2="955" y2="307" gradientUnits="userSpaceOnUse">
<stop stop-color="#42B983"/>
<stop offset="1" stop-color="#35495E"/>
</linearGradient>
<linearGradient id="paint20_linear_33_13467" x1="951" y1="311" x2="951" y2="235" gradientUnits="userSpaceOnUse">
<stop stop-color="#42B983"/>
<stop offset="1" stop-color="#35495E"/>
</linearGradient>
<linearGradient id="paint21_linear_33_13467" x1="955" y1="711" x2="955" y2="787" gradientUnits="userSpaceOnUse">
<stop stop-color="#42B983"/>
<stop offset="1" stop-color="#35495E"/>
</linearGradient>
<linearGradient id="paint22_linear_33_13467" x1="951" y1="791" x2="951" y2="715" gradientUnits="userSpaceOnUse">
<stop stop-color="#42B983"/>
<stop offset="1" stop-color="#35495E"/>
</linearGradient>
<linearGradient id="paint23_linear_33_13467" x1="831" y1="712" x2="831" y2="788" gradientUnits="userSpaceOnUse">
<stop stop-color="#90B44B"/>
<stop offset="1" stop-color="#42B983"/>
</linearGradient>
<linearGradient id="paint24_linear_33_13467" x1="835" y1="792" x2="835" y2="716" gradientUnits="userSpaceOnUse">
<stop stop-color="#90B44B"/>
<stop offset="1" stop-color="#42B983"/>
</linearGradient>
<linearGradient id="paint25_linear_33_13467" x1="716" y1="232" x2="716" y2="308" gradientUnits="userSpaceOnUse">
<stop stop-color="#42B983"/>
<stop offset="1" stop-color="#35495E"/>
</linearGradient>
<linearGradient id="paint26_linear_33_13467" x1="712" y1="312" x2="712" y2="236" gradientUnits="userSpaceOnUse">
<stop stop-color="#42B983"/>
<stop offset="1" stop-color="#35495E"/>
</linearGradient>
<linearGradient id="paint27_linear_33_13467" x1="954" y1="551" x2="954" y2="471" gradientUnits="userSpaceOnUse">
<stop stop-color="#FFC408"/>
<stop offset="1" stop-color="#90B44B"/>
</linearGradient>
<linearGradient id="paint28_linear_33_13467" x1="452.667" y1="311" x2="452.667" y2="390.999" gradientUnits="userSpaceOnUse">
<stop stop-color="#3178C6"/>
<stop offset="1" stop-color="#33A6B8"/>
</linearGradient>
<linearGradient id="paint29_linear_33_13467" x1="532.666" y1="231" x2="532.666" y2="310.999" gradientUnits="userSpaceOnUse">
<stop stop-color="#3178C6"/>
<stop offset="1" stop-color="#33A6B8"/>
</linearGradient>
<linearGradient id="paint30_linear_33_13467" x1="593.895" y1="231" x2="593.895" y2="267.458" gradientUnits="userSpaceOnUse">
<stop stop-color="#33A6B8"/>
<stop offset="1" stop-color="#74DFAF"/>
</linearGradient>
<linearGradient id="paint31_linear_33_13467" x1="593.895" y1="274.542" x2="593.895" y2="311" gradientUnits="userSpaceOnUse">
<stop stop-color="#33A6B8"/>
<stop offset="1" stop-color="#74DFAF"/>
</linearGradient>
<linearGradient id="paint32_linear_33_13467" x1="572.229" y1="234.542" x2="572.229" y2="307.251" gradientUnits="userSpaceOnUse">
<stop stop-color="#33A6B8"/>
<stop offset="1" stop-color="#74DFAF"/>
</linearGradient>
<linearGradient id="paint33_linear_33_13467" x1="615.771" y1="234.542" x2="615.771" y2="307.251" gradientUnits="userSpaceOnUse">
<stop stop-color="#33A6B8"/>
<stop offset="1" stop-color="#74DFAF"/>
</linearGradient>
<linearGradient id="paint34_linear_33_13467" x1="812.667" y1="551" x2="812.667" y2="630.999" gradientUnits="userSpaceOnUse">
<stop stop-color="#3178C6"/>
<stop offset="1" stop-color="#33A6B8"/>
</linearGradient>
<linearGradient id="paint35_linear_33_13467" x1="892.666" y1="471" x2="892.666" y2="550.999" gradientUnits="userSpaceOnUse">
<stop stop-color="#3178C6"/>
<stop offset="1" stop-color="#33A6B8"/>
</linearGradient>
<linearGradient id="paint36_linear_33_13467" x1="832" y1="351" x2="832" y2="427" gradientUnits="userSpaceOnUse">
<stop stop-color="#90B44B"/>
<stop offset="1" stop-color="#42B983"/>
</linearGradient>
<linearGradient id="paint37_linear_33_13467" x1="836" y1="431" x2="836" y2="355" gradientUnits="userSpaceOnUse">
<stop stop-color="#90B44B"/>
<stop offset="1" stop-color="#42B983"/>
</linearGradient>
<linearGradient id="paint38_linear_33_13467" x1="834" y1="216" x2="834" y2="326" gradientUnits="userSpaceOnUse">
<stop offset="0.40625" stop-color="#F17C67"/>
<stop offset="1" stop-color="#FFC408"/>
</linearGradient>
<linearGradient id="paint39_linear_33_13467" x1="834" y1="201" x2="834" y2="341" gradientUnits="userSpaceOnUse">
<stop offset="0.40625" stop-color="#F17C67"/>
<stop offset="1" stop-color="#FFC408"/>
</linearGradient>
<linearGradient id="paint40_linear_33_13467" x1="-5.89539" y1="671" x2="-5.89538" y2="634.542" gradientUnits="userSpaceOnUse">
<stop stop-color="#33A6B8"/>
<stop offset="1" stop-color="#74DFAF"/>
</linearGradient>
<linearGradient id="paint41_linear_33_13467" x1="-5.89539" y1="627.458" x2="-5.89538" y2="591" gradientUnits="userSpaceOnUse">
<stop stop-color="#33A6B8"/>
<stop offset="1" stop-color="#74DFAF"/>
</linearGradient>
<linearGradient id="paint42_linear_33_13467" x1="15.771" y1="667.458" x2="15.771" y2="594.749" gradientUnits="userSpaceOnUse">
<stop stop-color="#33A6B8"/>
<stop offset="1" stop-color="#74DFAF"/>
</linearGradient>
<linearGradient id="paint43_linear_33_13467" x1="354" y1="591" x2="354" y2="671" gradientUnits="userSpaceOnUse">
<stop stop-color="#FFC408"/>
<stop offset="1" stop-color="#90B44B"/>
</linearGradient>
<linearGradient id="paint44_linear_33_13467" x1="472" y1="591" x2="472" y2="667" gradientUnits="userSpaceOnUse">
<stop stop-color="#90B44B"/>
<stop offset="1" stop-color="#42B983"/>
</linearGradient>
<linearGradient id="paint45_linear_33_13467" x1="476" y1="671" x2="476" y2="595" gradientUnits="userSpaceOnUse">
<stop stop-color="#90B44B"/>
<stop offset="1" stop-color="#42B983"/>
</linearGradient>
<clipPath id="clip0_33_13467">
<rect width="80" height="80" fill="white" transform="matrix(0 -1 1 0 794 191)"/>
</clipPath>
<clipPath id="clip1_33_13467">
<rect width="80" height="80" fill="white" transform="translate(913 591)"/>
</clipPath>
<clipPath id="clip2_33_13467">
<rect width="110" height="110" fill="white" transform="translate(898 576)"/>
</clipPath>
<clipPath id="clip3_33_13467">
<rect width="140" height="140" fill="white" transform="translate(883 561)"/>
</clipPath>
<clipPath id="clip4_33_13467">
<rect width="80" height="80" fill="white" transform="translate(314 711)"/>
</clipPath>
<clipPath id="clip5_33_13467">
<rect width="80" height="80" fill="white" transform="matrix(0 -1 1 0 434 311)"/>
</clipPath>
<clipPath id="clip6_33_13467">
<rect width="80" height="80" fill="white" transform="matrix(0 -1 1 0 794 551)"/>
</clipPath>
</defs>
</svg>
