<svg width="880" height="166" viewBox="0 0 880 166" fill="none" xmlns="http://www.w3.org/2000/svg">
<g style="mix-blend-mode:lighten" filter="url(#filter0_f_33_13527)">
<path d="M18.9473 26.5L42.5473 95.5H57.4473L81.0473 26.5H62.9473L49.9473 68.2L37.0473 26.5H18.9473ZM128.18 45.5H113.18V74C113.18 80.9 111.28 83.7 106.18 83.7C101.18 83.7 99.5801 80.7 99.5801 73.9V45.5H84.5801V76.7C84.5801 91.7 93.1801 96.5 102.98 96.5C109.18 96.5 111.48 94.8 113.48 91.6V95.5H128.18V45.5ZM165.917 80.2C164.117 82.5 163.117 83.9 158.417 83.9C152.317 83.9 150.917 80 150.717 74.3H177.717V68.4C177.717 52.8 171.217 44.5 156.717 44.5C143.717 44.5 135.717 51.4 135.717 66.9V73.9C135.717 86.3 142.517 96.5 158.317 96.5C167.417 96.5 173.417 94 176.917 87.9L165.917 80.2ZM156.817 57.1C160.317 57.1 162.417 58.8 162.717 64.3H150.817C151.217 59.8 152.917 57.1 156.817 57.1ZM212.252 26.5V95.5H228.852V68.3H252.852V54.5H228.852V40.3H255.852V26.5H212.252ZM289.061 80.2C287.261 82.5 286.261 83.9 281.561 83.9C275.461 83.9 274.061 80 273.861 74.3H300.861V68.4C300.861 52.8 294.361 44.5 279.861 44.5C266.861 44.5 258.861 51.4 258.861 66.9V73.9C258.861 86.3 265.661 96.5 281.461 96.5C290.561 96.5 296.561 94 300.061 87.9L289.061 80.2ZM279.961 57.1C283.461 57.1 285.561 58.8 285.861 64.3H273.961C274.361 59.8 276.061 57.1 279.961 57.1ZM346.996 52.8C343.096 46.4 335.896 44.5 327.696 44.5C314.896 44.5 307.696 50.5 307.696 60.5C307.696 70.3 314.996 74.9 326.296 77.4C330.996 78.4 332.696 79.1 332.696 81C332.696 82.8 330.696 83.7 327.396 83.7C321.696 83.7 319.696 82.1 317.996 79.8L306.396 88.2C310.896 94.3 317.496 96.5 327.696 96.5C340.596 96.5 347.696 90.6 347.696 80.6C347.696 71.4 342.596 65.9 328.896 63.3C324.296 62.4 322.696 61.6 322.696 59.9C322.696 57.7 325.296 57.3 327.396 57.3C331.996 57.3 333.996 58.6 335.896 60.8L346.996 52.8ZM374.186 85.3C379.186 92.3 386.586 96.5 397.686 96.5C412.186 96.5 421.286 89.3 421.286 69.9V26.5H404.686V69.9C404.686 80.1 401.586 82.7 396.386 82.7C393.286 82.7 389.886 80.9 387.686 77.7L374.186 85.3ZM429.248 80.6C429.248 91.1 436.848 96.5 446.648 96.5C452.148 96.5 454.848 94.1 456.548 91.4V95.5H471.148V63.6C471.148 48.2 463.348 44.5 450.348 44.5C439.748 44.5 433.948 46.6 430.048 52.8L440.548 60.1C442.348 57.5 444.348 56.7 448.648 56.7C455.648 56.7 456.548 58.6 456.548 63.5V65H447.648C437.248 65 429.248 70.1 429.248 80.6ZM456.548 77.1C456.548 81.7 454.948 84.7 449.948 84.7C446.148 84.7 443.848 83.1 443.848 80.2C443.848 76.9 445.948 75.6 449.748 75.6H456.548V77.1ZM524.186 66.9C524.186 52.6 516.386 44.5 505.086 44.5C500.686 44.5 497.486 45.8 495.186 48V45.5H480.186V114.5H495.186V94.5C497.386 95.8 500.486 96.5 504.986 96.5C517.586 96.5 524.186 86.9 524.186 73.9V66.9ZM502.186 83.9C496.386 83.9 495.186 79.9 495.186 74.1V68.2C495.186 60.8 496.786 57.1 502.186 57.1C507.586 57.1 509.186 60.8 509.186 68.2V72.6C509.186 79.2 508.386 83.9 502.186 83.9ZM529.15 80.6C529.15 91.1 536.75 96.5 546.55 96.5C552.05 96.5 554.75 94.1 556.45 91.4V95.5H571.05V63.6C571.05 48.2 563.25 44.5 550.25 44.5C539.65 44.5 533.85 46.6 529.95 52.8L540.45 60.1C542.25 57.5 544.25 56.7 548.55 56.7C555.55 56.7 556.45 58.6 556.45 63.5V65H547.55C537.15 65 529.15 70.1 529.15 80.6ZM556.45 77.1C556.45 81.7 554.85 84.7 549.85 84.7C546.05 84.7 543.75 83.1 543.75 80.2C543.75 76.9 545.85 75.6 549.65 75.6H556.45V77.1ZM580.088 95.5H595.088V66.9C595.088 60.5 597.088 57.3 602.288 57.3C607.088 57.3 608.688 60.3 608.688 67V95.5H623.688V64.1C623.688 48.9 615.088 44.5 605.288 44.5C599.988 44.5 596.288 47.3 594.688 49.3V45.5H580.088V95.5ZM702.525 81.7H681.425L693.225 68.1C697.725 62.9 703.725 55.6 703.725 46.1C703.725 34.8 694.025 25.5 680.925 25.5C668.425 25.5 658.325 34.2 658.325 46.2H672.625C673.025 41.6 675.825 39.1 679.925 39.1C683.825 39.1 687.225 41.4 687.225 46.2C687.225 50.5 685.625 54.4 681.525 59.2L659.025 85.7V95.5H702.525V81.7ZM761.982 73.5V48.4C761.982 30.7 750.582 25.5 737.182 25.5C723.782 25.5 712.382 30.7 712.382 48.5V73.5C712.382 90.3 723.782 96.5 737.182 96.5C750.582 96.5 761.982 90.3 761.982 73.5ZM728.882 50.4C728.882 43 730.882 39.3 737.182 39.3C743.382 39.3 745.382 43 745.382 50.4V71.6C745.382 79 743.382 82.7 737.182 82.7C730.882 82.7 728.882 79 728.882 71.6V50.4ZM814.439 81.7H793.339L805.139 68.1C809.639 62.9 815.639 55.6 815.639 46.1C815.639 34.8 805.939 25.5 792.839 25.5C780.339 25.5 770.239 34.2 770.239 46.2H784.539C784.939 41.6 787.739 39.1 791.839 39.1C795.739 39.1 799.139 41.4 799.139 46.2C799.139 50.5 797.539 54.4 793.439 59.2L770.939 85.7V95.5H814.439V81.7ZM840.896 66.8H846.296C852.396 66.8 855.296 69.7 855.296 74.8C855.296 79.2 852.696 82.7 847.496 82.7C842.296 82.7 839.296 80.2 838.696 76.4H824.396C824.896 88 833.596 96.5 848.796 96.5C863.996 96.5 871.796 87.4 871.796 76C871.796 68 867.396 62.7 861.796 59.7C865.596 57.5 870.796 53 870.796 44.9C870.796 34.8 861.096 25.5 847.996 25.5C835.396 25.5 826.096 33.8 825.396 45.2H839.696C840.496 41.6 842.896 39.1 846.996 39.1C851.196 39.1 854.296 41.6 854.296 45.9C854.296 50.8 850.496 53 846.296 53H840.896V66.8Z" fill="#F17C67"/>
</g>
<g style="mix-blend-mode:lighten" filter="url(#filter1_f_33_13527)">
<path d="M8.94727 30.5L32.5473 99.5H47.4473L71.0473 30.5H52.9473L39.9473 72.2L27.0473 30.5H8.94727ZM118.18 49.5H103.18V78C103.18 84.9 101.28 87.7 96.1801 87.7C91.1801 87.7 89.5801 84.7 89.5801 77.9V49.5H74.5801V80.7C74.5801 95.7 83.1801 100.5 92.9801 100.5C99.1801 100.5 101.48 98.8 103.48 95.6V99.5H118.18V49.5ZM155.917 84.2C154.117 86.5 153.117 87.9 148.417 87.9C142.317 87.9 140.917 84 140.717 78.3H167.717V72.4C167.717 56.8 161.217 48.5 146.717 48.5C133.717 48.5 125.717 55.4 125.717 70.9V77.9C125.717 90.3 132.517 100.5 148.317 100.5C157.417 100.5 163.417 98 166.917 91.9L155.917 84.2ZM146.817 61.1C150.317 61.1 152.417 62.8 152.717 68.3H140.817C141.217 63.8 142.917 61.1 146.817 61.1ZM202.252 30.5V99.5H218.852V72.3H242.852V58.5H218.852V44.3H245.852V30.5H202.252ZM279.061 84.2C277.261 86.5 276.261 87.9 271.561 87.9C265.461 87.9 264.061 84 263.861 78.3H290.861V72.4C290.861 56.8 284.361 48.5 269.861 48.5C256.861 48.5 248.861 55.4 248.861 70.9V77.9C248.861 90.3 255.661 100.5 271.461 100.5C280.561 100.5 286.561 98 290.061 91.9L279.061 84.2ZM269.961 61.1C273.461 61.1 275.561 62.8 275.861 68.3H263.961C264.361 63.8 266.061 61.1 269.961 61.1ZM336.996 56.8C333.096 50.4 325.896 48.5 317.696 48.5C304.896 48.5 297.696 54.5 297.696 64.5C297.696 74.3 304.996 78.9 316.296 81.4C320.996 82.4 322.696 83.1 322.696 85C322.696 86.8 320.696 87.7 317.396 87.7C311.696 87.7 309.696 86.1 307.996 83.8L296.396 92.2C300.896 98.3 307.496 100.5 317.696 100.5C330.596 100.5 337.696 94.6 337.696 84.6C337.696 75.4 332.596 69.9 318.896 67.3C314.296 66.4 312.696 65.6 312.696 63.9C312.696 61.7 315.296 61.3 317.396 61.3C321.996 61.3 323.996 62.6 325.896 64.8L336.996 56.8ZM364.186 89.3C369.186 96.3 376.586 100.5 387.686 100.5C402.186 100.5 411.286 93.3 411.286 73.9V30.5H394.686V73.9C394.686 84.1 391.586 86.7 386.386 86.7C383.286 86.7 379.886 84.9 377.686 81.7L364.186 89.3ZM419.248 84.6C419.248 95.1 426.848 100.5 436.648 100.5C442.148 100.5 444.848 98.1 446.548 95.4V99.5H461.148V67.6C461.148 52.2 453.348 48.5 440.348 48.5C429.748 48.5 423.948 50.6 420.048 56.8L430.548 64.1C432.348 61.5 434.348 60.7 438.648 60.7C445.648 60.7 446.548 62.6 446.548 67.5V69H437.648C427.248 69 419.248 74.1 419.248 84.6ZM446.548 81.1C446.548 85.7 444.948 88.7 439.948 88.7C436.148 88.7 433.848 87.1 433.848 84.2C433.848 80.9 435.948 79.6 439.748 79.6H446.548V81.1ZM514.186 70.9C514.186 56.6 506.386 48.5 495.086 48.5C490.686 48.5 487.486 49.8 485.186 52V49.5H470.186V118.5H485.186V98.5C487.386 99.8 490.486 100.5 494.986 100.5C507.586 100.5 514.186 90.9 514.186 77.9V70.9ZM492.186 87.9C486.386 87.9 485.186 83.9 485.186 78.1V72.2C485.186 64.8 486.786 61.1 492.186 61.1C497.586 61.1 499.186 64.8 499.186 72.2V76.6C499.186 83.2 498.386 87.9 492.186 87.9ZM519.15 84.6C519.15 95.1 526.75 100.5 536.55 100.5C542.05 100.5 544.75 98.1 546.45 95.4V99.5H561.05V67.6C561.05 52.2 553.25 48.5 540.25 48.5C529.65 48.5 523.85 50.6 519.95 56.8L530.45 64.1C532.25 61.5 534.25 60.7 538.55 60.7C545.55 60.7 546.45 62.6 546.45 67.5V69H537.55C527.15 69 519.15 74.1 519.15 84.6ZM546.45 81.1C546.45 85.7 544.85 88.7 539.85 88.7C536.05 88.7 533.75 87.1 533.75 84.2C533.75 80.9 535.85 79.6 539.65 79.6H546.45V81.1ZM570.088 99.5H585.088V70.9C585.088 64.5 587.088 61.3 592.288 61.3C597.088 61.3 598.688 64.3 598.688 71V99.5H613.688V68.1C613.688 52.9 605.088 48.5 595.288 48.5C589.988 48.5 586.288 51.3 584.688 53.3V49.5H570.088V99.5ZM692.525 85.7H671.425L683.225 72.1C687.725 66.9 693.725 59.6 693.725 50.1C693.725 38.8 684.025 29.5 670.925 29.5C658.425 29.5 648.325 38.2 648.325 50.2H662.625C663.025 45.6 665.825 43.1 669.925 43.1C673.825 43.1 677.225 45.4 677.225 50.2C677.225 54.5 675.625 58.4 671.525 63.2L649.025 89.7V99.5H692.525V85.7ZM751.982 77.5V52.4C751.982 34.7 740.582 29.5 727.182 29.5C713.782 29.5 702.382 34.7 702.382 52.5V77.5C702.382 94.3 713.782 100.5 727.182 100.5C740.582 100.5 751.982 94.3 751.982 77.5ZM718.882 54.4C718.882 47 720.882 43.3 727.182 43.3C733.382 43.3 735.382 47 735.382 54.4V75.6C735.382 83 733.382 86.7 727.182 86.7C720.882 86.7 718.882 83 718.882 75.6V54.4ZM804.439 85.7H783.339L795.139 72.1C799.639 66.9 805.639 59.6 805.639 50.1C805.639 38.8 795.939 29.5 782.839 29.5C770.339 29.5 760.239 38.2 760.239 50.2H774.539C774.939 45.6 777.739 43.1 781.839 43.1C785.739 43.1 789.139 45.4 789.139 50.2C789.139 54.5 787.539 58.4 783.439 63.2L760.939 89.7V99.5H804.439V85.7ZM830.896 70.8H836.296C842.396 70.8 845.296 73.7 845.296 78.8C845.296 83.2 842.696 86.7 837.496 86.7C832.296 86.7 829.296 84.2 828.696 80.4H814.396C814.896 92 823.596 100.5 838.796 100.5C853.996 100.5 861.796 91.4 861.796 80C861.796 72 857.396 66.7 851.796 63.7C855.596 61.5 860.796 57 860.796 48.9C860.796 38.8 851.096 29.5 837.996 29.5C825.396 29.5 816.096 37.8 815.396 49.2H829.696C830.496 45.6 832.896 43.1 836.996 43.1C841.196 43.1 844.296 45.6 844.296 49.9C844.296 54.8 840.496 57 836.296 57H830.896V70.8Z" fill="#33A6B8"/>
</g>
<path d="M12.9473 28.5L36.5473 97.5H51.4473L75.0473 28.5H56.9473L43.9473 70.2L31.0473 28.5H12.9473ZM122.18 47.5H107.18V76C107.18 82.9 105.28 85.7 100.18 85.7C95.1801 85.7 93.5801 82.7 93.5801 75.9V47.5H78.5801V78.7C78.5801 93.7 87.1801 98.5 96.9801 98.5C103.18 98.5 105.48 96.8 107.48 93.6V97.5H122.18V47.5ZM159.917 82.2C158.117 84.5 157.117 85.9 152.417 85.9C146.317 85.9 144.917 82 144.717 76.3H171.717V70.4C171.717 54.8 165.217 46.5 150.717 46.5C137.717 46.5 129.717 53.4 129.717 68.9V75.9C129.717 88.3 136.517 98.5 152.317 98.5C161.417 98.5 167.417 96 170.917 89.9L159.917 82.2ZM150.817 59.1C154.317 59.1 156.417 60.8 156.717 66.3H144.817C145.217 61.8 146.917 59.1 150.817 59.1ZM206.252 28.5V97.5H222.852V70.3H246.852V56.5H222.852V42.3H249.852V28.5H206.252ZM283.061 82.2C281.261 84.5 280.261 85.9 275.561 85.9C269.461 85.9 268.061 82 267.861 76.3H294.861V70.4C294.861 54.8 288.361 46.5 273.861 46.5C260.861 46.5 252.861 53.4 252.861 68.9V75.9C252.861 88.3 259.661 98.5 275.461 98.5C284.561 98.5 290.561 96 294.061 89.9L283.061 82.2ZM273.961 59.1C277.461 59.1 279.561 60.8 279.861 66.3H267.961C268.361 61.8 270.061 59.1 273.961 59.1ZM340.996 54.8C337.096 48.4 329.896 46.5 321.696 46.5C308.896 46.5 301.696 52.5 301.696 62.5C301.696 72.3 308.996 76.9 320.296 79.4C324.996 80.4 326.696 81.1 326.696 83C326.696 84.8 324.696 85.7 321.396 85.7C315.696 85.7 313.696 84.1 311.996 81.8L300.396 90.2C304.896 96.3 311.496 98.5 321.696 98.5C334.596 98.5 341.696 92.6 341.696 82.6C341.696 73.4 336.596 67.9 322.896 65.3C318.296 64.4 316.696 63.6 316.696 61.9C316.696 59.7 319.296 59.3 321.396 59.3C325.996 59.3 327.996 60.6 329.896 62.8L340.996 54.8ZM368.186 87.3C373.186 94.3 380.586 98.5 391.686 98.5C406.186 98.5 415.286 91.3 415.286 71.9V28.5H398.686V71.9C398.686 82.1 395.586 84.7 390.386 84.7C387.286 84.7 383.886 82.9 381.686 79.7L368.186 87.3ZM423.248 82.6C423.248 93.1 430.848 98.5 440.648 98.5C446.148 98.5 448.848 96.1 450.548 93.4V97.5H465.148V65.6C465.148 50.2 457.348 46.5 444.348 46.5C433.748 46.5 427.948 48.6 424.048 54.8L434.548 62.1C436.348 59.5 438.348 58.7 442.648 58.7C449.648 58.7 450.548 60.6 450.548 65.5V67H441.648C431.248 67 423.248 72.1 423.248 82.6ZM450.548 79.1C450.548 83.7 448.948 86.7 443.948 86.7C440.148 86.7 437.848 85.1 437.848 82.2C437.848 78.9 439.948 77.6 443.748 77.6H450.548V79.1ZM518.186 68.9C518.186 54.6 510.386 46.5 499.086 46.5C494.686 46.5 491.486 47.8 489.186 50V47.5H474.186V116.5H489.186V96.5C491.386 97.8 494.486 98.5 498.986 98.5C511.586 98.5 518.186 88.9 518.186 75.9V68.9ZM496.186 85.9C490.386 85.9 489.186 81.9 489.186 76.1V70.2C489.186 62.8 490.786 59.1 496.186 59.1C501.586 59.1 503.186 62.8 503.186 70.2V74.6C503.186 81.2 502.386 85.9 496.186 85.9ZM523.15 82.6C523.15 93.1 530.75 98.5 540.55 98.5C546.05 98.5 548.75 96.1 550.45 93.4V97.5H565.05V65.6C565.05 50.2 557.25 46.5 544.25 46.5C533.65 46.5 527.85 48.6 523.95 54.8L534.45 62.1C536.25 59.5 538.25 58.7 542.55 58.7C549.55 58.7 550.45 60.6 550.45 65.5V67H541.55C531.15 67 523.15 72.1 523.15 82.6ZM550.45 79.1C550.45 83.7 548.85 86.7 543.85 86.7C540.05 86.7 537.75 85.1 537.75 82.2C537.75 78.9 539.85 77.6 543.65 77.6H550.45V79.1ZM574.088 97.5H589.088V68.9C589.088 62.5 591.088 59.3 596.288 59.3C601.088 59.3 602.688 62.3 602.688 69V97.5H617.688V66.1C617.688 50.9 609.088 46.5 599.288 46.5C593.988 46.5 590.288 49.3 588.688 51.3V47.5H574.088V97.5ZM696.525 83.7H675.425L687.225 70.1C691.725 64.9 697.725 57.6 697.725 48.1C697.725 36.8 688.025 27.5 674.925 27.5C662.425 27.5 652.325 36.2 652.325 48.2H666.625C667.025 43.6 669.825 41.1 673.925 41.1C677.825 41.1 681.225 43.4 681.225 48.2C681.225 52.5 679.625 56.4 675.525 61.2L653.025 87.7V97.5H696.525V83.7ZM755.982 75.5V50.4C755.982 32.7 744.582 27.5 731.182 27.5C717.782 27.5 706.382 32.7 706.382 50.5V75.5C706.382 92.3 717.782 98.5 731.182 98.5C744.582 98.5 755.982 92.3 755.982 75.5ZM722.882 52.4C722.882 45 724.882 41.3 731.182 41.3C737.382 41.3 739.382 45 739.382 52.4V73.6C739.382 81 737.382 84.7 731.182 84.7C724.882 84.7 722.882 81 722.882 73.6V52.4ZM808.439 83.7H787.339L799.139 70.1C803.639 64.9 809.639 57.6 809.639 48.1C809.639 36.8 799.939 27.5 786.839 27.5C774.339 27.5 764.239 36.2 764.239 48.2H778.539C778.939 43.6 781.739 41.1 785.839 41.1C789.739 41.1 793.139 43.4 793.139 48.2C793.139 52.5 791.539 56.4 787.439 61.2L764.939 87.7V97.5H808.439V83.7ZM834.896 68.8H840.296C846.396 68.8 849.296 71.7 849.296 76.8C849.296 81.2 846.696 84.7 841.496 84.7C836.296 84.7 833.296 82.2 832.696 78.4H818.396C818.896 90 827.596 98.5 842.796 98.5C857.996 98.5 865.796 89.4 865.796 78C865.796 70 861.396 64.7 855.796 61.7C859.596 59.5 864.796 55 864.796 46.9C864.796 36.8 855.096 27.5 841.996 27.5C829.396 27.5 820.096 35.8 819.396 47.2H833.696C834.496 43.6 836.896 41.1 840.996 41.1C845.196 41.1 848.296 43.6 848.296 47.9C848.296 52.8 844.496 55 840.296 55H834.896V68.8Z" fill="white"/>
<path d="M218.692 154.9H211.88L216.118 149.83C217.262 148.452 218.822 146.684 218.822 144.422C218.822 141.406 216.456 139.326 213.388 139.326C210.424 139.326 207.98 141.328 207.98 144.37H210.736C210.814 142.758 211.88 141.9 213.284 141.9C214.61 141.9 215.832 142.732 215.832 144.37C215.832 145.618 215.182 146.788 214.012 148.14L207.85 155.368V157.5H218.692V154.9ZM232.692 152.248V144.812C232.692 141.016 230.04 139.326 227.05 139.326C224.06 139.326 221.408 141.016 221.408 144.838V152.248C221.408 155.966 224.06 157.734 227.05 157.734C230.04 157.734 232.692 155.966 232.692 152.248ZM229.676 144.994V152.066C229.676 153.99 228.662 155.108 227.05 155.108C225.412 155.108 224.398 153.99 224.398 152.066V144.994C224.398 143.07 225.412 141.952 227.05 141.952C228.662 141.952 229.676 143.07 229.676 144.994ZM245.86 154.9H239.048L243.286 149.83C244.43 148.452 245.99 146.684 245.99 144.422C245.99 141.406 243.624 139.326 240.556 139.326C237.592 139.326 235.148 141.328 235.148 144.37H237.904C237.982 142.758 239.048 141.9 240.452 141.9C241.778 141.9 243 142.732 243 144.37C243 145.618 242.35 146.788 241.18 148.14L235.018 155.368V157.5H245.86V154.9ZM252.372 149.544H253.62C255.7 149.544 256.766 150.636 256.766 152.456C256.766 153.964 255.7 155.108 254.14 155.108C252.294 155.108 251.384 154.12 251.176 152.82H248.42C248.576 155.654 250.63 157.734 254.27 157.734C257.728 157.734 259.756 155.368 259.756 152.534C259.756 150.324 258.586 148.92 256.948 148.192C258.352 147.49 259.496 146.138 259.496 144.188C259.496 141.484 257.208 139.326 254.062 139.326C251.176 139.326 248.732 141.224 248.654 144.11H251.41C251.54 142.862 252.502 141.9 253.958 141.9C255.492 141.9 256.506 142.966 256.506 144.266C256.506 145.956 255.492 146.944 253.62 146.944H252.372V149.544ZM266.164 153.912H262.576V157.5H266.164V153.912ZM276.559 139.56H273.725L270.969 141.536V144.578L273.543 142.81V157.5H276.559V139.56ZM293.731 152.248V144.812C293.731 141.016 291.079 139.326 288.089 139.326C285.099 139.326 282.447 141.016 282.447 144.838V152.248C282.447 155.966 285.099 157.734 288.089 157.734C291.079 157.734 293.731 155.966 293.731 152.248ZM290.715 144.994V152.066C290.715 153.99 289.701 155.108 288.089 155.108C286.451 155.108 285.437 153.99 285.437 152.066V144.994C285.437 143.07 286.451 141.952 288.089 141.952C289.701 141.952 290.715 143.07 290.715 144.994ZM300.035 153.912H296.447V157.5H300.035V153.912ZM313.602 154.9H306.79L311.028 149.83C312.172 148.452 313.732 146.684 313.732 144.422C313.732 141.406 311.366 139.326 308.298 139.326C305.334 139.326 302.89 141.328 302.89 144.37H305.646C305.724 142.758 306.79 141.9 308.194 141.9C309.52 141.9 310.742 142.732 310.742 144.37C310.742 145.618 310.092 146.788 308.922 148.14L302.76 155.368V157.5H313.602V154.9ZM316.162 152.482C316.162 155.758 318.866 157.734 321.96 157.734C325.054 157.734 327.758 155.758 327.758 152.482C327.758 150.454 326.51 148.816 325.054 148.192C326.484 147.464 327.498 145.956 327.498 144.266C327.498 141.172 324.872 139.326 321.96 139.326C319.074 139.326 316.422 141.172 316.422 144.266C316.422 145.956 317.436 147.464 318.866 148.192C317.462 148.816 316.162 150.454 316.162 152.482ZM319.178 152.3C319.178 150.558 320.582 149.492 321.96 149.492C323.286 149.492 324.768 150.558 324.768 152.3C324.768 153.86 323.52 155.134 321.96 155.134C320.348 155.134 319.178 153.86 319.178 152.3ZM319.412 144.474C319.412 143.07 320.53 141.952 321.96 141.952C323.364 141.952 324.508 143.07 324.508 144.474C324.508 145.904 323.364 147.048 321.96 147.048C320.53 147.048 319.412 145.904 319.412 144.474ZM348.856 142.264C347.582 140.288 345.58 139.326 342.72 139.326C338.508 139.326 336.74 141.588 336.74 144.292C336.74 147.334 338.69 148.998 342.148 149.726C345.268 150.402 346.074 151.286 346.074 152.716C346.074 154.016 345.294 155.108 342.824 155.108C340.77 155.108 339.704 154.432 338.638 153.158L336.272 154.796C337.754 156.798 339.912 157.734 342.98 157.734C347.296 157.734 349.09 155.264 349.09 152.586C349.09 149.362 347.218 148.01 343.604 147.23C341.108 146.684 339.756 146.008 339.756 144.292C339.756 142.784 340.848 141.952 342.694 141.952C344.722 141.952 345.684 142.68 346.568 143.902L348.856 142.264ZM353.311 157.5L354.533 153.782H361.007L362.229 157.5H365.427L359.187 139.56H356.327L350.087 157.5H353.311ZM357.757 143.928L360.149 151.182H355.365L357.757 143.928ZM364.791 139.56V142.186H369.965V157.5H372.981V142.186H378.129V139.56H364.791Z" fill="#42B983"/>
<rect x="394.5" y="148" width="98" height="2" fill="#42B983"/>
<path d="M520.787 139.56V151.91L513.403 139.56H510.803V157.5H513.715V145.306L521.021 157.5H523.699V139.56H520.787ZM526.519 153.678C526.519 156.278 528.287 157.734 531.147 157.734C532.733 157.734 533.539 157.318 534.163 156.304V157.5H536.893V148.764C536.893 145.306 535.099 144.266 531.771 144.266C529.197 144.266 527.793 144.89 526.857 146.424L528.859 147.828C529.483 146.814 530.185 146.658 531.589 146.658C533.539 146.658 534.163 147.1 534.163 148.738V149.83H531.355C528.573 149.83 526.519 150.896 526.519 153.678ZM534.163 152.586C534.163 154.848 533.149 155.368 531.459 155.368C530.133 155.368 529.249 154.874 529.249 153.678C529.249 152.534 529.925 151.962 531.563 151.962H534.163V152.586ZM546.988 144.5L542.646 149.57V139.56H539.864V157.5H542.646V153.236L543.53 152.248L547.82 157.5H551.174L545.428 150.09L550.394 144.5H546.988ZM552.087 153.678C552.087 156.278 553.855 157.734 556.715 157.734C558.301 157.734 559.107 157.318 559.731 156.304V157.5H562.461V148.764C562.461 145.306 560.667 144.266 557.339 144.266C554.765 144.266 553.361 144.89 552.425 146.424L554.427 147.828C555.051 146.814 555.753 146.658 557.157 146.658C559.107 146.658 559.731 147.1 559.731 148.738V149.83H556.923C554.141 149.83 552.087 150.896 552.087 153.678ZM559.731 152.586C559.731 154.848 558.717 155.368 557.027 155.368C555.701 155.368 554.817 154.874 554.817 153.678C554.817 152.534 555.493 151.962 557.131 151.962H559.731V152.586ZM565.432 157.5H568.214V149.648C568.214 147.906 569.176 146.736 570.892 146.736C572.322 146.736 573.362 147.386 573.362 149.674V157.5H576.118V149.362C576.118 145.618 574.064 144.266 571.386 144.266C569.67 144.266 568.734 144.89 568.162 145.67V144.5H565.432V157.5ZM589.622 150.168C589.622 146.346 587.62 144.266 584.11 144.266C580.6 144.266 578.572 146.346 578.572 150.168V151.806C578.572 155.394 580.47 157.734 584.11 157.734C587.932 157.734 589.622 155.264 589.622 151.806V150.168ZM584.11 155.342C582.004 155.342 581.328 153.756 581.328 151.728V150.22C581.328 147.984 582.238 146.684 584.11 146.684C585.956 146.684 586.866 147.958 586.866 150.22V151.728C586.866 153.756 586.086 155.342 584.11 155.342ZM594.984 153.912H591.916V161.478L594.984 158.852V153.912ZM603.234 139.56V142.186H608.408V157.5H611.424V142.186H616.572V139.56H603.234ZM631.351 149.674V147.386C631.351 141.744 628.647 139.326 624.617 139.326C620.613 139.326 617.909 141.744 617.909 147.386V149.674C617.909 155.316 620.613 157.734 624.617 157.734C628.647 157.734 631.351 155.316 631.351 149.674ZM620.925 147.386C620.925 143.512 622.225 141.952 624.617 141.952C627.009 141.952 628.335 143.512 628.335 147.386V149.674C628.335 153.548 627.009 155.108 624.617 155.108C622.225 155.108 620.925 153.548 620.925 149.674V147.386ZM649.064 157.5L642.226 146.788L647.894 139.56H644.202L637.598 148.218V139.56H634.582V157.5H637.598V152.716L640.25 149.31L645.45 157.5H649.064ZM649.194 139.56L654.784 150.012V157.5H657.8V150.012L663.39 139.56H659.906L656.292 146.736L652.704 139.56H649.194ZM677.918 149.674V147.386C677.918 141.744 675.214 139.326 671.184 139.326C667.18 139.326 664.476 141.744 664.476 147.386V149.674C664.476 155.316 667.18 157.734 671.184 157.734C675.214 157.734 677.918 155.316 677.918 149.674ZM667.492 147.386C667.492 143.512 668.792 141.952 671.184 141.952C673.576 141.952 674.902 143.512 674.902 147.386V149.674C674.902 153.548 673.576 155.108 671.184 155.108C668.792 155.108 667.492 153.548 667.492 149.674V147.386Z" fill="#42B983"/>
<defs>
<filter id="filter0_f_33_13527" x="10.9473" y="17.5" width="868.848" height="105" filterUnits="userSpaceOnUse" color-interpolation-filters="sRGB">
<feFlood flood-opacity="0" result="BackgroundImageFix"/>
<feBlend mode="normal" in="SourceGraphic" in2="BackgroundImageFix" result="shape"/>
<feGaussianBlur stdDeviation="4" result="effect1_foregroundBlur_33_13527"/>
</filter>
<filter id="filter1_f_33_13527" x="0.947266" y="21.5" width="868.848" height="105" filterUnits="userSpaceOnUse" color-interpolation-filters="sRGB">
<feFlood flood-opacity="0" result="BackgroundImageFix"/>
<feBlend mode="normal" in="SourceGraphic" in2="BackgroundImageFix" result="shape"/>
<feGaussianBlur stdDeviation="4" result="effect1_foregroundBlur_33_13527"/>
</filter>
</defs>
</svg>
