<svg viewBox="0 0 113.39 37.47" xmlns="http://www.w3.org/2000/svg"><g fill="#5a5858"><path d="m1.55 27.41a.07.07 0 0 0 0-.06.07.07 0 0 0 -.06 0 3.17 3.17 0 0 1 -1.37 0s0 0-.06 0a.07.07 0 0 0 0 .06c.06 1.2.11 2.44.11 3.67v2.45c-.06 1.23-.11 2.47-.17 3.67a.07.07 0 0 0 0 .06s0 0 .06 0a3.17 3.17 0 0 1 1.37 0s0 0 .05 0a.07.07 0 0 0 0-.06c-.06-1.2-.12-2.44-.12-3.67v-2.45c.07-1.23.13-2.47.19-3.67z"/><path d="m11.64 27.35a.08.08 0 0 0 -.07 0 1.52 1.52 0 0 1 -.43.07 1.56 1.56 0 0 1 -.46-.07.08.08 0 0 0 -.07 0 .07.07 0 0 0 0 .06c.11 2.13.11 4.86.11 7.3-1.6-1.63-4.29-4.54-6.45-6.89l-.6-.65a.05.05 0 0 0 -.05 0h-.26a.09.09 0 0 0 -.06 0 .14.14 0 0 0 0 .06v3.8s-.16 5.51-.3 6.16a.07.07 0 0 0 .09.09 2.12 2.12 0 0 1 .51-.07 1.58 1.58 0 0 1 .47.07.08.08 0 0 0 .08 0 .06.06 0 0 0 0-.07c-.07-.55-.12-3.5-.12-4.77s0-2.15 0-2.69l.47.5c2.26 2.4 4.59 4.88 6.57 7.21a.07.07 0 0 0 .06 0h.2a.12.12 0 0 0 .08-.08c0-.63-.05-3.78-.05-5.23 0-1.11.14-3.9.23-4.74a.08.08 0 0 0 .05-.06z"/><path d="m20.63 27.86a1.52 1.52 0 0 1 .07-.43.06.06 0 0 0 0-.07.07.07 0 0 0 -.06 0c-1.37.05-2.56.07-3.66.07s-2.29 0-3.66-.07a.06.06 0 0 0 -.06 0 .08.08 0 0 0 0 .07 1.46 1.46 0 0 1 .07.42 1.38 1.38 0 0 1 -.07.43.1.1 0 0 0 0 .07.09.09 0 0 0 .07 0c.71-.09 1.92-.15 3-.16v2.86 2.45c0 1.23-.06 2.47-.11 3.67a.11.11 0 0 0 0 .06.08.08 0 0 0 .07 0 3.12 3.12 0 0 1 1.36 0 .06.06 0 0 0 .05 0 0 0 0 0 0 0-.06c-.05-1.2-.11-2.44-.11-3.67v-2.42c0-.94 0-1.9 0-2.86 1 0 2.24.07 2.95.16a.08.08 0 0 0 .07 0 .07.07 0 0 0 0-.07 1.32 1.32 0 0 1 .02-.45z"/><path d="m27.52 36.3a.06.06 0 0 0 -.07 0 26.15 26.15 0 0 1 -3.74.18c0-.27 0-.9 0-2.05s0-1.66 0-2c.64 0 2.38 0 3.36.12a.06.06 0 0 0 .07 0 .14.14 0 0 0 0-.07 1.9 1.9 0 0 1 0-.41 1.93 1.93 0 0 1 0-.42.14.14 0 0 0 0-.07.09.09 0 0 0 -.07 0 33.3 33.3 0 0 1 -3.36.14c0-.14 0-.32 0-.54s0-.82 0-1.25 0-.78 0-1.12 0-.4 0-.61c1.38 0 2.09.06 2.92.13l.73.06a.09.09 0 0 0 .07 0 .08.08 0 0 0 0-.07 2.71 2.71 0 0 1 0-.41 3 3 0 0 1 0-.41.06.06 0 0 0 0-.06.09.09 0 0 0 -.07 0c-.95.05-1.75.07-2.52.07s-1.57 0-2.54-.07c0 0 0 0-.06 0a.14.14 0 0 0 0 .06c.05 1.13.11 2.41.11 3.66v2.44c0 1.22-.05 2.48-.11 3.69a.14.14 0 0 0 0 .06.08.08 0 0 0 .06 0c1-.05 1.81-.07 2.58-.07s1.62 0 2.55.07a.09.09 0 0 0 .06 0 .06.06 0 0 0 0-.06 2.46 2.46 0 0 1 0-.4 3.13 3.13 0 0 1 0-.42.06.06 0 0 0 .03-.17z"/><path d="m33.35 33.41-.78-1c1.12-.19 2.84-1 2.84-2.77 0-1.52-1-2.32-3-2.32-.27 0-.55 0-.81 0h-.81c-.48 0-1 0-1.61-.07h-.06s0 0 0 .06c.05 1.2.11 2.44.11 3.67v2.45c0 1.23-.06 2.47-.11 3.67a0 0 0 0 0 0 .06.08.08 0 0 0 .07 0 3.12 3.12 0 0 1 1.36 0 .1.1 0 0 0 .07 0 .11.11 0 0 0 0-.06c-.05-1.2-.11-2.44-.11-3.67v-1h.43a40 40 0 0 1 3.64 4.68.08.08 0 0 0 .08 0 4.84 4.84 0 0 1 .81-.07 5.27 5.27 0 0 1 .84.07.07.07 0 0 0 .07 0 .08.08 0 0 0 0-.09c-.61-.54-2.01-2.32-3.03-3.61zm-2.85-2.33c0-1 0-2 .08-3a11.91 11.91 0 0 1 1.3-.07c.64 0 2.13.17 2.13 1.78s-1.36 2.1-2.64 2.1a5.09 5.09 0 0 1 -.87-.06z"/><path d="m46.43 27.35a.08.08 0 0 0 -.07 0 1.52 1.52 0 0 1 -.43.07 1.67 1.67 0 0 1 -.47-.07.1.1 0 0 0 -.07 0 0 0 0 0 0 0 .06c.11 2.13.11 4.86.11 7.3-1.6-1.62-4.27-4.52-6.42-6.86l-.63-.68a.07.07 0 0 0 -.06 0h-.22a.06.06 0 0 0 -.06 0 .07.07 0 0 0 0 .06v3.8s-.19 5.51-.3 6.16a.09.09 0 0 0 0 .07.06.06 0 0 0 .07 0 2.06 2.06 0 0 1 .51-.07 1.58 1.58 0 0 1 .47.07.06.06 0 0 0 .07 0 .08.08 0 0 0 0-.07c-.07-.55-.13-3.5-.13-4.77s0-2.15 0-2.69l.46.49c2.26 2.4 4.6 4.88 6.58 7.22a.06.06 0 0 0 .06 0h.2a.05.05 0 0 0 0 0s0 0 0 0c0-.63 0-3.78 0-5.23 0-1.1.14-3.89.23-4.74a.08.08 0 0 0 .1-.12z"/><path d="m53.28 36.3a.06.06 0 0 0 -.07 0 26.15 26.15 0 0 1 -3.74.18c0-.27 0-.9 0-2.05s0-1.66 0-2c.64 0 2.39 0 3.37.12a0 0 0 0 0 .06 0 .06.06 0 0 0 0-.07 2.71 2.71 0 0 1 0-.41 2.85 2.85 0 0 1 0-.42.08.08 0 0 0 0-.07.11.11 0 0 0 -.07 0 33.68 33.68 0 0 1 -3.37.14v-.54c0-.37 0-.82 0-1.25s0-.77 0-1.11 0-.4 0-.62c1.38 0 2.09.06 2.91.13l.74.06a.07.07 0 0 0 .06 0 .06.06 0 0 0 0-.07 1.84 1.84 0 0 1 0-.41 2 2 0 0 1 0-.41 0 0 0 0 0 0-.06.06.06 0 0 0 -.06 0c-.95.05-1.75.07-2.52.07s-1.57 0-2.54-.07c0 0 0 0-.06 0a.07.07 0 0 0 0 .06c.05 1.13.11 2.41.11 3.66v2.44c0 1.22-.06 2.48-.11 3.69a.07.07 0 0 0 0 .06.08.08 0 0 0 .06 0c1-.05 1.8-.07 2.58-.07s1.61 0 2.55.07h.06a0 0 0 0 0 0-.06 2.58 2.58 0 0 1 0-.4 2.12 2.12 0 0 1 0-.42.06.06 0 0 0 .04-.17z"/><path d="m62.38 27.86a1.91 1.91 0 0 1 .06-.43.06.06 0 0 0 0-.07.09.09 0 0 0 -.06 0c-1.37.05-2.57.07-3.66.07s-2.3 0-3.66-.07a.09.09 0 0 0 -.07 0 .08.08 0 0 0 0 .07 1.46 1.46 0 0 1 .07.42 1.75 1.75 0 0 1 -.07.43.09.09 0 0 0 0 .07.11.11 0 0 0 .07 0c.72-.09 1.92-.15 3-.16v2.86 2.45c0 1.23-.06 2.47-.12 3.67a.07.07 0 0 0 0 .06s0 0 0 0a3.17 3.17 0 0 1 1.37 0s0 0 .06 0a.07.07 0 0 0 0-.06c-.06-1.2-.11-2.44-.11-3.67v-2.42c0-.95 0-1.91 0-2.86 1 0 2.23.07 3 .16a.11.11 0 0 0 .07 0 .06.06 0 0 0 0-.07 1.64 1.64 0 0 1 .05-.45z"/><path d="m71.37 27.14c-3.47 0-5.63 2-5.63 5.17s2 5.16 5.56 5.16a13.69 13.69 0 0 0 3.7-.69.08.08 0 0 0 0-.07c0-.2 0-.39 0-.59s0-.38 0-.56c0-1.83 0-2.62.06-2.88a.09.09 0 0 0 0-.07.08.08 0 0 0 -.07 0 1.9 1.9 0 0 1 -.59.07 3.34 3.34 0 0 1 -.66-.07.06.06 0 0 0 -.07 0 .06.06 0 0 0 0 .06v.35 1.59s0 1.13 0 1.67a5.24 5.24 0 0 1 -2.2.42c-2.6 0-4.15-1.64-4.15-4.4s1.49-4.48 4.08-4.48a4 4 0 0 1 3.06 1.36.09.09 0 0 0 .06 0h.18a.08.08 0 0 0 .07-.07 3.36 3.36 0 0 1 .32-1.07s0 0 0-.06a.08.08 0 0 0 0 0 7.25 7.25 0 0 0 -3.72-.84z"/><path d="m81.07 33.41-.78-1c1.12-.19 2.85-1 2.85-2.77 0-1.52-1-2.32-3-2.32-.27 0-.54 0-.81 0h-.8c-.49 0-1 0-1.62-.07h-.06a.14.14 0 0 0 0 .06c0 1.2.11 2.44.11 3.67v2.45c0 1.23-.06 2.47-.11 3.67a.11.11 0 0 0 0 .06.1.1 0 0 0 .07 0 3.12 3.12 0 0 1 1.36 0 .08.08 0 0 0 .07 0 .07.07 0 0 0 0-.06c-.06-1.2-.12-2.44-.12-3.67v-1h.43a41.29 41.29 0 0 1 3.65 4.68.06.06 0 0 0 .07 0 4.93 4.93 0 0 1 .81-.07 5.18 5.18 0 0 1 .84.07.09.09 0 0 0 .07 0 .08.08 0 0 0 0-.09c-.61-.54-2.01-2.32-3.03-3.61zm-2.85-2.33c0-1 0-2 .08-3a12 12 0 0 1 1.31-.08 1.84 1.84 0 0 1 2.12 1.78c0 1.55-1.36 2.1-2.63 2.1a5.21 5.21 0 0 1 -.88-.06z"/><path d="m89.74 27.14c-3.27 0-5.38 2-5.38 5.17s2.11 5.16 5.38 5.16 5.41-2 5.41-5.16-2.15-5.17-5.41-5.17zm3.86 5.17c0 2.84-1.41 4.48-3.86 4.48s-3.84-1.64-3.84-4.48 1.4-4.48 3.84-4.48 3.86 1.63 3.86 4.48z"/><path d="m105.07 27.33a1.16 1.16 0 0 1 -.4.07 2.34 2.34 0 0 1 -.57-.07.1.1 0 0 0 -.07 0 .06.06 0 0 0 0 .07c.08.55.08 1.9.08 4.6 0 1.84 0 4.62-3 4.62s-3.11-2.4-3.11-4.34c0-2.09.09-4 .17-4.86a.06.06 0 0 0 0-.07.1.1 0 0 0 -.07 0 3.06 3.06 0 0 1 -.59.07 4.62 4.62 0 0 1 -.73-.07s0 0-.06 0a.07.07 0 0 0 0 .06v.37c0 .83.07 2 .07 3.3v1s0 .78 0 1.25c0 2.82 1.32 4.14 4.14 4.14a3.85 3.85 0 0 0 4.13-4.17c0-2 .13-4.51.25-5.89a.07.07 0 0 0 0-.06.1.1 0 0 0 -.24-.02z"/><path d="m110 27.33h-.83-.93c-.41 0-.87 0-1.37-.07h-.06a.07.07 0 0 0 0 .06c0 1.2.11 2.44.11 3.67v2.45c0 1.23-.06 2.47-.11 3.67v.06a.08.08 0 0 0 .07 0 3.12 3.12 0 0 1 1.36 0 .06.06 0 0 0 0 0 0 0 0 0 0 0-.06c0-1.2-.11-2.44-.11-3.67v-.7h1.07c1.89 0 3.9-.81 3.9-3.06.08-2.35-2.32-2.35-3.1-2.35zm1.73 2.56c0 2-1.62 2.3-2.58 2.3a4.81 4.81 0 0 1 -.93-.1v-4.09h1.2c1.41 0 2.3.33 2.3 1.89z"/></g><path d="m56.69 21.36h1.54a.3.3 0 0 0 .22-.12l6.36-10.42 3.46 11.92a.21.21 0 0 0 .18.14h6.68a.1.1 0 0 0 .1-.14l-7-22.3a.21.21 0 0 0 -.23-.14h-2.51a.32.32 0 0 0 -.22.12l-8.58 13.31-8.58-13.31a.3.3 0 0 0 -.21-.12h-2.51a.23.23 0 0 0 -.19.14l-7 22.3a.1.1 0 0 0 .1.14h6.68a.22.22 0 0 0 .18-.14l3.46-11.92 6.36 10.42a.3.3 0 0 0 .22.12z" fill="#005bac"/><path d="m38.46 10.25a.14.14 0 0 0 -.14-.11h-19a1.83 1.83 0 1 0 0 3.65h11.28c-1.34 3.54-5.9 6.21-11.3 6.21-6.47 0-11.72-3.74-11.72-8.36s5.25-8.41 11.72-8.41a14 14 0 0 1 8.84 2.88h.07 7.79a.14.14 0 0 0 .16-.11.16.16 0 0 0 0-.09c-3.35-3.53-9.65-5.91-16.86-5.91-10.66 0-19.3 5.19-19.3 11.59s8.64 11.59 19.3 11.59 19.29-5.18 19.29-11.59a6.69 6.69 0 0 0 -.13-1.34z" fill="#005bac"/><path d="m94.09 0c-10.65 0-19.29 5.19-19.29 11.59s8.64 11.59 19.29 11.59 19.3-5.19 19.3-11.59-8.64-11.59-19.3-11.59zm0 20c-6.47 0-11.71-3.74-11.71-8.36s5.24-8.36 11.71-8.36 11.71 3.72 11.71 8.31-5.24 8.41-11.71 8.41z" fill="#005bac"/></svg>