<svg width="154" height="27" viewBox="0 0 154 27" fill="none" xmlns="http://www.w3.org/2000/svg">
<g clip-path="url(#clip0_104_78)">
<path d="M0 0V4.56H8.5V27H13.61V4.56H22.11V0H0Z" fill="#002063"/>
<path d="M75.5801 0V4.56H84.0801V27H89.1801V4.56H97.6801V0H75.5801Z" fill="#002063"/>
<path d="M26.8 0V27H44.09V22.43H31.91V15.1H40.66V10.54H31.91V4.56H44.09V0H26.8Z" fill="#002063"/>
<path d="M66.4299 17.2L53.3599 0H49.6599V27H54.7699V9.79L67.8499 27H71.5399V0H66.4299V17.2Z" fill="#002063"/>
<path d="M106.66 0H101.55V27H106.66V0Z" fill="#002063"/>
<path d="M124.49 0H120.25L110.13 27H115.24L117.47 21H127.27L129.5 27H134.61L124.49 0ZM125.56 16.5H119.18L122.37 7.98L125.56 16.5Z" fill="#002063"/>
<path d="M143.19 22.44V0H138.08V27H153.73V22.44H143.19Z" fill="#002063"/>
</g>
<defs>
<clipPath id="clip0_104_78">
<rect width="153.73" height="27" fill="white"/>
</clipPath>
</defs>
</svg>
