<svg width="2092" height="343" viewBox="0 0 2092 343" fill="none" xmlns="http://www.w3.org/2000/svg">
<g clip-path="url(#clip0_52_164)">
<path d="M149.796 139.988L66.5895 235.088H180.686L263.893 139.988H149.796Z" fill="#B200FF"/>
<path d="M0 311.138H114.127L180.717 235.057H66.5895L0 311.138Z" fill="#F51400"/>
<path d="M380.394 6.84717H266.267L149.796 139.988H263.923L380.394 6.84717Z" fill="#0052FF"/>
<path d="M635.126 151.613C630.409 166.798 625.813 182.075 621.279 197.504C616.744 212.933 612.362 228.697 608.07 244.826C607.979 245.222 607.888 245.587 607.766 245.982C607.675 245.678 607.614 245.404 607.523 245.1C603.11 229.062 598.697 213.724 594.284 199.056C589.871 184.388 584.941 168.563 579.523 151.613L531.042 6.84717H456.448L564.367 311.138H650.282L754.58 6.84717H682.329L635.096 151.643L635.126 151.613Z" fill="black"/>
<path d="M864.933 6.84717H793.231V311.138H864.933V6.84717Z" fill="black"/>
<path d="M1133.12 145.222C1117.87 137.37 1098 131.406 1073.5 127.267L1041.12 121.698C1029.37 119.568 1020.09 116.951 1013.33 113.907C1006.54 110.834 1001.7 107.121 998.782 102.739C995.86 98.3565 994.399 92.8787 994.399 86.3358C994.399 79.7929 996.164 74.4064 999.695 69.7808C1003.23 65.1551 1008.64 61.5945 1015.98 59.0991C1023.31 56.6037 1032.47 55.356 1043.43 55.356C1056.97 55.356 1067.84 56.9993 1076.08 60.3164C1084.3 63.6335 1090.36 68.4113 1094.25 74.6803C1098.12 80.9493 1100.55 88.8313 1101.47 98.2956H1168.91C1167.69 77.2671 1162.3 59.4643 1152.72 44.8569C1143.13 30.2495 1129.07 19.1113 1110.57 11.4729C1092.03 3.80401 1068.96 0 1041.33 0C1013.69 0 991.112 4.0779 973.369 12.2337C955.626 20.3895 942.722 31.2842 934.688 44.9178C926.653 58.5513 922.605 73.95 922.605 91.1441C922.605 109.312 926.501 124.741 934.262 137.462C942.022 150.182 952.796 160.286 966.522 167.742C980.278 175.228 996.408 180.493 1014.94 183.566L1048.94 189.348C1062.91 191.844 1073.92 194.704 1082.02 197.961C1090.11 201.187 1095.93 205.112 1099.49 209.708C1103.05 214.303 1104.84 219.963 1104.84 226.658C1104.84 234.571 1102.81 241.174 1098.7 246.469C1094.59 251.765 1088.47 255.751 1080.25 258.399C1072.04 261.046 1061.87 262.355 1049.7 262.355C1036.73 262.355 1025.62 260.803 1016.4 257.699C1007.18 254.595 999.847 249.3 994.399 241.783C988.952 234.266 985.969 223.98 985.482 210.955H914.327C914.967 233.81 920.566 253.256 931.097 269.293C941.627 285.331 956.844 297.474 976.687 305.782C996.53 314.09 1020.54 318.228 1048.75 318.228C1076.97 318.228 1099.52 314.181 1118.81 306.116C1138.08 298.021 1152.69 286.488 1162.58 271.454C1172.47 256.421 1177.43 238.77 1177.43 218.441C1177.43 201.491 1173.87 187.005 1166.75 175.015C1159.63 163.025 1148.43 153.104 1133.18 145.252H1133.12V145.222Z" fill="black"/>
<path d="M1294.26 6.84717L1183.55 311.138H1255.89L1276.25 251.521H1399.66L1420.44 311.138H1494.92L1380.06 6.84717H1294.26ZM1295.85 194.248L1314.81 138.801C1318.64 127.054 1322.33 115.733 1325.83 104.869C1329.32 94.0046 1332.49 83.9316 1335.35 74.6803C1336.05 72.4283 1336.69 70.1155 1337.39 67.8635C1338.18 70.3589 1339 72.9456 1339.79 75.4411C1342.81 84.9055 1346.09 95.0089 1349.56 105.721C1353.06 116.433 1356.75 127.723 1360.67 139.531L1379.75 194.248H1295.85Z" fill="black"/>
<path d="M1715.44 145.222C1700.19 137.37 1680.32 131.406 1655.82 127.267L1623.44 121.698C1611.69 119.568 1602.41 116.951 1595.65 113.907C1588.9 110.834 1584.03 107.121 1581.11 102.739C1578.18 98.3565 1576.72 92.8787 1576.72 86.3358C1576.72 79.7929 1578.49 74.4064 1582.02 69.7808C1585.55 65.1551 1590.97 61.5945 1598.3 59.0991C1605.63 56.6037 1614.8 55.356 1625.75 55.356C1639.29 55.356 1650.16 56.9993 1658.41 60.3164C1666.62 63.6335 1672.68 68.4113 1676.58 74.6803C1680.44 80.9493 1682.88 88.8313 1683.79 98.2956H1751.23C1750.01 77.2671 1744.63 59.4643 1735.04 44.8569C1725.45 30.2495 1711.39 19.1113 1692.89 11.4729C1674.35 3.80401 1651.29 0 1623.65 0C1596.02 0 1573.44 4.0779 1555.69 12.2337C1537.95 20.3895 1525.05 31.2842 1517.01 44.9178C1508.95 58.5513 1504.93 73.95 1504.93 91.1441C1504.93 109.312 1508.82 124.741 1516.59 137.462C1524.35 150.182 1535.12 160.286 1548.85 167.742C1562.6 175.228 1578.73 180.493 1597.27 183.566L1631.26 189.348C1645.23 191.844 1656.25 194.704 1664.34 197.961C1672.44 201.187 1678.25 205.112 1681.81 209.708C1685.37 214.303 1687.17 219.963 1687.17 226.658C1687.17 234.571 1685.13 241.174 1681.02 246.469C1676.91 251.765 1670.76 255.751 1662.58 258.399C1654.39 261.046 1644.19 262.355 1632.02 262.355C1619.06 262.355 1607.95 260.803 1598.73 257.699C1589.5 254.595 1582.17 249.3 1576.72 241.783C1571.28 234.266 1568.29 223.98 1567.81 210.955H1496.65C1497.29 233.81 1502.89 253.256 1513.42 269.293C1523.95 285.331 1539.17 297.474 1559.01 305.782C1578.85 314.09 1602.87 318.228 1631.08 318.228C1659.29 318.228 1681.84 314.181 1701.14 306.116C1720.4 298.021 1735.01 286.488 1744.9 271.454C1754.79 256.421 1759.75 238.77 1759.75 218.441C1759.75 201.491 1756.19 187.005 1749.07 175.015C1741.95 163.025 1730.75 153.104 1715.5 145.252H1715.44V145.222Z" fill="black"/>
<path d="M2072.61 242.696C2085.55 218.655 2092 190.748 2092 158.977C2092 127.206 2085.55 99.3912 2072.61 75.3499C2059.68 51.3085 2041.51 32.745 2018.05 19.6287C1994.61 6.5125 1967.62 -0.0303955 1937.06 -0.0303955C1906.5 -0.0303955 1879.63 6.5125 1856.23 19.6287C1832.82 32.745 1814.62 51.3085 1801.66 75.3499C1788.7 99.3912 1782.21 127.267 1782.21 158.977C1782.21 190.687 1788.66 218.655 1801.54 242.696C1814.44 266.737 1832.61 285.331 1856.05 298.478C1879.48 311.625 1906.47 318.198 1937.03 318.198C1967.59 318.198 1991.99 312.172 2014.64 300.243L2054.38 343L2088.59 309.981L2052.28 271.393C2060.07 262.872 2066.89 253.378 2072.61 242.726V242.696ZM1937.18 256.39C1920.93 256.39 1906.75 252.678 1894.67 245.222C1882.55 237.766 1873.15 226.749 1866.45 212.142C1859.76 197.535 1856.41 179.793 1856.41 158.916C1856.41 138.04 1859.76 120.42 1866.45 105.873C1873.15 91.2963 1882.55 80.3103 1894.67 72.8544C1906.78 65.3986 1920.96 61.6859 1937.18 61.6859C1953.4 61.6859 1967.37 65.3986 1979.49 72.8544C1991.6 80.3103 2001 91.2963 2007.7 105.873C2014.39 120.45 2017.74 138.131 2017.74 158.916C2017.74 179.701 2014.39 197.535 2007.7 212.142C2001 226.749 1991.6 237.766 1979.49 245.222C1967.37 252.678 1953.25 256.39 1937.18 256.39Z" fill="black"/>
</g>
<defs>
<clipPath id="clip0_52_164">
<rect width="2092" height="343" fill="white"/>
</clipPath>
</defs>
</svg>
