<svg width="78" height="77" viewBox="0 0 78 77" fill="none" xmlns="http://www.w3.org/2000/svg">
<path d="M38.5682 67.5844C38.8561 67.5844 39.1871 67.5125 39.5614 67.3685C39.9356 67.2246 40.2379 67.0375 40.4682 66.8072L69.5727 37.6163C70.3212 36.8678 70.8826 36.0137 71.2568 35.0541C71.6311 34.0946 71.8182 33.135 71.8182 32.1754C71.8182 31.1966 71.6311 30.2178 71.2568 29.239C70.8826 28.2602 70.3212 27.3966 69.5727 26.6481L54.0273 11.1026C53.2788 10.3541 52.4151 9.79278 51.4364 9.41854C50.4576 9.04429 49.4788 8.85717 48.5 8.85717C47.5404 8.85717 46.5808 9.04429 45.6212 9.41854C44.6616 9.79278 43.8076 10.3541 43.0591 11.1026L41.5045 12.6572L48.5 19.739C49.2485 20.5451 49.9106 21.4807 50.4864 22.5458C51.0621 23.611 51.35 24.7769 51.35 26.0435C51.35 28.2314 50.5008 30.1602 48.8023 31.8299C47.1038 33.4996 45.1606 34.3344 42.9727 34.3344C41.5333 34.3344 40.3386 34.1185 39.3886 33.6867C38.4386 33.2549 37.5697 32.6405 36.7817 31.8436L30.45 25.5254L14.8182 41.1572C14.5303 41.4451 14.3288 41.7481 14.2136 42.0662C14.0985 42.3845 14.0409 42.7254 14.0409 43.089C14.0409 43.8163 14.2856 44.4246 14.775 44.914C15.2644 45.4034 15.8737 45.6481 16.6031 45.6481C16.9677 45.6481 17.3083 45.5617 17.625 45.389C17.9417 45.2163 18.2152 45.0147 18.4455 44.7844L30.3636 32.8663L33.9909 36.4935L22.1591 48.3254C21.8712 48.6132 21.6697 48.9299 21.5545 49.2754C21.4394 49.6208 21.3818 49.9663 21.3818 50.3117C21.3818 51.0026 21.6409 51.6072 22.1591 52.1254C22.6773 52.6435 23.2818 52.9026 23.9727 52.9026C24.3182 52.9026 24.6492 52.8307 24.9659 52.6867C25.2826 52.5428 25.5561 52.3557 25.7864 52.1254L37.7045 40.2072L41.3318 43.8344L29.5 55.6663C29.2697 55.8966 29.0826 56.194 28.9386 56.5587C28.7947 56.9233 28.7227 57.288 28.7227 57.6526C28.7227 58.3435 28.9818 58.9481 29.5 59.4663C30.0182 59.9844 30.6227 60.2435 31.3136 60.2435C31.6591 60.2435 31.9758 60.186 32.2636 60.0708C32.5515 59.9557 32.8394 59.7541 33.1273 59.4663L45.0455 47.5481L48.6727 51.1754L36.7545 63.0935C36.4667 63.3814 36.2652 63.6981 36.15 64.0435C36.0348 64.389 35.9773 64.7057 35.9773 64.9935C35.9773 65.7996 36.2076 66.4329 36.6682 66.8935C37.1288 67.3541 37.7621 67.5844 38.5682 67.5844ZM38.5737 72.7663C36.67 72.7663 34.9697 72.061 33.4727 70.6504C31.9758 69.2397 31.0833 67.4947 30.7955 65.4151C28.8379 65.134 27.197 64.3314 25.8727 63.0072C24.5485 61.6829 23.7424 60.042 23.4545 58.0844C21.497 57.7966 19.8705 56.9761 18.575 55.6231C17.2795 54.2701 16.4879 52.6435 16.2 50.7435C14.0697 50.4557 12.3136 49.592 10.9318 48.1526C9.55 46.7132 8.85909 44.986 8.85909 42.9708C8.85909 41.992 9.05266 41.0118 9.4398 40.0302C9.82694 39.0486 10.3819 38.1864 11.1045 37.4435L30.45 18.0981L39.95 27.5981C40.4106 28.0587 40.9096 28.4185 41.4469 28.6776C41.9844 28.9367 42.5217 29.0663 43.0591 29.0663C43.8076 29.0663 44.5129 28.7352 45.175 28.0731C45.8371 27.411 46.1682 26.7012 46.1682 25.9439C46.1682 25.6073 46.0674 25.2231 45.8659 24.7913C45.6644 24.3594 45.3333 23.9132 44.8727 23.4526L32.5227 11.1026C31.7742 10.3541 30.9106 9.79278 29.9318 9.41854C28.953 9.04429 27.9742 8.85717 26.9955 8.85717C26.0358 8.85717 25.0763 9.04429 24.1167 9.41854C23.1571 9.79278 22.3047 10.35 21.5596 11.0903L8.42727 24.2299C7.62121 25.036 7.05985 25.8852 6.74318 26.7776C6.42652 27.6701 6.23939 28.6776 6.18182 29.8004C6.12424 30.9231 6.34015 32.017 6.82955 33.0822C7.31894 34.1473 7.90909 35.1117 8.6 35.9754L4.88636 39.689C3.73485 38.4223 2.79924 36.8966 2.07955 35.1117C1.35985 33.3269 1 31.5132 1 29.6708C1 27.9435 1.33106 26.2882 1.99318 24.7049C2.6553 23.1216 3.59091 21.7254 4.8 20.5163L17.8409 7.47536C19.1076 6.20869 20.541 5.27308 22.1412 4.66854C23.7415 4.06399 25.3824 3.76172 27.0639 3.76172C28.7456 3.76172 30.378 4.06399 31.9614 4.66854C33.5447 5.27308 34.9697 6.20869 36.2364 7.47536L37.7909 9.0299L39.3455 7.47536C40.6121 6.20869 42.0456 5.27308 43.6458 4.66854C45.246 4.06399 46.8869 3.76172 48.5685 3.76172C50.2501 3.76172 51.8826 4.06399 53.4659 4.66854C55.0492 5.27308 56.4742 6.20869 57.7409 7.47536L73.2 22.9344C74.4667 24.2011 75.4167 25.6415 76.05 27.2555C76.6833 28.8695 77 30.5104 77 32.1782C77 33.846 76.6833 35.4716 76.05 37.0549C75.4167 38.6382 74.4667 40.0632 73.2 41.3299L44.0955 70.4344C43.347 71.1829 42.4968 71.7587 41.545 72.1617C40.5931 72.5648 39.6027 72.7663 38.5737 72.7663Z" fill="black"/>
</svg>
