<svg width="78" height="77" viewBox="0 0 78 77" fill="none" xmlns="http://www.w3.org/2000/svg">
<path d="M34.7778 40.7601C35.6926 40.7601 36.4491 40.4686 37.0472 39.8854C37.6454 39.3023 37.9444 38.622 37.9444 37.8445C37.9444 37.0021 37.6454 36.3056 37.0472 35.7549C36.4491 35.2041 35.6926 34.9288 34.7778 34.9288C33.9333 34.9288 33.1944 35.2041 32.5611 35.7549C31.9278 36.3056 31.6111 37.0021 31.6111 37.8445C31.6111 38.622 31.9278 39.3023 32.5611 39.8854C33.1944 40.4686 33.9333 40.7601 34.7778 40.7601ZM15.7778 72.8327V67.0013L45.3333 62.239V16.9487C45.3333 16.0416 45.0694 15.2479 44.5417 14.5676C44.0139 13.8872 43.2926 13.4823 42.3778 13.3527L15.7778 9.56231V3.82812L43.8556 8.29884C46.1074 8.62281 47.9722 9.6109 49.45 11.2631C50.9278 12.9153 51.6667 14.7781 51.6667 16.8515V67.0013L15.7778 72.8327ZM1 72.8327V67.0013H9.44444V9.6595C9.44444 7.97488 10.0602 6.58183 11.2917 5.48035C12.5231 4.37887 14.0185 3.82812 15.7778 3.82812H62.2222C64.0519 3.82812 65.5648 4.37887 66.7611 5.48035C67.9574 6.58183 68.5556 7.97488 68.5556 9.6595V67.0013H77V72.8327H1ZM15.7778 67.0013H62.2222V9.6595L15.7778 9.56231V67.0013Z" fill="black"/>
</svg>
