<svg width="78" height="77" viewBox="0 0 78 77" fill="none" xmlns="http://www.w3.org/2000/svg">
<path d="M20.1293 16.4391C18.1302 16.4391 16.4413 15.864 15.0626 14.714C13.6839 13.5639 12.9946 12.155 12.9946 10.4874C12.9946 8.81982 13.6839 7.38223 15.0626 6.17465C16.4413 4.96707 18.1302 4.36328 20.1293 4.36328C22.1283 4.36328 23.8517 4.96707 25.2993 6.17465C26.7469 7.38223 27.4707 8.81982 27.4707 10.4874C27.4707 12.155 26.7469 13.5639 25.2993 14.714C23.8517 15.864 22.1283 16.4391 20.1293 16.4391ZM46.7034 64.7423H17.6476C15.8553 64.7423 14.3215 64.2535 13.0463 63.2759C11.771 62.2983 10.961 61.062 10.6163 59.5669L1 19.458H7.51429L16.5102 59.5669H46.7034V64.7423ZM71.5197 73.3678L59.3184 55.6854H26.8503C25.0581 55.6854 23.4553 55.2541 22.0422 54.3916C20.629 53.529 19.7501 52.3789 19.4054 50.9414L14.5456 29.5499C13.9252 26.9048 14.7179 24.5615 16.9238 22.5201C19.1297 20.4787 21.8871 19.458 25.1959 19.458C27.6086 19.458 29.6766 20.1049 31.4 21.3988C33.1234 22.6926 34.2263 24.3171 34.7088 26.2722L39.4653 46.9736H56.6299C58.0086 46.9736 59.215 47.3186 60.249 48.0087C61.283 48.6987 62.1447 49.5325 62.834 50.5101L77 70.7802L71.5197 73.3678Z" fill="black"/>
</svg>
