<svg width="76" height="70" viewBox="0 0 76 70" fill="none" xmlns="http://www.w3.org/2000/svg">
<g id="icon / sponsor / shirt">
<path id="Vector" d="M52.0318 69.3014H23.9682C23.0378 69.3014 22.1455 68.8975 21.4876 68.1786C20.8298 67.4597 20.4602 66.4846 20.4602 65.4678V35.0675L15.8998 39.0928C14.5317 40.5495 12.3217 40.5495 10.9536 39.0928L1.02608 28.2437C-0.342026 26.7486 -0.342026 24.3335 1.02608 22.8384L21.6529 0.296875H27.4761C27.4761 4.51382 32.1768 7.96405 38 7.96405C43.8232 7.96405 48.5239 4.51382 48.5239 0.296875H54.3471L74.9739 22.8384C76.342 24.3335 76.342 26.7486 74.9739 28.2437L65.0464 39.0928C63.6783 40.5495 61.4683 40.5495 60.1002 39.0928L55.5398 35.0675V65.4678C55.5398 66.4846 55.1702 67.4597 54.5124 68.1786C53.8545 68.8975 52.9622 69.3014 52.0318 69.3014ZM67.537 25.5219L52.4177 9.03745C51.3303 10.3792 50.0323 11.5676 48.5239 12.5643C45.5772 14.4811 41.964 15.6312 38 15.6312C32.0365 15.6312 26.7394 13.0244 23.5823 9.03745L8.46296 25.5219L13.4443 30.9656L23.9682 23.2984H27.4761V61.6343H48.5239V23.2984H52.0318L62.5557 30.9656L67.537 25.5219Z" fill="black"/>
</g>
</svg>
