<?xml version="1.0" encoding="UTF-8"?><svg id="uuid-a112eadd-cdaa-49aa-9a4a-a6ab3d755097" xmlns="http://www.w3.org/2000/svg" xmlns:xlink="http://www.w3.org/1999/xlink" viewBox="0 0 1151.97 242.44"><defs><style>.uuid-b73843c3-07e7-489a-a043-fa6140666f24{fill:#5a707b;}.uuid-4b022581-2fa5-42f4-9e14-50fce1fba1a4{fill:url(#uuid-c1724f4e-59ee-48fe-b12a-90103dfd5c87);}.uuid-987aca11-039d-45e6-a22c-0bd06c702e05{fill:url(#uuid-449a17a7-18cb-4381-9c28-eddaeab83816);}</style><linearGradient id="uuid-c1724f4e-59ee-48fe-b12a-90103dfd5c87" x1="131.29" y1="-20.74" x2="131.29" y2="241.51" gradientUnits="userSpaceOnUse"><stop offset="0" stop-color="#67c7f2"/><stop offset="1" stop-color="#afdde2"/></linearGradient><linearGradient id="uuid-449a17a7-18cb-4381-9c28-eddaeab83816" x1="131.29" y1="-6.08" x2="131.29" y2="125.07" gradientUnits="userSpaceOnUse"><stop offset="0" stop-color="#0091db"/><stop offset="1" stop-color="#00afcc"/></linearGradient></defs><g id="uuid-3c1cf563-1208-4eb9-b10c-96318e754a24"><path class="uuid-b73843c3-07e7-489a-a043-fa6140666f24" d="m365.86,239.21l24.92-132.95c.4-2.12-1.23-4.08-3.39-4.08h-27.13c-1.66,0-3.08,1.18-3.39,2.81l-24.92,132.95c-.4,2.12,1.23,4.08,3.39,4.08h27.13c1.66,0,3.08-1.18,3.39-2.81Z"/><path class="uuid-b73843c3-07e7-489a-a043-fa6140666f24" d="m593.33,176.07h24.68c1.9,0,3.45-1.54,3.45-3.45v-52.14c0-2.26-2.13-3.91-4.32-3.34l-24.68,6.43c-1.52.4-2.58,1.77-2.58,3.34v45.71c0,1.9,1.54,3.45,3.45,3.45Z"/><path class="uuid-b73843c3-07e7-489a-a043-fa6140666f24" d="m543.96,176.07h24.69c1.9,0,3.45-1.54,3.45-3.45v-52.14c0-2.26-2.13-3.91-4.32-3.34l-24.69,6.43c-1.52.4-2.58,1.77-2.58,3.34v45.71c0,1.9,1.54,3.45,3.45,3.45Z"/><path class="uuid-b73843c3-07e7-489a-a043-fa6140666f24" d="m1080.16,49.98l-27.27,6.59c-1.55.37-2.64,1.76-2.64,3.35v178.32c0,1.9,1.54,3.45,3.45,3.45h36.19c1.16,0,2.24-.58,2.87-1.54l58.63-88.47c1.52-2.29-.12-5.35-2.87-5.35h-29.98c-1.16,0-2.24.58-2.87,1.54l-24.93,37.62c-1.89,2.85-6.32,1.51-6.32-1.9V53.33c0-2.23-2.09-3.88-4.26-3.35Z"/><path class="uuid-b73843c3-07e7-489a-a043-fa6140666f24" d="m994.58,239.2l22.65-123.98c.04-.2.06-.41.06-.62v-61.27c-.01-2.23-2.1-3.87-4.27-3.35l-27.27,6.59c-1.55.37-2.64,1.76-2.64,3.35v54.95c-.01.21-.03.41-.07.62l-22.37,122.47c-.39,2.12,1.24,4.07,3.39,4.07h27.13c1.67,0,3.09-1.19,3.39-2.83Z"/><path class="uuid-b73843c3-07e7-489a-a043-fa6140666f24" d="m660.48,239.2l21.8-119.33c.39-2.12-1.24-4.07-3.39-4.07h-27.13c-1.67,0-3.09,1.19-3.39,2.83l-21.8,119.33c-.39,2.12,1.24,4.07,3.39,4.07h27.13c1.67,0,3.09-1.19,3.39-2.83Z"/><path class="uuid-b73843c3-07e7-489a-a043-fa6140666f24" d="m805.93,148.86l-16.27,89.09c-.39,2.12,1.24,4.07,3.39,4.07h27.13c1.67,0,3.09-1.19,3.39-2.83l16.73-91.57c.3-1.64,1.73-2.83,3.39-2.83h63.53c1.66,0,3.08-1.18,3.39-2.81l4.63-24.69c.4-2.12-1.23-4.08-3.39-4.08h-167.98c-1.66,0-3.08,1.18-3.39,2.81l-4.63,24.69c-.4,2.12,1.23,4.08,3.39,4.08h63.3c2.15,0,3.78,1.95,3.39,4.07Z"/><path class="uuid-b73843c3-07e7-489a-a043-fa6140666f24" d="m762.82,57l-4.63,24.68c-.4,2.12,1.23,4.08,3.39,4.08h137.8c1.66,0,3.08-1.18,3.39-2.81l4.63-24.68c.4-2.12-1.23-4.08-3.39-4.08h-137.8c-1.66,0-3.08,1.18-3.39,2.81Z"/><path class="uuid-b73843c3-07e7-489a-a043-fa6140666f24" d="m450.79,90.15l-4.95,28.85c-.28,1.65-1.72,2.86-3.4,2.86h-32.28c-1.66,0-3.08,1.18-3.39,2.81l-4.63,24.69c-.4,2.12,1.23,4.08,3.39,4.08h65.63c1.68,0,3.11-1.21,3.4-2.86l15.79-92.01c.36-2.11-1.26-4.03-3.4-4.03h-182.41c-1.66,0-3.08,1.18-3.39,2.81l-4.63,24.69c-.4,2.12,1.23,4.08,3.39,4.08h147.48c2.14,0,3.76,1.92,3.4,4.03Z"/><path class="uuid-4b022581-2fa5-42f4-9e14-50fce1fba1a4" d="m261.85,233.66l-35.47-65.24c-1.48-2.73-4.34-4.43-7.45-4.43h-58.97c-2.23,0-3.47-2.72-1.9-4.3,8.34-8.38,12.78-20.63,10.32-33.85-2.77-14.86-14.68-26.9-29.52-29.78-24.18-4.7-45.35,13.7-45.35,37.03,0,10.34,4.17,19.69,10.91,26.51,1.62,1.64.58,4.39-1.73,4.39h-59.05c-3.11,0-5.97,1.7-7.45,4.43L.73,233.66c-2.15,3.96.71,8.77,5.22,8.77h250.68c4.5,0,7.37-4.82,5.22-8.77Z"/><path class="uuid-987aca11-039d-45e6-a22c-0bd06c702e05" d="m43.65,163.99h59.05c2.3,0,3.35-2.75,1.73-4.39-6.74-6.81-10.91-16.17-10.91-26.51,0-23.34,21.16-41.73,45.35-37.03,14.84,2.88,26.75,14.92,29.52,29.78,2.46,13.22-1.98,25.47-10.32,33.85-1.57,1.58-.33,4.3,1.9,4.3h58.97c3.11,0,5.97,1.7,7.45,4.43L136.51,3.1c-2.25-4.14-8.19-4.14-10.43,0L36.2,168.42c1.48-2.73,4.34-4.43,7.45-4.43Z"/></g></svg>