<?xml version="1.0" encoding="UTF-8"?><svg xmlns="http://www.w3.org/2000/svg" viewBox="0 0 346.6 134.63"><defs><style>.d{fill:#ffef00;}.e{fill:#96d3f2;}.f{fill:#e0dedd;}.g{fill:#161573;}</style></defs><g id="a"/><g id="b"><g id="c"><g><path class="g" d="M0,10.94C0,5.46,4.44,1.02,9.92,1.02s9.92,4.44,9.92,9.92H0Z"/><path class="f" d="M0,84.02C0,78.55,4.44,74.11,9.92,74.11s9.92,4.44,9.92,9.92H0Z"/><path class="d" d="M19.83,10.94c0,5.48-4.44,9.92-9.92,9.92S0,16.41,0,10.94H19.83Z"/><rect class="g" x="9.92" y="40.69" width="9.92" height="19.83" transform="translate(29.75 101.21) rotate(180)"/><rect class="d" x="0" y="40.69" width="9.92" height="19.83" transform="translate(9.92 101.21) rotate(180)"/><path class="d" d="M91.95,10.94c0,5.48-4.44,9.92-9.92,9.92s-9.92-4.44-9.92-9.92h19.83Z"/><rect class="e" x="72.11" y="20.85" width="19.83" height="19.83"/><rect class="d" x="82.03" y="40.69" width="9.92" height="19.83" transform="translate(173.98 101.21) rotate(180)"/><rect class="f" x="72.11" y="40.69" width="9.92" height="19.83" transform="translate(154.15 101.21) rotate(180)"/><rect class="g" x="77.07" y="-3.94" width="9.92" height="19.83" transform="translate(88.01 -76.05) rotate(90)"/><rect class="g" x="36.06" y="20.85" width="19.83" height="19.83"/><path class="e" d="M36.06,10.94c0-5.48,4.44-9.92,9.92-9.92s9.92,4.44,9.92,9.92h-19.83Z"/><rect class="e" x="36.06" y="40.69" width="9.92" height="19.83"/><rect class="g" x="45.97" y="40.69" width="9.92" height="19.83"/><rect class="e" x="41.02" y="5.98" width="9.92" height="19.83" transform="translate(30.08 61.87) rotate(-90)"/><path class="f" d="M55.89,10.94c0,5.48-4.44,9.92-9.92,9.92s-9.92-4.44-9.92-9.92h19.83Z"/><path class="d" d="M36.06,20.85v9.92c5.48,0,9.92,4.44,9.92,9.92h9.92c0-10.95-8.88-19.83-19.83-19.83Z"/><polygon class="e" points="19.84 20.85 0 20.85 0 40.69 9.92 30.77 19.84 20.85"/><path class="g" d="M91.95,20.85c0,5.48-4.44,9.92-9.92,9.92s-9.92-4.44-9.92-9.92h19.83Z"/><path class="g" d="M238.73,44.54h0V17c0-9.39-7.61-17-17-17s-17,7.61-17,17v27.54h0c0,9.39,7.61,17,17,17s17-7.61,17-17Zm-17,8.5c-4.69,0-8.5-3.81-8.5-8.5V17c0-4.69,3.81-8.5,8.5-8.5s8.5,3.81,8.5,8.5v27.54c0,4.69-3.81,8.5-8.5,8.5Z"/><path class="g" d="M197.09,73.09c-9.39,0-17,7.61-17,17h0v27.54h0c0,9.39,7.61,17,17,17s17-7.61,17-17v-27.54c0-9.39-7.61-17-17-17Zm8.5,44.54c0,4.69-3.81,8.5-8.5,8.5s-8.5-3.81-8.5-8.5v-27.54c0-4.69,3.81-8.5,8.5-8.5s8.5,3.81,8.5,8.5v27.54Z"/><path class="g" d="M329.6,1.02h-15.64V60.52h15.64c9.39,0,17-7.61,17-17V18.02c0-9.39-7.61-17-17-17Zm0,51h-7.14V9.52h7.14c4.69,0,8.5,3.81,8.5,8.5v25.5c0,4.69-3.81,8.5-8.5,8.5Z"/><path class="g" d="M346.6,117.63c0-4.35-1.66-8.7-4.98-12.02-3.52-3.52-7.35-5.37-11.37-7.8-1.69-1.02-3.3-2.22-4.8-3.72-1.33-1.33-2.15-3.16-2.15-5.17,0-4.04,3.28-7.32,7.32-7.32,3.03,0,5.63,1.85,6.74,4.47l7.88-3.21c-2.38-5.73-8.03-9.77-14.62-9.77-8.74,0-15.82,7.08-15.82,15.82,0,4.37,1.77,8.32,4.63,11.19,3.52,3.52,7.35,5.37,11.37,7.8,1.69,1.02,3.3,2.22,4.8,3.72h0c1.66,1.66,2.49,3.83,2.49,6.01,0,4.69-3.81,8.5-8.5,8.5-2.35,0-4.47-.95-6.01-2.49h0c-.79-.8-1.42-1.74-1.84-2.76l-7.85,3.25c.85,2.05,2.09,3.93,3.68,5.52,3.08,3.08,7.33,4.98,12.02,4.98,9.39,0,17-7.61,17-17h0Z"/><path class="g" d="M133.93,61.54c9.39,0,17-7.61,17-17h-8.5c0,4.69-3.81,8.5-8.5,8.5s-8.5-3.81-8.5-8.5V17c0-4.69,3.81-8.5,8.5-8.5s8.5,3.81,8.5,8.5h8.5c0-9.39-7.61-17-17-17s-17,7.61-17,17v27.54c0,9.39,7.61,17,17,17Z"/><polygon class="g" points="155.39 114.23 147.75 74.11 139.5 74.11 131.86 114.23 124.39 74.11 115.47 74.11 127.57 133.61 135.47 133.61 135.65 133.61 143.63 94.37 151.61 133.61 151.78 133.61 159.68 133.61 171.78 74.11 162.86 74.11 155.39 114.23"/><polygon class="g" points="283.33 60.52 283.51 60.52 290.81 60.52 291.41 60.52 303.51 1.02 294.59 1.02 287.12 41.14 279.48 1.02 271.23 1.02 263.59 41.14 256.12 1.02 247.2 1.02 259.3 60.52 259.9 60.52 267.2 60.52 267.37 60.52 275.35 21.29 283.33 60.52"/><path class="g" d="M257.28,100.63v-9.52c0-9.39-7.61-17-17-17h-12.75v59.5h8.5v-15.98h4.25c1.52,0,2.98-.2,4.38-.57l8.81,16.55h9.63l-11.04-20.74c3.21-3.09,5.21-7.43,5.21-12.25Zm-21.25,8.5v-26.52h4.25c4.69,0,8.5,3.81,8.5,8.5v9.52c0,4.69-3.81,8.5-8.5,8.5h-4.25Z"/><path class="g" d="M188.33,60.52h9.63l-11.04-20.74c3.21-3.09,5.21-7.43,5.21-12.25v-9.52c0-9.39-7.61-17-17-17h-12.75V60.52h8.5v-15.98h4.25c1.52,0,2.98-.2,4.38-.57l8.81,16.55Zm-17.44-24.48V9.52h4.25c4.69,0,8.5,3.81,8.5,8.5v9.52c0,4.69-3.81,8.5-8.5,8.5h-4.25Z"/><polygon class="g" points="306.14 74.11 296.55 74.11 280.62 105.51 280.62 74.11 272.12 74.11 272.12 133.61 280.62 133.61 280.62 123.67 280.62 123.67 286.6 112.06 298.06 133.61 307.69 133.61 291.33 102.87 306.14 74.11"/><rect class="f" x="4.96" y="79.07" width="9.92" height="19.83" transform="translate(-79.06 98.9) rotate(-90)"/><rect class="e" x="0" y="93.94" width="19.83" height="19.83"/><polygon class="g" points="9.92 103.86 19.84 93.94 0 93.94 9.92 103.86"/><path class="d" d="M19.84,84.02c0,5.48-4.44,9.92-9.92,9.92S0,89.5,0,84.02H19.84Z"/><rect class="f" x="45.97" y="113.78" width="9.92" height="19.83" transform="translate(101.87 247.39) rotate(180)"/><rect class="e" x="36.06" y="113.78" width="9.92" height="19.83" transform="translate(82.03 247.39) rotate(180)"/><rect class="d" x="72.11" y="113.78" width="9.92" height="19.83"/><rect class="f" x="36.06" y="93.94" width="19.83" height="19.83" transform="translate(91.95 207.72) rotate(180)"/><path class="e" d="M55.89,84.02c0,5.48-4.44,9.92-9.92,9.92s-9.92-4.44-9.92-9.92h19.83Z"/><rect class="g" x="82.03" y="113.78" width="9.92" height="19.83"/><path class="g" d="M36.06,84.02c0-5.48,4.44-9.92,9.92-9.92s9.92,4.44,9.92,9.92h-19.83Z"/><path class="d" d="M72.11,84.02c0-5.48,4.44-9.92,9.92-9.92s9.92,4.44,9.92,9.92h-19.83Z"/><rect class="d" x="77.07" y="79.07" width="9.92" height="19.83" transform="translate(171.01 6.95) rotate(90)"/><path class="g" d="M91.95,84.02c0,5.48-4.44,9.92-9.92,9.92s-9.92-4.44-9.92-9.92h19.83Z"/><rect class="e" x="72.11" y="93.94" width="19.83" height="19.83" transform="translate(164.06 207.72) rotate(-180)"/><rect class="d" x="0" y="113.78" width="9.92" height="19.83"/><rect class="g" x="9.92" y="113.78" width="9.92" height="19.83"/><polygon class="d" points="45.97 103.86 55.89 93.94 36.06 93.94 45.97 103.86"/><polygon class="g" points="45.97 103.86 36.06 113.78 55.89 113.78 45.97 103.86"/><polygon class="f" points="72.11 93.94 82.03 93.94 91.95 113.78 82.03 113.78 72.11 93.94"/><polygon class="f" points="19.83 40.69 0 40.69 19.83 20.85 19.83 40.69"/></g></g></g></svg>