<?xml version="1.0" encoding="UTF-8"?><svg id="a" xmlns="http://www.w3.org/2000/svg" viewBox="0 0 573.2 200.28"><defs><style>.b{fill:#0071c5;}.c{fill:#231815;}</style></defs><path class="c" d="M232.35,56.49c0-3.79,2.77-6.35,6.35-6.35,3.79,0,6.25,2.66,6.25,6.35s-2.66,6.25-6.25,6.25-6.35-2.66-6.35-6.25"/><rect class="c" x="234.05" y="72.18" width="9.2" height="51.08"/><polygon class="c" points="311.07 149.73 328.11 117.88 307.04 72.18 317.16 72.18 332.96 108.06 350.2 72.18 360.42 72.18 320.98 149.73 311.07 149.73"/><path class="c" d="M387.9,71.03c-15.38,0-27.36,11.79-27.36,26.89s11.98,26.78,27.26,26.78,27.15-11.99,27.15-26.78-11.77-26.89-27.05-26.89m-.31,46.12c-9.19,0-17.55-7.96-17.55-18.92s7.33-19.44,17.76-19.44c9.5,0,17.55,7.96,17.55,19.13s-7.23,19.23-17.76,19.23"/><path class="c" d="M425.02,124.7c-3.51,0-6.4-3.1-6.4-6.31,0-3.62,2.89-6.51,6.4-6.51s6.4,2.89,6.4,6.51c0,3.21-2.79,6.31-6.4,6.31"/><path class="c" d="M443.36,56.5c0-3.8,2.77-6.36,6.35-6.36,3.79,0,6.25,2.67,6.25,6.36s-2.66,6.26-6.25,6.26-6.35-2.67-6.35-6.26"/><path class="c" d="M438.61,150.1l2.02-.96c13.59-6.46,13.59-12.26,13.59-33.86v-43.1h-9.1v43.72c0,20.96-.08,21.2-8.41,25.19l-2.09,1,4,8.01Z"/><path class="c" d="M208.03,72.37v2.22c-3.95-2.25-8.55-3.57-13.54-3.57-15.43,0-27.45,11.79-27.45,26.89s12.02,26.78,27.34,26.78c5.03,0,9.66-1.32,13.65-3.58v5.14c0,13.24-7.87,16.24-14.91,16.24s-13.98-2.69-17.71-5.27l-4.04,6.82c4.97,3.31,12.53,6.1,21.75,6.1,11.39,0,23.92-5.69,23.92-24.92v-52.85h-9.01Zm-13.85,44.78c-9.22,0-17.61-7.96-17.61-18.92s7.35-19.44,17.81-19.44c5.43,0,10.39,2.59,13.65,6.89v24.98c-3.15,4.1-7.99,6.49-13.85,6.49"/><path class="c" d="M471.21,149.95V72.39h9.17v3.6c4.52-3.06,9.93-4.71,15.65-4.71,15.14,0,27.01,11.7,27.01,26.63s-11.91,26.53-27.11,26.53c-5.67,0-11.04-1.63-15.54-4.66v30.16h-9.17Zm9.17-42.01c3.23,5.49,8.92,8.75,15.33,8.75,11.03,0,18.15-7.37,18.15-18.77,0-10.64-7.71-18.67-17.94-18.67-6.79,0-12.42,3.1-15.54,8.53v20.15Z"/><path class="c" d="M292.44,77.09l-2.18-4.73-20.93,9.71v-31.93h-9.09V123.25h9.09v-32.51l15.9-7.37,18.38,39.89s9.98-.13,10.11,0l-21.27-46.17Z"/><polygon class="b" points="124.6 125.58 105.83 106.81 95.89 116.74 83.77 104.62 104.22 84.17 135.12 115.07 150.04 100.14 100.05 50.14 50.04 100.14 100.05 150.14 124.6 125.58"/></svg>