<svg width="500" height="200" viewBox="0 0 500 200" fill="none" xmlns="http://www.w3.org/2000/svg">
<rect width="500" height="200" fill="white"/>
<path fill-rule="evenodd" clip-rule="evenodd" d="M64.5006 44.3033L64.9303 44.5307L65.1577 44.6571H65.3852H65.5115V44.5055H66.1181H66.2445L66.4466 44.3033L66.6994 44.1264L66.9774 44H67.2807V44.2275V45.0867H67.8367V45.3142H67.3312L67.5334 45.5922L67.6598 45.7186H67.8367H68.0641H68.5696H67.963H68.0894V45.9208H68.3169L68.9234 46.0724H69.4541H69.6563V46.679V46.957H69.7827L69.9343 47.1844V47.3866V48.8777H70.364L72.1584 48.4733H72.2847V48.7008H72.032H71.0716L71.9309 48.8524V48.9788H71.8045L71.198 50.2425H71.4507H71.6024L72.0067 50.571L72.3606 50.9501V51.1018V51.2534L72.1331 51.5567L71.9309 52.0116V52.239V52.416H72.1331V52.5423L72.31 52.7445L72.1078 53.0478V53.3511L71.9815 53.6543L71.754 53.9071H71.5771H71.4002H71.0716H70.8947H70.6167L70.364 55.196V55.3982V55.5751V55.8026L71.0464 55.4993L71.2485 55.8531L71.4002 56.0047H71.6024L73.2451 55.4993L74.0033 55.6509L73.6495 55.8026L73.3715 56.03L73.1946 56.308V56.6871V56.864V57.142V57.3695L72.8913 57.7233V57.9002L73.2198 58.2288L73.5737 58.6079L72.6386 58.9112L72.8407 59.1133V59.2397L72.2342 59.0881H71.7287V59.2144V59.4672L71.6276 60.2506V60.377V60.5539H72.1078H72.3606L72.588 60.6803L72.7397 60.8572L72.9418 61.211H73.2957V61.0847V61.1857H73.7759V61.1352V61.489V61.6659V61.2868L72.31 62.4999L72.8913 62.778V63.0812H73.5231H73.8264L74.155 63.2581H74.2813L74.0791 63.5614V63.7131H73.9528V63.9911V64.2691V64.5218V64.7998L72.1836 65.7855L71.9309 66.0382H71.8045V66.1646H71.9309L72.2089 66.5689L72.3606 66.7711H72.588L74.0033 66.392V66.8722L73.8517 67.0238H73.978V67.1755V67.8326H73.7759H73.4979L73.2198 68.237L73.0429 68.4139H72.4111H71.7035H71.4002H71.1222V68.7171V69.2226V69.4501L72.7144 69.071L73.4979 68.8435H73.7506L73.9528 69.5006L74.711 70.461L75.1153 71.0675V71.2445L74.7868 71.3961L74.3571 71.573L74.0033 71.7752V71.9016V72.0785L73.6495 71.9521H73.2704V72.4323H73.5484H73.8264L74.0539 72.6345V72.7608V72.9125H73.9275L73.7759 73.0894H73.6495V73.2663H73.7759L74.6351 74.6058L73.2957 74.9091L72.6638 75.2123L72.4617 75.4145V75.6925V75.8947V76.0464V76.1727V76.3496H72.8913H73.2957L73.5231 76.0464L73.7759 75.8442L74.0539 75.6925H74.4582V75.5662V75.1871V75.0354H74.6857V75.1618H75.4186V75.4145H75.2922L74.9131 76.3496L74.6099 76.8298L74.433 77.0067H74.256V77.2847L74.1297 77.5375L73.9022 77.7144H73.6495V78.0682H73.7759L74.4582 78.3462H74.8626H75.2417L75.8483 78.144V78.0177H75.9746V78.144V78.4979H75.8483L73.8264 78.8264V79.0539L74.433 79.3066L74.7362 79.5088V79.6351V79.7868V79.9637V80.4692L74.9384 80.9746L75.2164 81.5306L75.3681 82.0361L75.823 81.8592V81.9855H75.6966L75.545 82.213V82.4657H75.2417H75.0901H74.9384V82.5921H74.7615L74.5088 82.4405H74.3824L73.8264 82.7943L73.5484 82.9712L73.3462 83.2239V83.4767V84.0074L73.7759 83.7547L74.2055 83.603H74.6604H75.2164H75.8483L75.5955 83.9569L75.3933 84.336V84.7403V85.2205H75.267L74.7868 85.448L74.3319 85.726L74.155 85.8776L74.0286 86.1051V86.3578V86.6611H74.6351V86.5347L75.1659 86.282L75.4439 86.0798H75.5702V86.2062L75.7724 86.4083L75.9493 86.7116L76.0757 87.0149V87.3182L75.7977 87.5204H75.4944V87.7478H75.4186L75.8988 88.0511L76.1768 88.2027H76.4295V88.4302H75.9493H75.4186L75.2922 88.784L75.0901 89.1126L74.8121 89.34L74.433 89.4664V89.9213V90.1235H74.3066V90.5784H75.1406H75.8735L75.7472 90.7553L75.9241 90.9575V91.4377V91.7157V91.9179L75.7472 92.0695L75.267 92.2212H74.6351L74.9637 92.9288L74.5846 93.2321L74.4582 93.4596V93.687L75.823 94.1419L75.9493 93.9903L76.1263 93.8639L76.5559 93.7123H76.7581H76.9603L77.0866 93.8387V94.0661L76.8339 94.4452L76.7075 94.6474H76.5559L76.7328 94.9254V95.0518L76.5306 95.5825L76.379 95.81L77.3394 98.3373L77.0866 98.6658V99.0449V99.9295L75.6713 100.688H75.545V100.915L75.8735 101.067L76.1515 101.294L76.3537 101.547V101.85V102.154L76.2274 102.406L75.9999 102.583H75.5955L75.2417 103.215L75.0395 103.544V103.847H75.1659H75.5702H75.8988L76.2274 103.72H76.5812V103.847V103.973H76.6823V104.1L76.379 104.251V104.403L76.6317 104.908V105.212H76.4043V105.439L76.6823 105.565L76.8339 105.742V105.944V106.172V106.551V106.677V106.905H76.1768H76.0504L75.8735 107.208V107.461L76.7075 107.916L77.0866 108.27L77.213 108.447V108.623L77.0866 109.483L76.8086 110.216L77.4152 111.479H77.1877L77.5163 111.96L77.7185 112.162H77.8448H77.9459L77.7943 113.021L77.491 113.223V113.4L77.6174 113.602V113.88V114.133H77.491L77.6426 114.285H77.769V114.537V114.815L77.9207 115.498V115.801V116.054V116.18H77.5668V116.306H77.6932V116.433L77.9459 116.837L78.0723 117.014L77.9207 117.242L78.047 118.253L78.2997 118.733H78.0217H77.769L77.5163 118.884H77.2383H77.4657H77.6679L77.9712 119.188L78.2745 119.44H78.4261H78.6536L78.2239 120.199L78.0976 120.578V121.058L76.7834 121.285L76.3537 120.729L76.0757 120.502H75.8988H75.6713L75.823 120.274V119.996L76.2021 119.845H76.3284V119.541V119.112H76.1263L75.5955 119.466L75.3175 119.617H74.989V119.744H74.8626L75.0395 119.971H75.4186V120.477V120.856V121.083H75.7219H75.8988L75.6713 121.487V121.69V121.942H75.545H75.9241H76.3032H77.1372V122.069L76.7075 122.296H76.5054H76.3284H76.2021V122.524H76.6823H77.1877L77.4152 122.397L77.5921 122.246V122.043V121.765H78.1987V122.322V122.599H77.9712H78.4514V122.827V125.961H78.2239V126.618L78.0723 126.871L77.9459 127.224L77.7943 127.477V127.831L78.5019 128.059L78.8052 128.311V128.463V128.665H78.2997V128.893L78.5525 129.069L78.7041 129.221V129.398V129.575V129.752L78.5778 129.903L78.2492 130.232L77.4405 130.662H77.1372L76.9603 130.535H76.8339L76.7075 130.763V131.041H77.0614V131.015H76.2021V131.192V131.369V131.824H76.3284L76.8339 131.673L77.2888 131.521H78.2492H78.9569V131.369L79.3107 133.897L78.8558 134.402L78.7294 134.68V135.009H78.9821V135.261V135.742H79.9425L79.6392 136.55V137.435L79.0327 137.612H78.3503L76.8086 138.067V138.597H77.0361H77.3899H77.6932L78.3756 138.471V138.597H78.2492L78.1228 139.002V139.229H78.2492H78.5019V138.724L79.715 138.977V139.204L79.3612 139.33H79.159H78.9063L79.1843 139.634H79.3612H79.5634V139.987H79.1338H78.9316V140.139H79.5381H79.6645V140.316H79.7909H79.9678V140.594V140.923V141.074L79.7909 141.251V141.377L80.17 142.085V142.616V143.147L80.448 143.778H80.2205H79.8161H79.4876L79.159 143.93H78.8052V144.284H79.3107V144.638H79.6898V144.511H79.8161H80.4732H80.7765H81.1051L81.5094 146.28L81.6864 146.558H81.8127V146.786L81.2314 147.039L80.9787 147.241V147.367V147.569V147.721H81.1556H81.3831H81.8633H82.2676H82.4951H83.0006L82.8489 147.19V148.707L83.1775 148.429L83.5818 148.226L84.4159 147.873L84.7191 147.62H84.8708H85.0224L84.896 147.216V146.836V146.483V146.078H85.4015H85.6542L85.8817 145.952L86.0839 145.75L86.2608 145.446L86.4377 145.168V144.815H86.185H85.5784V144.587H85.7048L85.8564 144.41V143.804V143.576H86.3619H86.5893L86.7157 143.172V142.843V142.313L86.5388 141.757L86.3872 141.099L86.6652 140.923L86.9684 140.796L86.8168 140.417V139.987V139.078L87.5245 137.511L88.2068 136.803L88.4596 136.247L88.6112 135.994V135.868H88.4848H88.0805H87.6255H87.4992V135.11V134.604V134.377L87.7772 134.048V133.366V133.012V131.015L88.1057 130.156H87.9794V130.03H88.2321V129.853H88.3585V129.625H88.2321H87.9288H87.7519H87.9035L87.7772 129.171V128.488L87.9541 128.16L88.2574 127.806L88.4343 127.604H88.5607V127.376H88.4343L88.2068 127.25H88.0805H87.9288V127.123L88.2574 126.972L88.5101 126.82L88.7376 126.618V126.492L89.3441 125.961H89.1167H88.409L88.8387 125.733L89.0156 125.531V125.405L88.687 125.026L88.5354 124.824L89.0914 124.419L89.3694 124.192L89.5969 123.939V123.762V123.61V123.383V123.156V122.953L91.2902 121.235V120.982H91.0374L90.254 121.235L89.9001 121.462V121.639V121.816H89.7738V121.108V120.755V120.375L90.7341 119.339L91.1385 118.707V118.429L90.9363 118.253L90.6836 118.101L90.4561 117.949V117.823V117.671L90.5825 117.444V117.216V115.852V115.649V115.371V115.119H90.4561V114.891L90.9111 114.436L91.1385 114.209H91.2649H90.9616H90.633V114.082H90.7594L90.5825 113.324H90.7341V113.072V112.92L90.9363 112.541L91.1638 112.111V111.909V111.682H91.3154L91.1385 111.429L91.2649 110.797V110.468V110.115V110.241V110.367H91.3912L91.5682 110.039L91.8209 109.685L92.0483 109.382V109.23V109.104L91.7956 108.952V108.826V108.674H91.644L91.2143 108.826H91.0121L91.5934 108.27L91.8462 107.941V107.815L92.0989 107.941H92.2253H92.3516L92.478 107.739L92.6549 107.562L93.1351 107.284L93.5395 107.031L93.6658 106.905V106.728H93.1098H92.7813H92.4527H91.7703V106.248L91.9473 105.919L92.0736 105.793H92.2V105.565L91.7956 105.414H91.644H92.5033V105.186L92.3516 104.731H92.6549H92.8065H93.1098V104.352V104.175V103.948H92.5538H92.3769H92.2H92.0736H92.2253L91.922 103.266V102.861H92.0736H92.2253L93.1098 101.699L93.2867 101.547H93.4131L92.8318 101.724V101.496H92.9582V100.688H93.0845V100.536L92.0736 100.865V100.612L92.2 100.359V100.233H92.0736H92.4274H92.8065H93.5395V100.106H93.6658L93.5395 99.9548V99.6768V99.4493L94.1207 98.1604L94.3482 97.9835H94.5757V97.8065L94.2977 97.6044H94.0197H93.1098H92.478V97.478L92.6296 97.3264L92.478 96.8714L92.7813 96.5682L92.9835 96.2396V95.81V95.3803H92.756V94.8749H93.1098V94.7485L93.9691 94.9001L94.8031 94.6979H95.6371H95.8646H96.4711H96.6228V94.3947L94.5504 94.2178V93.6365H94.6768L94.4493 92.6003L94.1713 92.7772H93.9944H93.868L94.0197 92.3475L94.3735 91.9937L94.5504 91.8168V91.5893V91.4124H94.3735H93.9186V90.3257L94.3482 89.8202L94.5757 89.5422V89.2895L93.59 89.0368V88.9104L93.8427 88.7082H94.1713H94.2977V88.4807L94.5251 88.3291V88.0511H94.6515V88.1775L94.8284 88.784V88.9104H94.98H95.1569L95.5613 88.6071L95.7635 88.4049H95.991H96.1173H96.4206H96.547V88.0258V87.8742H95.3844H95.1317H95.4349L95.1064 87.5962L94.6262 87.2676L94.0197 86.9391L95.258 86.1809L95.6119 85.7007L95.7888 85.448H95.9151H96.1426H96.4206V85.1952L97.2799 85.3722H98.1644V83.5019L98.3919 83.3503V83.2239L97.5832 82.8701H97.1535H96.6481V82.5163H96.9766V82.213V80.6461L97.659 80.3428V80.4692H97.5326V80.5955L97.9623 80.7724H98.1897H98.3161V80.4186H98.4425H98.9226V80.7219V80.8988V81.0252H99.1248H99.2512V81.1515L99.3776 80.7977V80.3175L99.5292 79.8879V79.7362L99.2259 79.4077L99.0743 79.2308V79.0791H98.5688H98.3161H98.1139V78.9022L98.2403 78.7253H98.3919L98.7963 78.9275H99.0237H99.2512V78.7253H100.692V78.5989L100.894 78.1188L101.096 77.9166H101.324V77.4111L101.602 77.1078V76.9815H101.829L101.602 76.5013V75.9453H101.703L101.399 75.7684H101.222H101.45H101.829V76.2485L101.981 76.7287L102.183 77.1584L102.309 77.6133L102.789 77.4617L103.219 75.4145L103.421 75.1618H103.548L103.75 75.364H104.255V75.1365L104.483 74.9343L104.862 74.7574H105.241H105.393L105.569 75.0354V75.3387L105.14 75.5914L104.761 75.8694L104.331 76.1222H103.826H103.699V76.2485H103.447L103.674 76.4507L103.927 76.6276H104.255H104.584V76.5013H106.302L106.1 75.8189H106.277L106.606 76.0464L106.757 76.198V76.3749L106.606 77.0067V77.3353V77.9418H106.858L107.339 77.7902H107.667L107.414 78.0429H107.263H107.111V78.2198H107.288V78.5737H107.768H108.223H109.133V78.7H108.906H108.779V78.8264L109.158 79.0033L109.335 79.2308L109.512 79.8121V80.0901L109.664 80.3175L109.942 80.4692H110.422H111.079V80.6966L110.599 80.8483V81.101L110.852 81.2274V81.4043L110.801 82.7437V82.9965V83.1987L111.003 83.3503L111.559 83.5525H112.09V83.6788L112.393 84.3612H112.267H111.888L111.711 84.0832V83.7799L111.433 83.9063H111.104L111.281 84.4876H111.104L110.953 84.614V84.7909V84.9931V85.5238V85.726L111.079 85.9029L111.231 86.0293H111.408H111.584H111.964L112.317 85.9029H112.697V86.1303L111.888 86.7622L111.433 87.1413L111.306 87.3182V87.4445H111.003H110.801L109.588 87.5709V87.4445L109.462 87.7226V87.8995V88.0511H109.133H108.981L108.83 88.3291V88.6577L108.653 88.9104H108.501V89.062V89.1884H108.274V89.3148L107.895 89.6939H107.743H107.591H107.238L106.96 89.4917V89.3653V89.5675L107.086 89.34V89.2137V89.0873H106.783H106.403H106.05H105.746L105.569 89.2389L105.418 89.4664V89.6939V89.9466H106.075H106.378L105.974 90.073L105.746 90.5784V90.8564H105.064H104.432V90.9828H104.306V89.9213L104.912 89.7444L104.559 89.34L104.407 89.1126V88.8598L104.685 88.6324V88.4807V88.3291H104.811L104.963 88.4807H105.165H105.418H105.746H105.974H106.176L106.302 88.3038V88.0764L105.746 88.0511H105.418L105.115 88.2027L104.584 88.3291L104.306 88.0511H103.472H103.219H103.093V87.9247H103.219V87.4951V87.3687L103.725 86.8633L104.053 86.6358H104.356V86.1556H103.826H103.194L102.587 86.3325L102.335 86.4589L102.107 86.6358L101.652 87.2929V87.4193H101.526L101.728 87.6215L101.147 88.4807L100.818 88.9609V89.1631V89.2895L101.779 89.062V89.5675V89.8708L100.742 90.3257V90.5784H100.869H101.096H101.222H100.692H100.919V90.9322L100.717 91.2608L100.161 91.8421L99.4534 92.2717L98.6699 92.4739H98.7963L99.6808 93.5354L100.136 94.1672L100.262 94.4452V94.6979L100.009 95.0518L99.8577 95.4814L99.6303 96.4418V96.8967L99.4534 97.3011L99.1501 97.6044H98.9479H98.7205H98.493H98.1644V98.1604H98.771H98.9985L99.1501 98.2867H99.2765V98.4636V98.868L99.049 100.789H98.5435H98.0128H97.4821H96.9766V100.915V101.067H96.8502V101.193L97.8106 101.471H98.2908H98.8468L98.3161 103.67L98.5941 103.822V103.948L97.9875 105.338L97.7601 105.565L97.4315 105.742L96.4711 105.919V106.399H95.6371V106.703V106.981V107.208L95.7635 107.41L95.9657 107.562H96.1931H96.4711H96.7997V107.208L97.0777 106.779L97.4063 106.425H97.5832H97.7601H97.8864H98.1644V107.006V107.537L97.9875 108.067L97.8612 108.598V109.887L97.6843 110.645H97.0524H96.7239V110.898H96.8502H97.2293H97.5832H97.7348V111.024V111.176V111.505L97.5073 111.682L97.2799 111.858V112.01L97.5832 112.136H97.9117V113.324L97.0272 114.436L96.6228 115.093V115.296L96.9766 115.574H97.1788H97.4063V115.852V116.13V116.332V116.559L97.5326 116.812H97.4063L96.9008 117.317L96.6481 117.595V117.722V117.848H96.9008L97.0777 118.025V118.278V118.556V119.137L96.8502 119.668L96.269 120.249L95.8646 120.83L95.6119 121.083H95.4602H95.2833L95.7382 121.235H95.9657H96.1931V120.931V120.78L96.3195 120.628L96.1679 121.033L95.9657 121.437L95.7888 121.841V122.246L94.6009 122.473H94.4746L94.7526 122.953V123.105H94.8789H95.2328H95.7888V123.307L95.6371 124.065V124.495L94.6768 124.672L93.4889 125.051L94.146 125.43H95.0559H95.1822V125.658L94.7273 125.834V126.062H95.6877L95.5108 126.618V126.896H95.3844H95.258L95.0306 127.048V127.199V127.073H95.4097V127.224L94.98 129.069L94.7273 130.055L94.5251 130.384H94.3987H94.9042V130.712L94.4998 131.041L94.1966 131.42L93.9944 131.849V132.355L93.1604 132.683H93.034L93.2109 132.835L93.4889 133.012L93.1351 133.164H92.5791L91.5934 133.315L91.8714 133.871L92.0989 134.099H92.2253H92.4022L92.5285 133.922L92.9329 134.099H93.1604H93.3878V134.326H92.8571H92.5791H92.3516V134.453L92.8571 134.731L93.034 134.933V135.211V135.388L91.7956 135.034L91.9725 135.59H91.7956L91.644 135.716V135.868V136.045H91.922H92.0483H92.2758V136.298H92.1494L91.088 137.536L90.4561 138.218L90.254 138.395L89.9254 138.547L89.6474 138.774L89.4452 139.078V139.255V139.431H89.5716H90.8858V139.305H90.7341H90.9616L91.366 139.608L91.5429 139.76V139.987L90.81 140.392L90.5572 140.72L90.2792 141.302L90.0265 141.883V142.287V146.179L89.7232 146.483L89.3188 146.786L88.965 147.14V147.291V147.494V147.797L89.0914 148.075V148.353V148.656H90.077L89.7485 148.909L89.5716 149.06H89.1167H88.7376L88.409 149.187H88.0299H89.0156V149.44L88.6617 149.591L88.2574 149.869L87.9541 150.198L87.7772 150.526L87.9541 151.082L86.9179 151.537L87.0695 151.765L87.3475 151.992L87.7014 152.295H87.2212V152.523H87.8277L87.7014 152.725V152.927V153.382L88.131 153.61L88.3079 153.736H88.1816H88.0046L87.575 153.888L87.1959 154.039H87.0695H86.9432V154.267L87.1959 154.393L86.4377 154.899L86.0081 155.177H85.8817H85.5279L85.7301 155.379L85.4015 155.632L84.9971 155.91L84.618 156.213V156.39V158.816L84.7697 158.993V159.144V159.473V159.827V160.231V160.358L84.2389 160.231H83.2533L83.4302 160.383H83.5566L82.5962 161.091L82.0654 161.444H81.9138L81.56 161.596L81.3831 161.015H81.2567H81.004H80.8776L80.7007 161.394L80.448 161.722L80.0941 161.975H79.6392V162.304V162.43H79.5129H79.3865V162.203L79.5887 161.823L79.7403 161.647H79.9425L79.7403 161.369L80.17 160.939V160.711V160.383L79.9678 160.535V160.661L79.1085 160.509L78.8052 160.661L78.3503 160.914L77.9459 161.343H77.8196L78.3503 160.282L78.7294 159.7L78.881 159.498V159.271V159.144H78.6536L77.9712 159.726L77.5668 159.953H77.4405H76.7075L76.8592 159.776V159.574V158.816V158.614L77.0614 158.235L77.3141 157.881V157.679V157.451L76.379 157.78H74.9384V157.527L75.1912 157.072L75.3681 156.87H75.4186V156.617H75.1153H74.9637V155.96V155.429L75.1406 154.57H75.0142L74.6099 154.343L74.433 154.191L73.978 153.761V153.559V153.332V152.776V152.321V152.119H74.2055L74.9637 151.916H75.3681H75.4944V152.043H75.7472L75.6208 151.815V151.461V151.108L75.4692 150.83L75.3428 150.627H75.1912H75.0142H74.6604L74.2813 150.83L73.9275 151.032L73.5989 151.158H73.422H73.2957L73.1693 150.956L73.0429 150.476V150.122L73.2198 149.819L73.4726 149.591L74.0033 149.313H74.1802H74.3571H74.6099V149.136V148.909H72.7397V148.656V148.151L72.8913 146.634V146.179V145.75L73.1946 145.244L73.3968 145.017H73.5231H73.7H73.5737H73.2704H73.144H72.8913L73.0682 144.663V144.511H72.7902H72.4617V144.284L72.7397 144.006L72.8913 143.652V143.248V141.883L73.1946 141.731V141.58L72.588 140.316L72.7649 139.886V139.684L72.9166 139.482L74.3319 138.875H74.5088V138.724H74.6604H75.0142V138.345H74.6351H73.9022V138.471L72.5122 139.078V138.471V138.168V137.864L72.6638 137.688L72.866 137.511L73.0177 137.334V137.106V136.904L72.7649 136.677L72.5122 136.5V136.348V135.868V135.413V133.543V133.037V132.532L73.0935 131.673L73.2198 131.319V131.167L73.4473 130.99V130.813V130.636H73.1946L73.0177 130.864L72.7649 131.041H72.4869H72.1584V130.384L72.0067 129.752V129.423V129.297H72.1584V129.044L71.8045 128.766L71.5771 128.412V127.957V127.502V125.658L71.3244 125.455L71.5265 124.95V124.697V123.56L71.2485 122.271V121.917V121.589L71.4002 121.361H71.5265H71.6782V120.906L71.3496 120.527V120.325V119.794V119.314V118.834V118.303V118.101L71.198 117.949L71.0464 117.798V117.621H71.1727L71.5265 116.281H71.4002V116.155H71.0464L70.7936 115.978L70.642 115.725V115.371L70.7936 115.245L71.0716 115.018L71.198 114.866V114.714H70.9705H71.0969V113.552V113.375H70.9705L70.6925 113.046L70.4903 112.895H70.3134V112.667L71.5518 111.58L71.0464 111.429H70.7684H70.364V111.024V110.671V110.342V109.988H70.6673L71.5013 109.66L72.0826 109.483V108.27V108.143H71.2738H70.8442H70.4903L70.364 107.992V107.789V107.638L70.5662 107.436L70.3893 107.031V106.829L70.7431 105.616L70.0102 105.439V105.313L70.1871 105.085L70.364 104.807V104.479V104.201V104.074H69.8838V103.897H70.4903L70.2376 103.569L70.1112 103.392V103.24V103.114L70.6167 102.558V102.33V102.128V101.977H70.4145H70.086H70.364V101.724H70.6167V101.598H70.364H70.4903V101.774H70.6673V101.648V101.193H70.1871V100.713L70.364 100.283V100.081L70.5156 99.9042L70.9705 99.5757L71.1727 99.3987H71.2991H71.4255V99.1713H69.7322V99.0449H69.8585L70.364 96.8967L70.5914 96.6692H70.8189V96.4165H70.4145H70.2629L71.0716 96.088V95.6078H70.9453L70.4398 95.8605H70.1365H70.0102V95.5572L70.2123 95.2287L70.7178 94.4958L71.198 93.8639L71.3496 93.6365V93.4596V93.0046L70.9958 93.1563H70.7431H70.4903H70.2376L69.9849 93.0046V92.8783L70.2376 92.7519H70.5662V91.8421H70.7178H70.8442H70.6925L70.364 91.5388H70.1365H69.9343L71.2485 89.9719V89.7444H71.1222L70.5409 89.9971H70.2123H69.9596V89.8708V89.4917V89.062L69.8332 88.3291L70.1871 88.1775V88.0511L69.9343 87.9247L69.7827 87.7478V87.5456V87.3182V87.116L69.9091 86.9138L70.0607 86.7874H70.2376V86.5347V86.282H69.7069L69.5047 86.1303L69.3278 85.9282L69.1509 85.7512V84.7909L70.7936 83.3503L70.2882 82.769L69.808 82.9965L69.5805 83.1481V82.3394L69.8332 81.3284V80.7724V80.4692V79.6351V79.2055V78.8011L69.6311 78.4726L69.4036 78.2451L68.8981 77.7902L68.696 76.8551L69.6058 76.4002H69.1003L68.696 76.0716H68.4432H68.2158V75.9453V75.4145H68.5949L68.3927 75.1365V75.0102V74.8332L68.5949 74.6816H68.7212H68.8476V74.4036V74.252L69.2014 73.9992L69.5805 73.7212V73.5696V73.3421L68.696 73.7465L68.1652 73.8729H68.0894H67.8367V73.3927L68.1652 73.0894H68.3421V72.7356V72.5587L68.5443 71.9268V71.2192L68.696 71.0423V70.8401V70.3599H68.2158H67.7356H67.5334L67.8367 69.8039L67.7103 69.6017V69.3742L67.8367 69.1215V68.8688H67.3312L67.4828 68.6413L67.2554 68.4139H67.1037H66.9521V67.8326H68.1399L67.963 67.4788V67.3271V67.1502L67.8367 66.6195L67.4576 66.4173H67.0279H66.5225H66.3961V66.2909L66.5477 65.836V65.5075L66.6741 65.2042L67.1037 64.8251L67.2554 64.6482H67.3817V64.2943L67.2048 64.1427H67.0785L66.6236 64.3196V64.0163V63.89V63.7636H66.2697H65.7895H65.3599V63.612H65.6379L65.3094 62.778L64.8544 62.323L64.2984 61.9945H64.0204H63.7424V61.767V61.5901V61.2616L63.0348 60.7308L62.782 60.5286H62.5546H62.3271L62.782 61.2616H61.6953V62.0956H61.2909H60.8865L60.1536 62.323H59.3196V62.7021V63.0812V63.2581H59.446H59.5976H59.8503L60.5075 62.8032L60.8865 62.6263H61.2404V62.7527H61.114L60.836 62.879H60.5075H60.2547V63.334L60.1284 63.6372L59.9767 63.8647L59.7745 64.0163L59.3449 64.2943L59.1427 64.4965L58.9911 64.7745L58.8647 66.0635L59.0922 66.5689V67.1755H59.5976L59.8503 67.3018H59.9767H59.6229H58.056L57.8538 68.1864V68.6666V68.8688H58.1065H58.3592H58.612H58.8647V70.3599L58.157 70.9665L57.2978 71.3961L57.1461 71.5983V71.8005L56.9692 72.2554L56.6912 72.6345L56.4385 72.9125L56.2868 73.2916V73.8223L57.5758 73.519H58.2581H58.4856H58.3087L57.7274 73.8981L57.3483 74.2772L57.045 74.6311L56.9187 74.7574V75.1113V75.2629L57.1714 75.5156V75.642V75.8442L56.6912 76.0716H56.1099V76.198H56.2616V76.9056V77.5375L56.4385 78.3462H56.1857L55.9077 78.4979L55.7308 78.7V78.8264V78.9528H56.0341H56.1857V79.0791V79.2055L55.5792 79.7868V80.0395V80.3933L55.2001 81.1263H55.0484L55.6045 81.7075L55.9583 81.9097H56.3374V82.0361H56.0847L55.5286 82.9965L55.2001 83.4008L54.9979 83.5272H54.7957L54.9726 84.3612L55.1748 84.7403H55.3265H55.5286V85.0941L55.2001 85.5238L54.821 85.8523L54.4672 86.1556L54.265 86.282L54.7704 86.7369L55.0484 86.9896L55.1748 87.1413L55.4275 87.4193V87.5456L54.3408 88.6829L54.1639 88.9862V89.34V89.7191V90.174V90.351L53.9364 90.7553V90.9575V91.2102H54.1892L54.543 91.0586V91.185H54.6694V91.4124L54.3913 91.5893L54.1639 91.7915L54.0123 92.019V92.2464V92.4486L54.1386 92.6255H54.3661H54.7704V92.7519L54.3408 93.1057L54.2144 93.2321L54.4419 93.409V93.5354L54.1133 93.687L53.8101 93.9145L53.5321 94.1419H53.2793V94.0156V93.8639H53.3299L53.0266 94.3694V94.6221V94.8496L53.4815 94.6979V95.1781V95.633L52.7486 95.4561V95.633H52.6728V95.9869H53.0266H53.431L53.7848 96.1638V96.2902V96.4671L53.4815 96.7198L53.3046 97.0231L53.0013 97.7054L52.7486 97.9582L52.6728 98.1604L52.3948 98.3878V98.5647V98.8933L52.5717 99.0197H52.7739L52.9508 99.2218V99.3482L52.6728 100.031L52.319 100.359V100.587V100.814V101.042V101.294V101.168H52.6728V101.016H52.9002V101.193H53.0519V101.32H52.7991H52.0915V101.446L52.3695 102.255V102.684V103.089L51.8135 103.594L51.5608 103.948L51.3838 104.403V104.883V105.742L52.0915 105.944L52.3695 106.197H52.6728V106.45L52.4453 106.677V106.804V107.031H52.5717V107.158L52.2431 107.891L51.03 108.977V109.154V109.281H51.9904V109.407L51.3838 110.822L51.0553 112.339H51.7629L51.586 112.49V112.718L51.7629 112.92V113.173L51.4849 113.451V113.628V113.804H51.2322V113.678L51.0047 113.451L50.7267 113.628L50.474 113.931L50.1455 114.512V114.866V114.74H50.2718H51.2828H52.0662L52.597 115.599L52.9761 115.978L53.1277 116.18V116.408H52.6475L52.6728 116.231H52.3695H51.5355L51.7882 116.584L52.142 116.938L52.6728 117.115H52.9002H53.1024V117.722L51.8893 117.595V117.823H51.03V117.949L51.2828 118.151V118.278L52.3442 117.823V117.949H52.6728L52.0157 118.632L51.864 118.96V119.466L50.1455 120.072V120.375V120.502V120.906H50.5498H50.752H51.0047L50.8531 121.159V120.906H51.3333L51.9904 120.527H52.1673H52.3442H52.4706V120.729H52.2937V120.881L51.5608 121.108L51.2828 121.361V121.513V121.69L51.4344 121.841V121.968L50.6509 121.816H50.2718H49.918H50.1455V121.968H49.9685L49.8169 122.094L49.5136 121.968H49.2104V122.296L49.3873 122.549L49.5895 122.751L49.8422 122.878H50.4235H51.1311H51.3333H51.6113V123.434L51.1817 123.762L50.9289 123.914H50.7015H51.1817H51.2322L50.9289 124.192V124.343L50.1455 125.076V125.304L51.1311 125.455V125.834L50.6762 125.986V126.39L50.474 126.694L50.2718 126.972L50.1202 127.3V128.539H50.4235V128.665L50.0191 128.867L50.1455 129.727L49.8675 130.156V130.384V130.586H50.1455V130.813L48.8818 131.521V131.951L49.0082 132.127L49.4631 131.951H50.1455V131.723V131.521V131.395H50.3729V132.279V132.734V133.138V133.29L50.2213 133.442L49.5389 133.543L49.1598 133.846V134.023V134.2H50.0191L50.196 134.655H50.1455V134.781L49.4631 135.337L49.2104 135.666V135.868V136.07L49.362 136.651L50.196 136.449H50.1455V137.03L49.9433 137.536L49.6147 137.966L49.1598 138.269L48.6796 138.597H48.4774L48.3005 138.8L47.6181 140.872L46.8599 142.843L46.7336 142.995H46.5567L46.2281 143.121H45.849L45.3688 143.652H45.0908V144.006L44.7876 144.537V144.714V144.84L44.9392 145.067L45.0908 145.421V145.699V146.508L43.5492 146.786L43.7008 146.584V146.761V146.988L42.8415 146.836V147.14V147.291H42.6899H42.7657H42.4624L42.1591 147.443H41.8559L42.0328 147.595H42.235H42.7152V148.707H42.3108L42.1339 148.858H41.0977H40.8449V148.707L40.9966 148.479L40.5417 147.999L40.0362 147.696H39.8846H39.6066V147.468H39.834V147.19V146.988V146.811H40.0109L40.0362 146.483V146.356L41.0471 145.27L41.5779 144.663L41.8306 144.461H42.0328V144.208H41.1735H40.8702V144.031V143.804V143.526V143.298V143.45V143.323V142.843L41.0724 142.616H41.224V142.388L40.6933 142.136L40.4406 141.984V141.858L40.5922 141.681V141.428H40.2131H40.9966L40.668 142.414L40.3395 142.869L40.1626 143.02L40.0362 142.136L40.3395 142.591L40.5417 142.818H40.5164L40.0362 142.944L39.5307 142.666L39.1264 142.237L39 142.009V141.731L39.4549 141.327L39.7076 141.15L40.0362 141.125L39.7835 140.796V140.619L40.0362 139.709L40.2384 139.28V139.153H39.7582V139.027L39.9098 138.37V137.662L40.0362 136.677L40.2131 136.373L40.5417 136.07V135.944L40.2637 135.742L40.668 134.983L40.8197 134.579V133.796H41.224H41.679V133.442H41.9317L42.0833 133.77V133.922V134.326V134.528L41.7295 135.009L41.2746 135.388H41.0471H40.8449V136.07L41.1482 136.247L41.2999 136.449V136.702V136.98L41.0977 137.536L40.8955 138.092V138.774V139.128V139.255H40.7438L40.9208 139.608V139.76H41.2999V140.493H41.5273L41.9317 140.089L42.1591 139.912H42.4119V139.457L42.5635 138.597L42.8668 138.142L43.069 137.991H43.2712V137.864L43.5239 137.991H43.6503L44.3579 136.601H43.6503H43.347H43.1701H43.0437H43.2712L43.1448 136.095V135.868H43.2964V135.413V134.983V134.857L42.513 132.911L41.9317 133.088L42.1086 133.442V133.669H41.8559H40.9966V133.442L41.1735 133.138V132.987L40.9713 132.658V132.481L41.4515 131.319L41.8559 130.737L42.5635 129.575H42.7404V129.322L42.4624 129.069V128.791V128.488V128.185L42.5635 127.528V127.199V126.871L42.9173 126.719L42.7152 126.39V126.214L42.9426 125.961L43.1953 125.481L43.4986 125.026L43.7514 123.61V123.181L43.5744 122.903L43.8019 122.473V122.246V121.765V121.311V121.437L43.9788 121.589H44.181V120.653V120.148V119.946L44.7117 119.162V118.935V118.379L44.5601 118.151V118L44.9897 117.09V116.686V115.852H45.0908V115.725V115.548H45.3183H45.4699L45.2425 115.144H45.0656H45.0908V114.992V114.866V114.588V114.285V113.324L45.2677 113.476H45.4194H45.571H45.6974V113.324V112.617V112.996L45.3688 112.667V112.516L45.571 112.162V111.985V111.783H45.3183H45.1666V111.403V111.252L45.4952 110.569L45.7479 110.241H45.9248V110.013L45.5457 109.811L45.293 109.584L45.1666 109.306V108.977V107.562V106.804V106.45L45.6974 105.742L45.9248 105.54H46.1776H46.7589V105.414V105.161V104.908L46.3292 104.731L46.0007 104.504L45.6974 104.226L45.3436 103.973V104.1L45.1666 103.645L46.0007 103.316L45.849 102.962V102.811H45.8743H46.0007V102.634V102.406H46.0765H45.8238V102.154V101.951H45.9754H46.3039L46.1523 102.128H46.5567H46.7841L46.9863 101.774L47.2643 100.688V100.233V100.106L47.0116 99.98V99.8537L47.2896 99.6009L47.5676 99.2218V98.868V98.7416H47.138H46.5061V98.2615V98.1351H47.239L47.0369 97.2V96.6945V96.5429V96.2902H46.4303V96.0374V95.7089V95.4309V94.8496L46.5567 94.6727V94.4958V94.3441H46.7083H46.8599H47.2643H47.4412L47.5929 94.2178L47.416 94.0914H47.6181V93.1057H48.0731L48.3511 92.9794L48.1742 92.7772L47.972 92.6508H47.7445H47.4918H46.9358H46.3798L46.6325 92.2212L47.0621 91.6399L47.5423 91.0839L48.0983 90.5784H48.2752H49.1093H49.4378H49.7158L49.9685 90.7553L50.196 91.0081L50.5751 91.4883V91.6652H50.8278V91.463V90.9828H51.1058H51.2322V90.7553L50.8531 90.6037L50.4993 90.351L50.1455 90.1235L49.7916 89.9971L48.4016 90.3762H46.4809L47.1632 89.9466H47.5423H47.9972V89.7191L47.7445 89.5928V89.4664L48.7302 88.3038V88.0764L48.1236 87.7478L47.8203 87.6215H47.6181L47.3149 86.9391H47.6181L47.9972 85.5238V85.2205V85.0941L47.6181 85.17V84.2349L48.1236 84.614H48.4016H48.7554V84.1085V83.881V84.0074V83.7547V83.881V84.0074V83.2239V82.769V82.6174L48.9829 82.7437H49.2609L49.5136 82.3394L49.6905 82.1877H49.918L49.7664 82.0614L49.5642 81.9097L50.1455 81.6065L49.5642 81.7834V81.5559L49.8422 81.2021L50.1455 80.9746H50.3476V80.4692H49.9685L49.7664 80.3175L49.5136 79.9132L49.3114 79.5088V79.3319H49.1345H48.9323H48.1742H47.6434V79.1044H47.7698V78.9528L47.972 78.7759H48.2247H48.5027L48.0225 78.9528V79.0791V79.2055H48.8565L49.3114 78.5231L49.4378 78.144V77.7144H50.1455L50.4235 78.0177H50.6004H50.7773V77.2847V76.9562L50.6257 76.6024V76.4255V75.4145H50.8278H50.5751V75.5662H50.3982L49.9433 75.7178H49.362H49.1598L49.0082 75.5914L49.3367 75.3387L49.6653 75.0607V74.9091L50.0696 75.1365H50.2718H50.5498V75.2629H50.7015L50.5246 74.8585V74.6563L50.8026 74.4036L51.0553 74.1761V73.8476V73.6201V73.4685H51.2069V73.2158H50.9542L50.4487 73.9234L50.1202 74.1761L49.7158 74.3025L49.5136 73.8729L49.362 73.696V72.8872H49.4884L49.7664 72.685V72.1796V71.5983H50.1455L50.4235 71.4719L50.7015 71.2697L50.9795 71.0928H51.2828L50.8278 70.3599L50.6004 70.2335H50.3224V70.0061V69.8544H50.5751L50.752 70.0566V70.3599H50.9037V70.5874L50.7267 71.3203H51.6618L52.142 70.3599L52.2937 70.1072V69.8544L51.4344 69.3742L51.03 69.071H51.1817L51.3838 68.8941L51.9651 68.7171L52.1926 68.9193H52.6728H53.0519V68.5908V68.4391V68.2875L53.2541 67.9842L53.5321 67.6557L53.8606 67.3018L54.1133 66.9227H54.2397L54.0375 66.5689L53.9112 66.1393H52.6728H52.42H52.1926L52.0409 66.0129V65.8107L52.2179 65.558L52.5211 65.6844H52.8497L53.1277 65.3811V65.2294V65.0273V64.9009L52.8244 64.7493L53.4057 64.9009H53.6837L53.9617 64.6734L54.1639 64.4207V64.1427V63.7889V63.612V63.3592L54.3661 63.1065V62.8032V62.4999V62.1967L55.2001 61.1099L55.4528 60.933L55.7056 60.7814L55.933 60.6045L56.4637 59.7199L57.0956 58.9364H57.2219L56.9439 58.8101H56.7165H56.4385L56.1857 58.9617L55.6297 59.3408L55.3265 59.4924H55.0232V59.0375H55.1495L55.2001 58.5068L55.3517 58.2541L55.5792 58.4815L55.933 58.6332H56.0847H56.211V58.1782H55.9077H55.5792V57.7233H55.8066L56.5143 57.42H56.6407H57.0703L57.6769 56.0553V55.3729V55.0191H57.8032L58.3087 54.4884L58.5867 54.2356V54.084H58.7131H59.0669H59.2185V52.6687H59.0922H58.8142H58.4856H58.3592L58.8647 51.9863L59.1932 51.6578H59.3449H59.4713L59.2691 51.4556V50.9248L60.5075 50.1414L60.836 49.737L61.0129 49.6106H61.2151L61.0129 49.4085H61.2151H61.4173H61.8469L62.5799 48.9283L62.8579 48.5744V48.347V47.6141H62.782H63.0095L63.1864 47.4119V47.235V46.3251H63.4391H63.6919H63.9446L63.793 44.7835L64.3742 44.3791M70.642 47.4119H70.9958V47.6141L70.7178 47.2855M72.6891 51.5061H72.5375ZM53.709 62.2472L53.9364 62.4241H54.0628H54.2144L53.8353 62.7274L53.6332 62.879H53.431L53.4057 62.778L53.709 62.3483M63.2622 62.0198H63.4897V61.9187M49.5389 65.6085H49.8927V65.7855L49.6147 65.4569M51.1311 66.1393H52.0915H52.2431H52.42H52.5717H52.7486H52.6728L51.8388 66.8975L51.3333 67.3018L51.1311 67.4282H50.9795V66.4173V65.9371L51.1817 65.5075M60.0778 65.9876L59.7493 66.4173L59.5471 66.5942H59.2943L59.5723 66.2151L59.9514 65.9371M74.2055 65.28L74.3571 65.4316V65.6338H74.2055V65.4064M50.474 70.3599H50.752V70.4863L50.474 70.3599ZM71.9056 68.6666H72.2089H72.0826V68.793L71.9562 68.6666M67.9883 70.5874V70.8401V70.5368M102.613 73.5443V73.696L102.486 73.5696M100.186 74.9849H100.869L101.172 75.1365H101.298V75.2629H100.591H100.237L100.136 75.4145V75.2882H100.49V75.1618H100.363V74.9343M56.767 79.2055V79.3319H56.6154V79.2055M56.2868 79.6099H56.5396H56.4132M48.6796 81.0504L49.0587 81.1768H49.2356V81.3032H47.9214V81.0757V81.2274L48.6291 81.0504M99.7061 76.198H99.9588L99.4787 76.5518L99.2006 76.7035H98.9226V76.476H99.049L99.7314 76.0464M47.4665 82.2383H47.6181L47.8961 82.7437L48.0225 82.9459L47.6434 83.1987H47.4412H47.2138H46.8347L47.1127 82.9965H47.416V82.7185V82.491V82.2383M46.7083 83.6283H46.5567ZM108.274 77.9418H109.133L108.855 78.1693L108.501 78.3462L107.743 78.5484V78.422H107.869L108.097 78.2198H108.274V77.9418ZM127.633 77.2847H128.72V77.4111V77.9924H128.492L128.341 78.1946L128.189 78.3968L128.922 78.5484L129.528 78.2451L129.832 78.0429L130.135 78.1693H130.287H130.464L130.843 77.9924V77.8408V77.6386V77.8155H131.247V78.1188V78.2451H131.095L130.489 78.6495L130.211 78.9022V79.0539H130.944V80.0142L132.738 80.1912L133.041 80.3681H133.218H133.395V80.7219V80.8988L133.041 81.0504V81.1768V81.3032L134.128 81.4548L134.659 81.657L134.836 81.8086V81.9603H134.533H134.204L134.002 82.5163V82.6932L133.8 82.8448L133.648 83.0217V82.7943H133.547L132.864 83.2492L132.536 83.5019L132.738 83.8558L132.991 84.1085H133.168H133.345H133.572L133.774 83.9821L133.951 83.8558H134.179H135.114L135.341 83.7294H135.594V83.8558H135.72L135.013 84.159L135.341 84.5129L135.72 84.7403H136.175H136.655H136.858V84.892V85.8018L137.363 86.6358V87.5709L137.616 87.7731H137.767H137.894V88.0258L136.782 87.7731L137.313 88.3038L137.515 88.6324V89.0115L137.793 88.8851H137.97L138.147 89.4664H137.869L137.616 89.6433L137.211 90.1235L136.858 90.6037L136.706 90.7806H136.58V90.907V91.0586V91.185H136.226V91.4124L137.211 91.1597L137.666 90.907V90.7301V90.5531H137.894V91.2861V91.6146V91.9179L137.692 92.1706L137.439 92.3728L137.136 92.5245H136.757V92.7519L137.793 93.0299H138.349H138.854V93.5607V94.0661L138.399 94.243H138.273V94.3694V94.5969L138.425 94.7485L138.879 94.9759H139.385H139.916L140.775 94.5463L140.952 94.3694L141.104 94.1672L141.28 93.965V93.7881L141.104 93.2068L141.483 92.9541L141.685 92.8277H141.912L142.468 93.1057L142.342 92.853L142.569 92.3981L142.721 92.1959V92.3223H143.075L143.454 90.7806L143.656 90.2499V89.9719V89.618L143.959 89.2389L144.136 89.062H144.313V88.8346V88.0511V87.6973L144.465 87.4445H144.642H144.844H145.046L145.501 87.6973H145.703H146.183V87.5709L146.36 86.7369L144.869 86.3831V86.0798L145.046 85.5238L145.905 84.5381L146.386 84.0579L146.613 83.8558H146.866H147.422V83.5272H147.573V82.9965L147.017 83.1481L146.739 83.2745H146.512L146.335 82.9965L146.664 82.3646L146.841 82.0108V81.7328V81.8845L147.144 81.2274L147.321 80.7472V80.4692L147.548 80.2164V80.0901V79.8626L147.397 79.6099L147.624 79.0286L147.927 78.5484L148.736 77.6386L149.241 76.9562L149.899 76.7035L151.314 75.9453V75.6673L151.769 76.0211L151.996 76.2485V76.4255L151.769 76.7793V76.9562V77.1836H152.375H152.881L153.386 77.31H153.866V77.1836L154.094 76.9562H154.574V76.6782H154.7V76.9562V77.0826L155.004 77.2089H155.155L154.751 77.6133L154.549 77.8408V78.0935L154.195 77.9418H153.968V78.3462H152.628V78.4726V78.6242V78.7506L152.906 78.9528L153.159 79.1044V78.6242H154.903L156.495 78.2198L157 77.9924L157.582 77.8155V77.9418L156.975 78.3968L156.697 78.7V78.8517V79.0033L157.026 79.2055V79.3571V79.534L158.087 79.3319H158.668H158.871H159.174V79.7868L158.668 80.1153L158.39 80.2922H158.138V80.4186L158.416 80.6208H158.593H158.769V80.9746L158.491 81.1263H158.365V81.2779H158.138V80.7472V80.4439H157.961L157.683 80.7219L157.556 80.8988V81.0757H157.304V81.4801H156.798L156.343 81.6317L156.166 81.7581L156.015 81.9097V82.0866V82.3394V82.6174L156.141 82.769H156.318H156.545H157.026L157.43 82.6174L158.062 82.4405L158.365 82.2888V82.1372H158.769H159.224V82.0108H159.351L159.831 81.7328L160.058 81.5306H160.311H160.614V81.7581H160.008V82.1119H160.311H160.437H160.21L159.073 82.5668L158.668 82.8954L158.466 83.047H158.239V83.1734L158.82 83.5272H159.149H159.502L161.347 83.7547L161.726 83.603H162.56L162.864 82.9965L163.243 82.769H163.647L164.203 82.9207H164.456H164.709L164.203 83.3503L164.026 83.6283V83.7799V83.9569H163.293L163.015 84.3612V84.5887V84.8161H163.723L164.431 84.6645V85.0436V85.2205L164.86 84.8414L165.012 84.614V84.4623V84.336H166.832L165.442 85.0689L164.658 85.8271L164.228 86.1303L163.976 86.2567H163.723V86.4083V86.6358L163.571 86.7874L163.394 87.0402V87.2929V88.0511V87.5709L165.467 87.7478L166.579 87.9247H166.958V88.2786H167.312H167.489H168.146L168.373 88.7082L170.345 89.0873L172.493 89.2895V89.5675H172.67H172.821H174.742H174.894L175.071 89.6939H175.222H175.399V89.8202L175.045 90.0477L174.894 90.1993H174.59H174.414L173.858 90.4015H173.226L173.377 90.7301L173.605 91.0586L173.908 91.2861H174.085H174.287V91.1597L174.666 91.0333H175.096L175.374 90.7048V90.5531V90.3762V90.5784H175.627H176.511L177.017 90.3004L177.219 90.073V89.9466V89.795H177.345L177.497 89.9466H177.724L177.952 90.073H178.078H178.23H178.533H178.761H178.988H179.241L178.912 90.5026V90.8564V91.7663H179.14L179.771 91.5135L180.353 91.185L180.934 90.8564L181.591 90.6795L181.92 90.4015L182.273 90.174L182.678 90.0224H183.108L182.956 90.2499L183.386 91.0586L183.84 91.2102H184.068H184.27H184.75H185.23H185.382L185.812 91.3872H186.039H186.267V91.1092H186.469H186.671V91.2355L186.469 91.5893L186.191 92.0443V92.2717V92.4739H186.545V92.3475H186.898V92.2212L187.075 92.4486H187.707H188.137L188.415 92.2212V92.0948V91.9179V91.7915L187.808 91.5135L187.53 91.3619H187.682H187.859H188.238V91.6146V91.9432V92.1201L189.325 92.2464V92.019V91.8674V90.5784V90.1993L190.032 89.9971V89.8708V90.0982V90.2246H190.285H190.513H190.639L190.513 90.4521V90.6037V90.7301H190.866L191.069 90.5026V90.3762H191.22V90.5784L191.523 91.0333L191.7 91.2608L192.61 90.9828L193.217 90.5784L193.52 90.3762L193.874 90.2246V90.4773V90.6795L193.495 91.1092L193.065 91.5388L192.939 91.7663V92.019L193.368 92.2717L193.545 92.4486V92.6508V92.5245V92.2717V92.3981H193.773V92.8025V93.0046V93.1057H194L194.354 93.2321H194.758L194.304 93.6112L194.152 93.8387V94.1419L192.964 93.965H192.357H192.054H191.776L191.473 94.2683L190.74 94.7232L190.336 94.8496H189.881V94.5969L188.187 94.8749V95.0012V95.2287V95.4814H188.036V94.8496L187.884 94.3441L187.581 93.9397L187.353 93.7881H187.126V93.9145L187.353 94.3188L187.505 94.521V94.7738H187.151L186.848 94.5463H186.62H186.444L186.292 94.6979L185.989 95.0518L185.812 95.2034H185.61L185.433 95.077H185.256H184.902L184.548 95.2287H184.169V95.0012L184.017 94.6474L184.396 94.3441L184.624 94.1672H184.826L184.573 93.965L184.321 93.8134H184.093H183.891H183.714V93.9903V94.2683V94.6221H186.62H186.216H185.761V94.1419H186.115H185.938H185.685L183.158 95.4561L183.006 94.8749L182.88 94.6474L182.728 94.4705L182.551 94.3441H182.324H182.046H181.717L181.263 94.6474H180.833V94.7738L181.111 95.077V95.254V95.4561H180.934H180.454H180.201L179.948 95.254L179.039 94.4199H178.912L179.089 94.9759L175.728 95.1781L174.565 95.6583L173.125 95.8605L172.442 96.1132H172.088H171.457H171.077H170.85L169.89 96.4418V95.8352L168.853 96.4165V96.0627L166.857 96.6187V96.1385H166.402H166.882L166.68 95.8858L166.402 95.3803H166.124H165.821H165.164L164.506 95.5067V95.3803V95.254L164.784 94.8496L164.961 94.6727H165.164V94.4452L164.405 94.2683L164.052 94.0914H163.925V93.9397L163.243 94.243L163.47 93.8639L163.597 93.687H164.431L164.254 93.1057H164.506L164.178 92.8025L164.026 92.6255V92.4486L163.42 92.7266L162.737 92.9541H162.358L162.055 92.8277L161.777 92.6003L162.004 92.2717H162.156H162.333V90.8312V90.6795V91.0081V91.2355L162.459 91.4124V90.9575L162.687 90.2246V89.795V89.6686L162.106 89.8202L161.448 90.1235L161.17 90.3257L160.943 90.5531L161.347 90.5784V90.907L161.044 90.7806H160.892H160.589L160.362 91.1092H160.21H160.008H159.705L159.25 90.9575L158.82 90.8817H158.668H159.047V90.5784L159.3 90.7048H159.427L159.73 90.3257L159.907 90.1235H160.084L159.831 89.9213H160.539L160.665 89.6433L160.539 89.3906L160.336 89.2389H160.084H159.831H158.694L158.416 89.4411H158.112V89.3148V88.9862V88.5313V88.1017V87.9753V87.7226V87.4698L156.95 88.3291L156.647 88.506H156.343H156.192H156.065L155.939 88.3544V88.0764V87.7478V87.6215H156.116V87.1413V85.7765H155.711H155.155H155.004V85.6249V85.4227L154.574 85.5996H154.397H153.765L153.968 85.1447V84.9425L153.715 84.7909H153.437H152.83H152.552H152.325L152.148 84.6392V84.3612H151.92H151.718L151.567 84.2096V84.0579L151.718 83.8305L151.895 83.6788H152.123H152.375L151.971 83.2998H151.238H150.657L150.101 83.4514H149.924V83.9063L149.545 84.0832L149.418 84.2349V84.437L149.166 84.6392L148.963 84.8667L148.812 85.1194V85.448H148.711H148.559V85.726L148.332 86.004V86.2062V86.8127L148.028 87.0655H147.851H147.649L147.927 87.2676L148.256 87.394H148.711L147.675 87.95V88.0511V88.3797V88.6829L147.245 89.2389L146.765 89.896L146.613 90.3004V90.7806H146.007V91.1344H146.386L146.108 91.5388L145.931 91.6904H145.703V92.297V92.7772L145.324 93.7628L145.071 94.6221L144.92 94.7738L144.692 94.9254L144.515 95.077V95.5067V95.9363L144.743 96.7198L143.656 97.9076L143.277 98.4384V98.6911V98.9944H143.151V99.2471L142.847 99.1207H142.544H142.418V99.4493H142.898V99.5757H142.62L142.342 99.3987L141.988 99.1713H141.685H141.382H140.8V99.4746L140.623 99.2724L140.118 99.6009L139.587 99.8537H138.854H138.576H138.374H138.045V99.98V99.7526L137.54 98.8933L137.186 98.5395H136.959H136.706V98.4131L137.919 97.0989L137.313 97.2505V97.0736H136.479H136.024H136.276L136.125 96.7451L135.847 96.2396L135.569 95.7847V95.6583H134.886H134.608L134.33 95.4561L134.709 95.0265L135.089 94.6727L135.493 94.0408L135.796 93.7628H135.948H136.099H135.973V93.5354H135.72H135.543H135.265H134.634H134.33L134.078 93.6617L133.547 93.1057V93.4596H132.586H132.081H131.904L132.738 92.8025L133.168 92.3475L133.294 92.1454V92.019L132.966 91.7157H132.662H131.929L131.5 91.4883L131.323 91.3619H131.727H131.955L132.132 91.2102L132.258 91.0333L132.435 90.6542V90.5279V90.7048H132.612L133.218 90.1488L133.496 89.8202H133.547V89.4664V89.5928L133.319 89.7444V89.896H133.117H132.94H132.612L131.929 89.5928H131.045H130.59H130.438L130.944 89.4159L131.171 89.2642V89.1378V88.9862H131.045L130.312 88.0511H129.528L129.124 88.7082V89.1378V89.4664V89.6433V89.795V89.9466L128.922 90.1235L128.669 90.3004H128.517H128.366V89.6433H128.492L126.976 88.7082L127.178 88.1775L127.481 87.7226L128.113 86.8127L127.785 86.4589L127.481 86.2314H127.178H126.925L126.723 86.4083L126.571 86.7116V87.116V87.5962L122.629 88.2027L122.401 87.0149H121.668L122.123 86.56L122.376 86.4083H122.705H123.185V85.9787L122.983 85.5996L122.781 85.2711V84.9172L123.185 84.6645L123.387 84.5129H123.513V84.3865H123.008V82.9965H123.235V82.8701H123.842V82.7437L124.095 82.491H124.246H124.398V82.2635H123.766V81.9097V81.6823V80.9999V80.7724L123.893 80.5703L124.171 80.1912L124.55 79.3824L125.636 78.3968L125.51 78.2451H127.81V77.8913M96.1426 82.491H96.269L96.1173 82.6174L96.2437 82.491M46.3798 87.3435H47.1127V87.5962H46.7083L46.3545 87.4698M157.733 77.7144V78.1946H157.379V77.9418L157.708 77.6638M75.1912 85.5238V85.6502H75.0395M155.914 78.0682H156.874V77.9418L156.192 78.144H155.989V78.0177M159.629 79.3571H159.856H160.008V79.4835H159.528V79.1297M135.417 82.0361L135.695 82.213V82.3899L135.442 82.1877L135.265 81.935M134.255 82.9965L134.431 83.1228V83.2492V82.9965M103.371 85.9787H103.623H103.75V86.1051H103.396V86.2314V86.004H103.522V85.8776M135.543 83.1987H135.771V83.3756V83.1481M161.853 80.7977V80.9241V80.5703M160.437 80.823H160.918H160.665H160.437ZM96.7239 87.5709L96.8502 87.7731V87.7984V87.5709M74.8879 90.0982L75.1153 90.3004V90.174H74.989V89.9213M76.379 90.4015H76.6064L76.3032 90.5279H76.1768V90.4015M112.115 87.0907V87.3435V87.4698H111.862L111.989 87.2171L112.166 86.9644M161.954 82.3646V82.5921V82.4657H162.08V82.3394V82.213M110.801 87.672L111.711 87.95H112.191H112.646V87.7226H112.419H113.632V87.95V88.1269V88.3038V88.506H112.823L112.039 88.3291V88.4555H111.812V88.6829H112.545V88.8093H112.671L112.343 89.5675L111.888 90.0224L111.686 90.2751V90.4268V90.5784H111.812H112.545H112.772H113.379V90.0224L113.682 90.1488H113.884V90.3004V91.3113L113.632 91.1344H113.404V91.2608L113.859 91.5641L114.087 91.7663V91.8926H114.238V92.1454L113.328 91.9684H112.671H112.317V92.1959H112.671V92.3223H112.09H111.837V92.4486H111.711V92.575L112.646 93.0552L113.151 93.409L113.328 93.5607V93.7123V93.5859L113.48 93.4596H113.707V93.5859L113.227 93.7376V93.965L114.516 94.799H114.39L114.188 95.1023V95.254V95.4309L114.263 95.633H114.112V95.8858H113.985V96.0121H114.365V96.1385L113.657 96.6187L113.278 96.8714L112.873 96.9978V97.1494L113.025 97.3011H113.328H113.809L114.263 97.1747L114.693 96.8967L114.946 96.7703H115.224L115.375 97.0483V97.2V97.3769L114.365 98.3625L113.202 99.146H112.975H112.848V99.2724H112.722V100.359H113.151H113.48L114.314 100.233L114.087 100.46V100.587V100.688L114.415 100.865L114.567 101.042V101.218H113.935H113.632L113.354 101.572V101.774L113.985 101.951L115.35 101.673H116.134H116.386L116.563 102.356L115.022 102.634H114.769L114.592 103.013L114.314 103.341L114.061 103.645L113.91 104.024V104.175V104.302L114.162 104.453H114.845L115.603 104.276L116.159 104.15L116.487 103.493L116.715 103.164V103.038H117.574L117.852 102.684V102.507V102.28L117.524 102.533H117.347H117.17V102.305L117.599 100.132L118.307 98.9691V98.7164V98.4889V98.0845L118.459 97.7054V97.2505V96.7451V96.1385V95.8605V95.6078L118.61 95.4309H118.888V95.0265V94.7485V94.4958L119.065 94.3188L119.444 94.0156L119.596 93.8639V93.687L119.419 93.5354L119.722 93.3585H119.849V93.131V93.2574H120.026H120.177V93.131H120.91H121.163L120.936 93.3585V93.4848L121.264 93.7123H121.466H121.694V93.8387H121.567L121.138 94.4958L120.961 94.8496V95.1529L121.214 95.4561L121.34 95.6078V95.7847L120.632 95.9616V96.088V96.2143H120.91L121.492 96.4418H121.77H121.896L122.224 95.355L122.401 94.7485V94.5463V94.4199L122.932 94.5716H123.513H123.64H123.817H124.221L124.6 94.3947H124.878H124.676H124.449H124.221L124.044 93.8134H124.221H124.474V93.9397L125.08 93.7628H125.763V93.2826L126.041 93.1057L126.369 92.8277L126.774 92.4739L126.42 91.9684L126.268 91.6904H126.546H126.673L126.925 91.3113V91.1344V90.9575V90.8059V90.5784H127.153V91.0081L127.355 91.4124L127.709 91.7157H127.911H128.138L127.658 93.3332L127.431 93.7123L127.178 94.0408L126.849 94.2683H126.47V94.8749V95.1023L126.597 94.8496V94.7232V95.1529V95.355L126.319 95.5067H126.091H125.535V95.7594V96.1132L126.243 95.9363L125.636 96.7198L125.333 97.1747L125.207 97.3516H125.51H125.662V97.5033V97.6296L125.333 97.8824H125.156H124.954V98.1351H125.586V98.4889L124.853 98.7922H124.474H124.297L124.095 98.5395V98.3625V98.1856V97.9582L122.452 97.2758V97.4022H122.578V97.5285V98.1604L122.755 98.312H122.452V98.4384H122.326L122.604 98.7669L122.957 98.9438H123.362H123.817V99.3482V99.7526L123.463 99.9042V100.031H124.196V100.258V100.688H124.069H123.842H123.564H123.337V101.193H123.589H123.766L124.171 101.32H124.322L123.488 101.522H123.109H122.654H122.502L122.351 101.395H122.174H121.997V102.457V102.33V102.204H122.73V102.33L122.578 102.634V102.785H122.73L122.553 102.937L122.275 103.089L122.022 103.24L121.871 103.544L121.542 103.973L121.188 104.352L121.037 104.479H120.91V104.605L121.062 104.731H120.809H121.921H122.528V104.858L122.174 105.186L121.845 105.414L120.91 106.248H120.405H119.47H119.242L119.065 106.425V106.703H119.444H121.112V107.891L120.91 108.27H120.531V108.952V109.23V109.457H120.658H120.228H120.026L119.394 110.216L119.04 110.595L118.863 110.721H118.686V110.494H118.383L118.181 110.671H117.953H117.448V110.797V111.227V111.429L117.094 111.58V111.328V111.151V110.974V110.822V110.645V110.797H116.942H116.563H116.209V110.671H115.805H115.578H115.35L115.199 110.949L114.921 111.277L114.617 111.58H114.491H113.328H112.949V111.454V110.797H113.328H113.455L113.202 110.342V110.115L113.429 110.317H113.581H113.733V110.19L114.087 109.786L114.289 109.609H114.516V109.382H114.238H113.935H113.328L112.09 109.584V109.71H111.964V109.837H112.09V109.685H112.444V110.039V110.418L112.065 110.241H111.888H111.559V110.367V110.721H111.079H110.801L111.66 109.508L112.115 108.143H111.888L111.18 108.396H110.397H110.018H109.891V108.522L109.487 107.815L109.31 107.436V106.753V106.349V106.197L109.209 105.742V105.616H109.436H109.664H109.916H110.169V105.742V105.287H110.397V105.161V104.883H110.801H111.306L112.494 103.468V103.291H112.317V103.164L112.115 103.341H111.989L111.787 103.19H111.559H111.079L110.574 103.367L110.068 103.493V103.872V104.024L109.259 104.352L109.082 103.973H108.931H108.703L109.209 103.215L109.411 102.482H109.765V102.356V101.951H110.371H110.624L111.028 102.128H111.205L111.635 101.598L111.888 101.345V100.688H111.256H110.826H110.371H109.891L109.411 100.915V100.688H109.285V100.561L109.487 100.334V100.207H109.638V99.98L108.602 99.702H107.541L106.96 99.8537H106.783V99.98H106.757V99.8537V99.4998L107.288 99.2724L107.566 99.1207H107.692L107.566 98.8175V98.6911L107.869 98.5395L108.274 98.1604H108.501H108.678H108.804V98.312H109.032V98.1856L109.462 97.8065L109.613 97.5538V97.3011L109.259 97.4527V97.2253L109.613 97.0736H109.765H110.018V96.6945V96.5176V96.1638L109.335 96.5176L109.007 96.7956V96.9473V97.0989H108.653H108.476V96.6187V96.4671H107.187V96.2396H107.313L107.541 95.9869L107.819 95.7847L108.122 95.633H108.451V95.5067L107.364 95.254H106.783H106.227L105.519 95.4814H105.291V95.6078H105.519H105.241H105.013L104.862 95.254L105.342 95.0265H105.923V94.6727L103.851 94.521V93.965V93.7628L104.205 93.6112L104.761 93.4848H105.317H105.746L105.999 93.6112H106.151H106.277V93.1057H106.151H105.746H105.418H105.291H105.165V93.2321V93.3837H105.291H106.024V93.1563L107.692 93.9397L107.92 93.5859L108.198 93.0552V92.8025V92.4739H107.945H107.389H107.111H106.858L106.378 92.0948L106.125 91.9179H105.999H105.746V91.5893L106.075 91.4124L106.252 91.2861L107.49 91.1597H107.794L108.046 91.0333L108.274 90.5784V90.351H108.501L109.158 91.1344L109.436 92.5245L108.981 92.6761V92.9288H109.158L110.169 93.2068L110.346 92.8783H110.498V92.297L110.75 91.8674V91.5135L110.801 90.8817L110.397 90.2246L110.093 89.9719V89.8202V89.6433L110.321 89.4917H110.523H110.801V89.3653H110.548H110.27H109.714H109.588V89.1378H109.992L110.776 88.3544M162.586 83.2998H162.813ZM103.067 89.0368H103.219V89.1631L102.84 88.9609M148.635 84.8414L148.913 85.0941V85.2205V85.3974H148.685L148.509 84.9172M112.873 88.8851H113.253V89.1378H113.126L112.848 88.8093M75.4186 92.6761V92.9035V93.1057V92.8783M148.231 85.7765H148.433H148.711H148.357H148.155M121.719 88.3038H122.553H123.008H123.438V88.6577L122.957 88.9357L122.73 89.1126V89.2389L123.21 89.5169L123.438 89.6939H123.008H122.806H122.679V90.4015V90.5531L122.553 90.6795L122.149 90.9575L121.694 91.1597H121.34H121.466V91.3113V91.6904H121.062H119.798V91.463L120 91.2608H120.253L119.925 90.3257H121.264H121.618L121.921 90.1993L122.123 90.0224V89.896L121.719 89.6433H121.466H121.239H120.759H120.91V89.1126V88.6324V88.4555L121.062 88.3038H121.315H121.643M125.283 88.0511H125.763H125.257M124.752 88.7082V88.8851H124.903H125.283L125.485 89.0115L125.712 89.34V89.618H125.51H123.867V89.4664L124.095 89.2895L124.524 89.1126L124.322 88.9104L124.55 88.6577M112.899 89.896V90.1488V89.9213M165.568 85.2711V85.4227H165.416M166.149 85.4227H166.453V85.6502H166.2V85.5238H166.073V85.2711M165.618 85.6754H166.402V85.9029V86.0293H166.149V85.9029V85.5238M94.0702 92.575H94.5504V92.7014H94.3229H94.0955V92.575H94.2218V92.4486M168.095 85.5238H168.399H168.55V85.6502H168.323V86.0293H168.196V85.5491M124.297 90.3004L124.853 90.4268H125.156H124.903H124.676H124.55H124.398V90.1993M167.666 86.1809H167.994V86.3073H167.817H167.666M166.478 86.5347H166.806H166.427M165.517 87.116H165.694H165.442H165.214V86.8633L165.442 86.7369M93.9438 93.8892V94.0408L93.8175 93.9145M99.8325 93.3585H100.06L99.8072 93.5607H99.6556H99.883V93.4343M114.415 92.4234L114.668 92.6255H114.819V93.1057H114.415H114.213H113.96V93.409H113.809V93.1057V92.9794L114.466 92.1959M76.2021 96.1891H76.4548H76.3284M125.409 91.8421H125.763L125.131 92.853L124.878 93.0805L124.676 93.2321L124.524 93.4343V93.7628L124.095 93.8892H123.766L123.513 93.7123L123.362 93.4596V93.1816V92.9288H123.438H123.589H123.716V92.8025L123.918 92.6255H124.044H124.423L124.575 92.4234L124.777 92.2464L125.207 91.9684M113.076 93.3585H113.328V93.5354V93.1057M121.896 92.5245H122.477H122.351L122.123 92.7014H121.972L121.82 92.3475V92.2212M121.492 92.6003L121.896 92.7772H122.123H122.351V93.0046L121.416 93.2321V92.4992M46.8852 100.384V100.688V100.435M104.028 95.3803H104.508V95.5067V95.633H104.382V95.3803M162.181 89.896H162.56V90.1235H162.308L162.156 89.9213M105.797 95.3803H105.746H105.367M105.974 95.3803H106.227H106.1M124.752 93.8134L124.929 93.965V93.7123M105.14 95.633H105.468H105.089M133.951 92.9035H134.204V93.0552L134.179 93.1057L134.002 92.9288M122.477 94.1419H122.705L121.997 94.3188V94.1925L122.477 94.0408M53.153 101.218H53.4057V101.395V101.143M179.645 89.5675H179.873L179.493 89.3653M92.1494 98.0087H92.3769ZM106.1 96.922H106.934H107.389H107.541H107.667V97.0483H107.263V97.1747L106.454 97.0483H105.671H105.746V96.8967M133.547 94.3694H133.774L133.572 94.5716V94.4452M92.0483 98.3625H92.3769H92.5033V98.4889H92.3769H92.3516V98.3625L92.0736 98.034M160.842 91.6146H161.095ZM104.938 97.3769H105.317H105.14H104.938ZM192.661 90.0224H193.52H193.394V90.5784L192.939 90.4015H192.711L192.939 90.2499M107.212 98.1604V98.312H107.086M194.354 90.0224V90.174ZM188.289 91.463H188.415H188.238M197.311 90.5784V90.7301V90.907V91.2861V91.4124H197.084V91.185L196.932 90.8312L197.26 90.5531M199.434 90.351L199.611 90.5531V90.8059L199.459 90.4521M200.319 90.4521H200.672V90.5784V90.7048H200.42V90.5784L200.546 90.4521M51.7882 104.681V105.035V104.883V104.757M92.2253 100.915H92.478V101.092V100.839M115.805 98.6406H116.033H116.184H115.856H115.628H115.426M199.257 90.5784V90.7301V90.9322V91.0586V90.5784ZM105.873 99.6768H106.252V100.031H106.125V99.9042V99.3987M52.0915 105.262H52.5717H52.2431H51.9904V105.136V105.009M114.845 99.0197H114.996V99.2471H114.744V99.3735H114.617V98.8933M197.463 91.1597L197.918 91.5893L198.069 91.8421V92.1706H198.246L197.968 92.297H197.614V92.0695L197.918 91.3366M199.358 91.2102H199.535H199.712L200.142 91.5388L200.597 91.8674H200.824H201.026L200.546 92.1201L200.319 92.3223V92.6255L200.167 93.1057V93.3585V93.4848V93.6617H199.51L199.055 92.7519L199.56 92.2464L199.737 91.9432V91.6146L199.434 91.4124L199.181 91.185V90.8817V90.7301M135.771 97.6549H136.276L136.074 98.1604H135.948V97.4527M200.647 91.4377H200.875H201.001H200.748L200.495 91.1092M202.517 90.907H202.669V91.0333V91.3366V91.463L202.366 91.2608H202.189H201.784L202.062 90.9575H202.239H202.467V90.8312M106.479 100.688H107.212V101.042L106.783 100.915L106.606 100.789L106.479 100.688ZM114.895 100.005H115.401L114.895 99.8031M91.7198 102.128V102.255V102.027M108.072 100.713L108.248 100.839H108.274L107.111 101.673L106.757 101.825H106.429H106.1L105.746 102.204L106.024 101.977L106.151 101.85V101.699H106.378V101.951H106.53V101.825V101.673H106.656V101.8H107.136L107.364 101.522H107.516H107.718V101.395M201.228 92.4992H201.582V92.853H201.355L201.203 92.6508M184.902 94.3188L185.079 94.4452V94.2178M143.555 98.7669V98.8933V99.0197H143.403V98.7922M198.726 93.9397V94.0661H198.575V93.8134M192.105 94.6727V94.9254V94.6221M194.556 94.6979L194.733 94.8243V94.5716M202.543 93.8387H203.124H203.427V93.965L202.467 94.1672V93.9397V93.687M198.044 94.2178V94.4705V94.799H197.791V94.6727V94.4452V94.1925M201.885 93.8134V93.965H201.734V94.1167M52.2937 108.699H52.4706V108.826M107.288 103.619H107.692L108.021 103.847L108.248 104.175V104.605H108.122H107.844H107.516V104.378L107.692 104.201L107.465 103.973H107.313H107.162V103.847V103.72L107.288 103.594M76.7075 107.309H77.0614H76.8845M91.5429 105.919H91.7703L91.9473 106.096V106.324V106.576V106.501H91.8209L91.5934 106.273H91.4671H91.3154L91.5176 105.995M52.142 109.786H52.3948V110.393H51.9904V110.064L52.1673 109.786M121.239 106.551H121.492V106.728V106.501M108.754 108.093H108.981H109.108V108.27L108.729 108.067M109.411 110.013H109.714H109.841L109.487 110.165H109.259V109.786M111.964 110.974H112.343H112.52L112.039 111.151L111.584 111.302V111.05L111.787 110.797M50.8026 122.397H51.0553V122.524H50.8026M94.2724 133.037H94.4998L94.3735 132.81M45.0908 144.511H45.4194H45.5457V144.663L45.2425 144.537L45.0908 144.511ZM79.9678 142.136H80.2205ZM92.2758 141.479L92.5285 141.655H92.6802H92.4527L92.1494 141.226M92.1494 141.908H92.3769V142.085V141.832M43.2712 147.873H43.903V148.1H43.5744L43.2712 147.898M91.4671 143.323H91.7198V143.526V143.273M89.521 148.353H89.9001V148.707H89.6474L89.4958 148.479M88.409 152.144H88.7628V152.523H88.8892L88.6617 152.826V152.978H88.3332H88.2068L88.3585 152.725L88.2068 152.27M85.8817 157.325V157.578H85.7553V157.35L85.9828 157.198M77.4405 161.343H77.3141ZM77.5921 161.925V162.278L77.4657 162.127H77.5921" fill="#002B69"/>
<path d="M293.45 112.263V110.342H293.046C287.536 110.342 287.283 109.281 287.182 105.161L286.879 96.1385L286.424 77.7649C286.424 76.0716 286.702 75.2376 287.359 74.6311C288.541 74.0783 289.855 73.8681 291.15 74.0245H291.555V71.6994L286.07 71.8257L281.016 71.6994V71.9521C277.831 79.2308 274.243 86.4842 270.755 93.4848L265.877 103.442L250.713 71.6994L246.771 71.8257L240.275 71.6994V74.0245H240.68C241.97 73.8605 243.276 74.1558 244.37 74.8585C245.052 75.4145 245.33 76.5013 245.33 78.4978L244.749 94.9254V102.078C244.521 109.66 241.943 110.342 238.304 110.342H237.9V112.667H245.962H253.544V110.342H253.139C251.619 110.555 250.071 110.252 248.742 109.483C247.984 108.8 247.68 107.436 247.68 104.605V100.991C247.68 100.991 248.06 84.0832 248.11 81.6065C248.767 82.8701 249.677 84.6898 249.677 84.6898C254.327 93.8892 259.129 103.417 263.35 112.945V113.173H264.967V112.895C265.705 110.971 266.548 109.089 267.495 107.259L280.283 80.4692C280.283 83.1734 280.662 106.399 280.662 106.399C280.662 108.927 280.055 109.559 279.373 109.938C278.03 110.379 276.609 110.534 275.203 110.393H274.748V112.718H283.543H293.45V112.263Z" fill="#231815"/>
<path d="M323.955 92.3475C322.123 90.7857 319.815 89.8943 317.409 89.8202C319.392 88.9787 321.106 87.6106 322.367 85.8643C323.628 84.118 324.387 82.0599 324.561 79.9132C324.597 78.7697 324.397 77.6312 323.972 76.5688C323.548 75.5064 322.909 74.543 322.095 73.7388C321.282 72.9347 320.311 72.3071 319.244 71.8952C318.176 71.4834 317.036 71.2963 315.893 71.3456C310.56 71.3456 307.451 74.4036 304.469 77.7902L304.242 78.0682L305.606 79.7868L305.935 79.4582C306.763 78.3448 307.822 77.423 309.039 76.7557C310.256 76.0884 311.602 75.6913 312.986 75.5914C313.836 75.5582 314.683 75.7054 315.471 76.0235C316.26 76.3415 316.972 76.823 317.561 77.4364C318.716 78.7431 319.322 80.445 319.254 82.1877C319.254 87.2424 314.376 90.4015 309.574 90.8059H309.195V93.1057H309.625C311.171 92.856 312.752 92.922 314.273 93.2999C315.793 93.6778 317.221 94.3597 318.47 95.3045C319.273 96.1484 319.891 97.1511 320.282 98.248C320.674 99.3449 320.832 100.512 320.745 101.673C320.823 102.862 320.652 104.053 320.243 105.171C319.835 106.29 319.198 107.311 318.373 108.169C317.547 109.028 316.552 109.705 315.451 110.157C314.349 110.61 313.166 110.828 311.975 110.797C310.816 110.857 309.662 110.596 308.641 110.043C307.62 109.49 306.771 108.667 306.188 107.663C305.505 106.753 304.924 105.97 303.913 105.97C303.323 105.989 302.761 106.232 302.344 106.65C301.926 107.067 301.683 107.629 301.664 108.219C301.664 110.291 305.328 113.451 310.813 113.451C322.438 113.451 326.76 104.757 326.76 99.2977C326.816 98.006 326.595 96.7173 326.111 95.5185C325.627 94.3196 324.892 93.2383 323.955 92.3475Z" fill="#231815"/>
<path d="M337.476 121.867C339.165 121.656 340.734 120.884 341.93 119.673C343.127 118.463 343.881 116.886 344.072 115.194C344.072 112.996 342.985 112.364 340.863 112.364C340.42 112.371 339.981 112.289 339.57 112.125C339.16 111.96 338.786 111.715 338.471 111.405C338.156 111.094 337.905 110.724 337.735 110.316C337.564 109.908 337.476 109.47 337.476 109.028C337.476 106.627 339.548 105.515 341.722 105.515C343.364 105.687 344.877 106.484 345.949 107.739C347.021 108.995 347.571 110.614 347.484 112.263C347.484 118.809 343.036 122.094 337.88 123.231L337.476 121.867Z" fill="#231815"/>
<path d="M371.114 77.7649C371.114 73.7465 368.916 73.6707 365.883 73.6201V72.129C368.562 72.129 371.216 72.129 373.793 72.129C376.371 72.129 379.101 72.129 381.982 72.129V73.6201C378.924 73.6201 376.725 73.7465 376.725 77.7649V106.627C376.725 110.645 378.924 110.696 381.982 110.746V112.263C379.202 112.263 376.725 112.263 374.198 112.263C371.671 112.263 368.739 112.263 365.883 112.263V110.797C368.916 110.797 371.114 110.797 371.114 106.677V77.7649Z" fill="#231815"/>
<path d="M392.394 93.6365C392.394 91.4883 391.763 90.9322 389.058 89.8202V88.7335C391.631 87.9454 394.162 87.0259 396.64 85.9787C396.792 85.9787 396.969 86.1051 396.969 86.56V90.3004C399.719 87.7981 403.221 86.2782 406.927 85.9787C411.804 85.9787 413.548 89.5422 413.548 94.0156V108.851C413.548 110.746 414.812 110.746 416.404 110.746H417.44V112.263C415.444 112.263 413.422 112.263 411.349 112.263C409.277 112.263 407.205 112.263 405.132 112.263V110.797H406.168C407.786 110.797 408.948 110.797 408.948 108.901V93.965C408.948 90.7048 406.927 89.0873 403.641 89.0873C401.229 89.4599 398.941 90.4045 396.969 91.8421V108.851C396.969 110.746 398.233 110.746 399.85 110.746H400.886V112.263C398.864 112.263 396.868 112.263 394.795 112.263C392.723 112.263 390.651 112.263 388.578 112.263V110.797H389.614C391.232 110.797 392.369 110.797 392.369 108.901L392.394 93.6365Z" fill="#231815"/>
<path d="M444.988 107.132C443.663 108.884 441.973 110.326 440.036 111.361C438.098 112.395 435.959 112.996 433.767 113.122C430.721 112.921 427.86 111.589 425.746 109.386C423.632 107.183 422.419 104.27 422.343 101.218C422.262 99.2816 422.568 97.348 423.245 95.5312C423.921 93.7144 424.953 92.051 426.281 90.6385C427.609 89.226 429.205 88.0929 430.977 87.3058C432.748 86.5186 434.659 86.0932 436.597 86.0545C439.529 86.0545 444.356 86.9644 444.356 90.0224C444.387 90.3326 444.355 90.6459 444.262 90.9433C444.168 91.2407 444.015 91.5159 443.812 91.7523C443.608 91.9887 443.359 92.1813 443.079 92.3184C442.799 92.4554 442.494 92.5342 442.183 92.5497C439.655 92.5497 439.883 87.8995 434.474 87.8995C429.42 87.8995 426.892 93.409 426.892 97.7813C426.892 103.695 430.683 108.927 437.002 108.927C439.587 108.908 442.076 107.946 444.002 106.222L444.988 107.132Z" fill="#231815"/>
<path d="M454.213 109.382C454.213 108.376 454.612 107.412 455.323 106.701C456.034 105.99 456.998 105.591 458.004 105.591C459.009 105.591 459.973 105.99 460.684 106.701C461.395 107.412 461.795 108.376 461.795 109.382C461.795 110.387 461.395 111.351 460.684 112.062C459.973 112.773 459.009 113.173 458.004 113.173C456.998 113.173 456.034 112.773 455.323 112.062C454.612 111.351 454.213 110.387 454.213 109.382Z" fill="#231815"/>
</svg>
