<?xml version="1.0" encoding="UTF-8"?><svg id="uuid-5d43cce4-ccb1-4e5d-bc71-6fd209647174" xmlns="http://www.w3.org/2000/svg" viewBox="0 0 700 140.39"><defs><style>.uuid-d4a7130c-e311-4868-a3c9-d39bbcf7a02d{fill:#222;}</style></defs><g id="uuid-b7c7fb43-4768-48dd-8b87-5bd98bdd8e2e"><rect class="uuid-d4a7130c-e311-4868-a3c9-d39bbcf7a02d" x="674.91" y="37.56" width="23.83" height="102.05"/><path class="uuid-d4a7130c-e311-4868-a3c9-d39bbcf7a02d" d="m419.46,119.93c-20.01,0-31.74-12.42-31.74-29.83s9.02-31.34,30.13-31.34c17.69,0,31.37,7.51,31.37,7.51v-22.3s-13.84-6.49-31.83-6.49c-32.42,0-53.01,22.35-53.01,52.61s22.49,50.29,54.74,50.29c18.12,0,32.39-6.45,32.39-6.45v-21.75s-15.47,7.73-32.04,7.73Z"/><path class="uuid-d4a7130c-e311-4868-a3c9-d39bbcf7a02d" d="m108.82,37.54c-13.98,0-22.98,5.04-32.17,15.85-8.68-10.38-18.99-15.85-32.77-15.85C17.89,37.54,0,57.14,0,83.13v56.48h23.47v-58.79c0-12.48,7.57-21.89,20.41-21.89s21.22,9.41,21.22,21.89v58.79h23.07v-58.79c0-12.48,7.81-21.89,20.65-21.89s21.45,9.41,21.45,21.89v58.79h23.48v-56.48c0-25.99-18.83-45.59-44.94-45.59Z"/><circle class="uuid-d4a7130c-e311-4868-a3c9-d39bbcf7a02d" cx="686.83" cy="13.17" r="13.17"/><path class="uuid-d4a7130c-e311-4868-a3c9-d39bbcf7a02d" d="m521.9,37.56c-30,0-51.79,21.59-51.79,51.34s20.42,51.34,49.62,51.34c14.08,0,25.95-8.09,29.6-17.28v16.66h23.42v-50.71c0-31.19-19.66-51.34-50.85-51.34Zm-.22,82.09c-17.22,0-27.95-11.78-27.95-30.75,0-17.53,12.03-30.75,27.95-30.75,16.96,0,27.44,12.07,27.44,30.75,0,14.9-9.3,30.75-27.44,30.75Z"/><path class="uuid-d4a7130c-e311-4868-a3c9-d39bbcf7a02d" d="m340.35,58.94c-12.84,0-20.41,10.67-20.41,24.87v55.8h-23.47v-56.48c0-25.99,17.89-45.59,43.88-45.59h8.48v21.31l-8.48.08Z"/><path class="uuid-d4a7130c-e311-4868-a3c9-d39bbcf7a02d" d="m642.22,58.94c-12.84,0-20.41,10.67-20.41,24.87v55.8h-23.47v-56.48c0-25.99,17.89-45.59,43.88-45.59h8.48v21.31l-8.48.08Z"/><path class="uuid-d4a7130c-e311-4868-a3c9-d39bbcf7a02d" d="m226.25,37.46c-31.68,0-50.61,25.41-50.61,51.65,0,32.07,23,51.12,54.7,51.12,20.53,0,37.15-6.52,37.15-6.52v-20.58s-18.67,7.74-36.02,7.74-29.91-7.86-32.17-23.52h71.37s.7-4.62.7-11.29c0-28.35-21.39-48.6-45.13-48.6Zm-26.76,41.32c3.38-17.26,16.22-21.71,26.11-21.71,10.69,0,23.47,6.81,25.32,21.71h-51.43Z"/></g></svg>