<?xml version="1.0" encoding="utf-8"?>
<!-- Generator: Adobe Illustrator 26.1.0, SVG Export Plug-In . SVG Version: 6.00 Build 0)  -->
<svg version="1.1" id="レイヤー_1" xmlns="http://www.w3.org/2000/svg" xmlns:xlink="http://www.w3.org/1999/xlink" x="0px"
	 y="0px" viewBox="0 0 269.3 85" style="enable-background:new 0 0 269.3 85;" xml:space="preserve">
<style type="text/css">
	.st0{display:none;fill:#FFFFFF;}
	.st1{fill:#005773;}
</style>
<rect class="st0" width="269.3" height="85"/>
<g>
	<path class="st1" d="M52.2,61.7c-4.2-0.2-8.5-0.3-12.7-0.3c-4.2,0-8.5,0.1-12.7,0.3c-1.2,0.1-2.3,0.1-3.5,0.2
		c0.2-2.6,0.4-5.1,0.5-7.7c0.1-2.7,0.2-5.4,0.3-8.2c0-1.2,0-2.4,0-3.6c0-1.2,0-2.4,0-3.6c0-2.7-0.1-5.4-0.3-8.2
		c-0.1-2.6-0.3-5.1-0.5-7.7c-0.2-2.7-0.5-5.5-0.8-8.2c-2.8-0.2-5.5-0.4-8.3-0.7c0.3,2.8,0.6,5.5,0.8,8.3c0.6,6.7,0.8,13.4,0.8,20.1
		c0,6.6-0.3,13.4-0.8,20.1c-0.1,1-0.2,1.9-0.3,2.9c-0.2,1.8-0.4,3.6-0.6,5.4c2.8-0.3,5.5-0.5,8.3-0.7c5.7-0.4,11.4-0.6,17-0.6
		c4.5,0,9,0.1,13.5,0.4c-0.3-2.6-0.5-5.2-0.7-7.7C52.2,62,52.2,61.9,52.2,61.7"/>
	<path class="st1" d="M63.1,42.5c0-6.6,0.3-13.4,0.8-20.1c0.1-1,0.2-1.9,0.3-2.9c0.2-1.8,0.3-3.6,0.6-5.4c-2.8,0.3-5.5,0.5-8.3,0.7
		c-5.7,0.4-11.4,0.6-17,0.6c-4.5,0-9-0.1-13.5-0.4c0.3,2.6,0.5,5.2,0.7,7.7c0,0.2,0,0.3,0,0.5c4.2,0.2,8.5,0.3,12.7,0.3
		s8.5-0.1,12.7-0.3c1.2-0.1,2.3-0.1,3.5-0.2c-0.2,2.6-0.4,5.1-0.5,7.7h-3.5H34.6h-7.4c0.1,2.7,0.2,5.4,0.2,8.1c0,0,0,0,0,0.1h7.3
		h16.7H55c0,1.2,0,2.4,0,3.6c0,1.2,0,2.4,0,3.6h-3.5h-24c0,0,0,0,0,0.1c0,2.7-0.1,5.4-0.2,8.1h24.5h3.5c0.1,2.6,0.3,5.1,0.5,7.7
		c0.2,2.7,0.5,5.5,0.8,8.2c2.8,0.2,5.5,0.4,8.3,0.7c-0.3-2.8-0.6-5.5-0.8-8.3C63.4,55.9,63.1,49.2,63.1,42.5"/>
	<path class="st1" d="M201.5,49c-0.5,1-1.1,1.8-1.8,2.5c-0.8,0.7-1.7,1.2-2.7,1.6c-1,0.4-2.1,0.6-3.3,0.6c-1.2,0-2.3-0.2-3.3-0.6
		c-1-0.4-1.9-0.9-2.7-1.6c-0.8-0.7-1.4-1.5-1.8-2.5c-0.4-1-0.7-2.1-0.7-3.3V30.8h5.5v14.7c0,1,0.3,1.9,0.8,2.4
		c0.5,0.6,1.2,0.8,2.2,0.8c0.9,0,1.7-0.3,2.2-0.8c0.5-0.6,0.8-1.4,0.8-2.4V30.8h5.5v14.8C202.2,46.9,202,48,201.5,49"/>
	<path class="st1" d="M108.2,30.8h-6l-5,9.9l-5-9.9h-6C86.7,34.5,87,38.2,87,42c0,3.8-0.3,7.5-0.8,11.2h6.1V42.5l3.2,5.5h3.5
		l3.2-5.5v10.7h6.1c-0.5-3.7-0.8-7.4-0.8-11.2C107.3,38.2,107.6,34.5,108.2,30.8"/>
	<path class="st1" d="M124.3,30.8h-6.9c0.5,3.7,0.8,7.4,0.8,11.2c0,3.8-0.3,7.5-0.8,11.2h6.9c-0.5-3.7-0.8-7.4-0.8-11.2
		C123.5,38.2,123.8,34.5,124.3,30.8"/>
	<path class="st1" d="M134.4,42c0,3.8-0.3,7.5-0.8,11.2h15.8v-4.9h-9.7v-3.9h8.3v-4.9h-8.3v-3.7h9.7v-4.9h-15.8
		C134.1,34.5,134.4,38.2,134.4,42"/>
	<path class="st1" d="M173.4,43.1c0.4-0.4,0.8-0.8,1.2-1.3c0.3-0.5,0.6-1,0.9-1.7c0.2-0.6,0.3-1.3,0.3-2.1c0-0.9-0.2-1.8-0.5-2.7
		c-0.3-0.9-0.8-1.6-1.5-2.3c-0.6-0.7-1.4-1.2-2.4-1.6c-1-0.4-2.1-0.6-3.3-0.6h-9.4c0.5,3.7,0.8,7.4,0.8,11.2c0,3.8-0.3,7.5-0.8,11.2
		h6.1v-8.3h1.9l4,8.3h6.4l-4.8-9.3C172.5,43.7,173,43.4,173.4,43.1 M169.6,39.6c-0.4,0.5-1,0.7-1.8,0.7h-3.1v-4.5h3.1
		c0.8,0,1.3,0.2,1.8,0.7c0.4,0.5,0.6,1,0.6,1.6C170.2,38.6,170,39.1,169.6,39.6"/>
	<path class="st1" d="M230.1,30.8H224v11.3l-7.2-11.3h-5.4c0.5,3.7,0.8,7.4,0.8,11.2c0,3.8-0.3,7.5-0.8,11.2h6.1V42l7.2,11.3h5.4
		c-0.5-3.7-0.8-7.4-0.8-11.2C229.3,38.2,229.5,34.5,230.1,30.8"/>
	<path class="st1" d="M255.2,35.8v-4.9h-15.8c0.5,3.7,0.8,7.4,0.8,11.2c0,3.8-0.3,7.5-0.8,11.2h15.8v-4.9h-9.7v-3.9h8.3v-4.9h-8.3
		v-3.7H255.2z"/>
</g>
</svg>
