<svg width="199" height="86" viewBox="0 0 199 86" fill="none" xmlns="http://www.w3.org/2000/svg">
<rect x="151.613" y="26" width="6" height="35" fill="#283644" fill-opacity="0.4"/>
<rect x="68.9677" y="26" width="6" height="35" fill="#283644" fill-opacity="0.4"/>
<rect x="165.387" y="36" width="6" height="15" fill="#283644" fill-opacity="0.4"/>
<rect x="82.7419" y="36" width="6" height="15" fill="#283644" fill-opacity="0.4"/>
<rect x="27.6452" y="36" width="6" height="15" fill="#283644" fill-opacity="0.4"/>
<rect x="179.161" y="39" width="6" height="8" fill="#283644" fill-opacity="0.4"/>
<rect x="19.7742" y="47" width="6" height="7" transform="rotate(-180 19.7742 47)" fill="#283644" fill-opacity="0.4"/>
<rect x="192.935" y="41" width="6" height="4" fill="#283644" fill-opacity="0.4"/>
<rect x="6" y="45" width="6" height="4" transform="rotate(-180 6 45)" fill="#283644" fill-opacity="0.4"/>
<rect x="137.839" y="12" width="6" height="62" fill="#283644" fill-opacity="0.4"/>
<rect x="55.1936" y="18" width="6" height="51" fill="#283644" fill-opacity="0.4"/>
<rect x="124.065" width="6" height="86" fill="#283644" fill-opacity="0.4"/>
<rect x="110.29" y="17" width="6" height="52" fill="#283644" fill-opacity="0.4"/>
<rect x="96.5161" y="30" width="6" height="27" fill="#283644" fill-opacity="0.4"/>
<rect x="41.4194" y="30" width="6" height="27" fill="#283644" fill-opacity="0.4"/>
</svg>
