<svg width="199" height="86" viewBox="0 0 199 86" fill="none" xmlns="http://www.w3.org/2000/svg">
<rect x="151.71" y="26" width="6" height="35" fill="#283644" fill-opacity="0.4"/>
<rect x="69.0646" y="26" width="6" height="35" fill="#283644" fill-opacity="0.4"/>
<rect x="165.484" y="36" width="6" height="15" fill="#283644" fill-opacity="0.4"/>
<rect x="82.8387" y="36" width="6" height="15" fill="#283644" fill-opacity="0.4"/>
<rect x="27.7419" y="36" width="6" height="15" fill="#283644" fill-opacity="0.4"/>
<rect x="179.258" y="40" width="6" height="7" fill="#283644" fill-opacity="0.4"/>
<rect x="19.871" y="47" width="6" height="7" transform="rotate(-180 19.871 47)" fill="#283644" fill-opacity="0.4"/>
<rect x="192.742" y="41" width="6" height="4" fill="#283644" fill-opacity="0.4"/>
<rect x="6.0968" y="45" width="6" height="3" transform="rotate(-180 6.0968 45)" fill="#283644" fill-opacity="0.4"/>
<rect x="137.936" y="12" width="6" height="62" fill="#283644" fill-opacity="0.4"/>
<rect x="55.2904" y="18" width="6" height="51" fill="#283644" fill-opacity="0.4"/>
<rect x="124.742" width="6" height="86" fill="#283644" fill-opacity="0.4"/>
<rect x="110.742" y="18" width="6" height="51" fill="#283644" fill-opacity="0.4"/>
<rect x="96.6129" y="30" width="6" height="27" fill="#283644" fill-opacity="0.4"/>
<rect x="41.5161" y="30" width="6" height="27" fill="#283644" fill-opacity="0.4"/>
</svg>
