<svg width="406" height="179" viewBox="0 0 406 179" fill="none" xmlns="http://www.w3.org/2000/svg">
<rect x="358.548" y="53" width="6" height="73" fill="#283644" fill-opacity="0.4"/>
<rect x="275.903" y="53" width="6" height="73" fill="#283644" fill-opacity="0.4"/>
<rect x="372.323" y="74" width="6" height="32" fill="#283644" fill-opacity="0.4"/>
<rect x="289.677" y="74" width="6" height="32" fill="#283644" fill-opacity="0.4"/>
<rect x="234.581" y="74" width="6" height="32" fill="#283644" fill-opacity="0.4"/>
<rect x="388.226" y="82" width="6" height="16" fill="#283644" fill-opacity="0.4"/>
<rect x="226.71" y="98" width="6" height="16" transform="rotate(-180 226.71 98)" fill="#283644" fill-opacity="0.4"/>
<rect x="399.871" y="86" width="6" height="8" fill="#283644" fill-opacity="0.4"/>
<rect x="212.935" y="94" width="6" height="8" transform="rotate(-180 212.935 94)" fill="#283644" fill-opacity="0.4"/>
<rect x="344.774" y="25" width="6" height="130" fill="#283644" fill-opacity="0.4"/>
<rect x="262.129" y="37" width="6" height="105" fill="#283644" fill-opacity="0.4"/>
<rect x="331" width="6" height="179" fill="#283644" fill-opacity="0.4"/>
<rect x="317.226" y="37" width="6" height="105" fill="#283644" fill-opacity="0.4"/>
<rect x="303.452" y="62" width="6" height="56" fill="#283644" fill-opacity="0.4"/>
<rect x="248.355" y="62" width="6" height="56" fill="#283644" fill-opacity="0.4"/>
<rect x="151.613" y="73" width="6" height="35" fill="#283644" fill-opacity="0.4"/>
<rect x="68.9677" y="73" width="6" height="35" fill="#283644" fill-opacity="0.4"/>
<rect x="165.387" y="83" width="6" height="15" fill="#283644" fill-opacity="0.4"/>
<rect x="82.7419" y="83" width="6" height="15" fill="#283644" fill-opacity="0.4"/>
<rect x="27.6452" y="83" width="6" height="15" fill="#283644" fill-opacity="0.4"/>
<rect x="179.161" y="86" width="6" height="8" fill="#283644" fill-opacity="0.4"/>
<rect x="19.7742" y="94" width="6" height="7" transform="rotate(-180 19.7742 94)" fill="#283644" fill-opacity="0.4"/>
<rect x="192.935" y="88" width="6" height="4" fill="#283644" fill-opacity="0.4"/>
<rect x="6" y="92" width="6" height="4" transform="rotate(-180 6 92)" fill="#283644" fill-opacity="0.4"/>
<rect x="137.839" y="59" width="6" height="62" fill="#283644" fill-opacity="0.4"/>
<rect x="55.1935" y="65" width="6" height="51" fill="#283644" fill-opacity="0.4"/>
<rect x="124.065" y="47" width="6" height="86" fill="#283644" fill-opacity="0.4"/>
<rect x="110.29" y="64" width="6" height="52" fill="#283644" fill-opacity="0.4"/>
<rect x="96.5161" y="77" width="6" height="27" fill="#283644" fill-opacity="0.4"/>
<rect x="41.4194" y="77" width="6" height="27" fill="#283644" fill-opacity="0.4"/>
</svg>
