<svg width="1673" height="179" viewBox="0 0 1673 179" fill="none" xmlns="http://www.w3.org/2000/svg">
<rect x="6" y="91.5" width="6" height="4" transform="rotate(-180 6 91.5)" fill="#283644" fill-opacity="0.16"/>
<rect x="20" y="93" width="6" height="7" transform="rotate(-180 20 93)" fill="#283644" fill-opacity="0.16"/>
<rect x="28" y="82" width="6" height="15" fill="#283644" fill-opacity="0.16"/>
<rect x="42" y="76" width="6" height="27" fill="#283644" fill-opacity="0.16"/>
<rect x="56" y="64" width="6" height="51" fill="#283644" fill-opacity="0.16"/>
<rect x="70" y="72" width="6" height="35" fill="#283644" fill-opacity="0.16"/>
<rect x="84" y="82" width="6" height="15" fill="#283644" fill-opacity="0.16"/>
<rect x="98" y="76" width="6" height="27" fill="#283644" fill-opacity="0.16"/>
<rect x="112" y="63.5" width="6" height="52" fill="#283644" fill-opacity="0.16"/>
<rect x="126" y="46.5" width="6" height="86" fill="#283644" fill-opacity="0.16"/>
<rect x="140" y="58.5" width="6" height="62" fill="#283644" fill-opacity="0.16"/>
<rect x="154" y="72" width="6" height="35" fill="#283644" fill-opacity="0.16"/>
<rect x="168" y="82" width="6" height="15" fill="#283644" fill-opacity="0.16"/>
<rect x="182" y="85.5" width="6" height="8" fill="#283644" fill-opacity="0.16"/>
<rect x="196" y="87.5" width="6" height="4" fill="#283644" fill-opacity="0.16"/>
<rect x="216" y="93.5" width="6" height="8" transform="rotate(-180 216 93.5)" fill="#283644" fill-opacity="0.16"/>
<rect x="230" y="97.5" width="6" height="16" transform="rotate(-180 230 97.5)" fill="#283644" fill-opacity="0.16"/>
<rect x="238" y="73.5" width="6" height="32" fill="#283644" fill-opacity="0.16"/>
<rect x="252" y="61.5" width="6" height="56" fill="#283644" fill-opacity="0.16"/>
<rect x="266" y="37" width="6" height="105" fill="#283644" fill-opacity="0.16"/>
<rect x="280" y="53" width="6" height="73" fill="#283644" fill-opacity="0.16"/>
<rect x="294" y="73.5" width="6" height="32" fill="#283644" fill-opacity="0.16"/>
<rect x="308" y="61.5" width="6" height="56" fill="#283644" fill-opacity="0.16"/>
<rect x="322" y="37" width="6" height="105" fill="#283644" fill-opacity="0.16"/>
<rect x="336" width="6" height="179" fill="#283644" fill-opacity="0.16"/>
<rect x="350" y="24.5" width="6" height="130" fill="#283644" fill-opacity="0.16"/>
<rect x="364" y="53" width="6" height="73" fill="#283644" fill-opacity="0.16"/>
<rect x="378" y="73.5" width="6" height="32" fill="#283644" fill-opacity="0.16"/>
<rect x="392" y="81.5" width="6" height="16" fill="#283644" fill-opacity="0.16"/>
<rect x="406" y="85.5" width="6" height="8" fill="#283644" fill-opacity="0.16"/>
<rect x="426.002" y="91" width="6.00195" height="3" transform="rotate(-180 426.002 91)" fill="#283644" fill-opacity="0.16"/>
<rect x="440.004" y="93" width="6.00195" height="7" transform="rotate(-180 440.004 93)" fill="#283644" fill-opacity="0.16"/>
<rect x="448.004" y="82" width="6.00195" height="15" fill="#283644" fill-opacity="0.16"/>
<rect x="462.006" y="76" width="6.00195" height="27" fill="#283644" fill-opacity="0.16"/>
<rect x="476.008" y="64" width="6.00195" height="51" fill="#283644" fill-opacity="0.16"/>
<rect x="490.01" y="72" width="6.00195" height="35" fill="#283644" fill-opacity="0.16"/>
<rect x="504.012" y="82" width="6.00195" height="15" fill="#283644" fill-opacity="0.16"/>
<rect x="518.014" y="76" width="6.00195" height="27" fill="#283644" fill-opacity="0.16"/>
<rect x="532.016" y="64" width="6.00195" height="51" fill="#283644" fill-opacity="0.16"/>
<rect x="546.018" y="46.5" width="6.00195" height="86" fill="#283644" fill-opacity="0.16"/>
<rect x="560.02" y="58.5" width="6.00195" height="62" fill="#283644" fill-opacity="0.16"/>
<rect x="574.021" y="72" width="6.00195" height="35" fill="#283644" fill-opacity="0.16"/>
<rect x="588.023" y="82" width="6.00195" height="15" fill="#283644" fill-opacity="0.16"/>
<rect x="602.025" y="86" width="6.00195" height="7" fill="#283644" fill-opacity="0.16"/>
<rect x="616.027" y="87.5" width="6.00195" height="4" fill="#283644" fill-opacity="0.16"/>
<rect x="630.029" y="72" width="6" height="35" fill="#283644" fill-opacity="0.16"/>
<rect x="644.029" y="72" width="6" height="35" fill="#283644" fill-opacity="0.16"/>
<rect x="658.029" y="82" width="6" height="15" fill="#283644" fill-opacity="0.16"/>
<rect x="672.029" y="82" width="6" height="15" fill="#283644" fill-opacity="0.16"/>
<rect x="686.029" y="82" width="6" height="15" fill="#283644" fill-opacity="0.16"/>
<rect x="700.029" y="85.5" width="6" height="8" fill="#283644" fill-opacity="0.16"/>
<rect x="720.029" y="93" width="6" height="7" transform="rotate(-180 720.029 93)" fill="#283644" fill-opacity="0.16"/>
<rect x="728.029" y="87.5" width="6" height="4" fill="#283644" fill-opacity="0.16"/>
<rect x="748.029" y="91.5" width="6" height="4" transform="rotate(-180 748.029 91.5)" fill="#283644" fill-opacity="0.16"/>
<rect x="756.029" y="58.5" width="6" height="62" fill="#283644" fill-opacity="0.16"/>
<rect x="770.029" y="64" width="6" height="51" fill="#283644" fill-opacity="0.16"/>
<rect x="784.029" y="46.5" width="6" height="86" fill="#283644" fill-opacity="0.16"/>
<rect x="798.029" y="63.5" width="6" height="52" fill="#283644" fill-opacity="0.16"/>
<rect x="812.029" y="76" width="6" height="27" fill="#283644" fill-opacity="0.16"/>
<rect x="826.029" y="76" width="6" height="27" fill="#283644" fill-opacity="0.16"/>
<rect x="846.029" y="93.5" width="6" height="8" transform="rotate(-180 846.029 93.5)" fill="#283644" fill-opacity="0.16"/>
<rect x="860.029" y="97.5" width="6" height="16" transform="rotate(-180 860.029 97.5)" fill="#283644" fill-opacity="0.16"/>
<rect x="868.029" y="73.5" width="6" height="32" fill="#283644" fill-opacity="0.16"/>
<rect x="882.029" y="61.5" width="6" height="56" fill="#283644" fill-opacity="0.16"/>
<rect x="896.029" y="37" width="6" height="105" fill="#283644" fill-opacity="0.16"/>
<rect x="910.029" y="53" width="6" height="73" fill="#283644" fill-opacity="0.16"/>
<rect x="924.029" y="73.5" width="6" height="32" fill="#283644" fill-opacity="0.16"/>
<rect x="938.029" y="61.5" width="6" height="56" fill="#283644" fill-opacity="0.16"/>
<rect x="952.029" y="37" width="6" height="105" fill="#283644" fill-opacity="0.16"/>
<rect x="966.029" width="6" height="179" fill="#283644" fill-opacity="0.16"/>
<rect x="980.029" y="24.5" width="6" height="130" fill="#283644" fill-opacity="0.16"/>
<rect x="994.029" y="53" width="6" height="73" fill="#283644" fill-opacity="0.16"/>
<rect x="1008.03" y="73.5" width="6" height="32" fill="#283644" fill-opacity="0.16"/>
<rect x="1022.03" y="81.5" width="6" height="16" fill="#283644" fill-opacity="0.16"/>
<rect x="1036.03" y="85.5" width="6" height="8" fill="#283644" fill-opacity="0.16"/>
<rect x="1056.03" y="91" width="6" height="3" transform="rotate(-180 1056.03 91)" fill="#283644" fill-opacity="0.16"/>
<rect x="1070.03" y="93" width="6" height="7" transform="rotate(-180 1070.03 93)" fill="#283644" fill-opacity="0.16"/>
<rect x="1078.03" y="82" width="6" height="15" fill="#283644" fill-opacity="0.16"/>
<rect x="1092.03" y="76" width="6" height="27" fill="#283644" fill-opacity="0.16"/>
<rect x="1106.03" y="64" width="6" height="51" fill="#283644" fill-opacity="0.16"/>
<rect x="1120.03" y="72" width="6" height="35" fill="#283644" fill-opacity="0.16"/>
<rect x="1134.03" y="82" width="6" height="15" fill="#283644" fill-opacity="0.16"/>
<rect x="1148.03" y="76" width="6" height="27" fill="#283644" fill-opacity="0.16"/>
<rect x="1162.03" y="64" width="6" height="51" fill="#283644" fill-opacity="0.16"/>
<rect x="1176.03" y="46.5" width="6" height="86" fill="#283644" fill-opacity="0.16"/>
<rect x="1190.03" y="58.5" width="6" height="62" fill="#283644" fill-opacity="0.16"/>
<rect x="1204.03" y="72" width="6" height="35" fill="#283644" fill-opacity="0.16"/>
<rect x="1218.03" y="82" width="6" height="15" fill="#283644" fill-opacity="0.16"/>
<rect x="1232.03" y="86" width="6" height="7" fill="#283644" fill-opacity="0.16"/>
<rect x="1246.03" y="87.5" width="6" height="4" fill="#283644" fill-opacity="0.16"/>
<rect x="1260.03" y="53" width="6" height="73" fill="#283644" fill-opacity="0.16"/>
<rect x="1274.03" y="53" width="6" height="73" fill="#283644" fill-opacity="0.16"/>
<rect x="1288.03" y="73.5" width="6" height="32" fill="#283644" fill-opacity="0.16"/>
<rect x="1302.03" y="73.5" width="6" height="32" fill="#283644" fill-opacity="0.16"/>
<rect x="1316.03" y="73.5" width="6" height="32" fill="#283644" fill-opacity="0.16"/>
<rect x="1330.03" y="81.5" width="6" height="16" fill="#283644" fill-opacity="0.16"/>
<rect x="1350.03" y="97.5" width="6" height="16" transform="rotate(-180 1350.03 97.5)" fill="#283644" fill-opacity="0.16"/>
<rect x="1358.03" y="85.5" width="6" height="8" fill="#283644" fill-opacity="0.16"/>
<rect x="1378.03" y="93.5" width="6" height="8" transform="rotate(-180 1378.03 93.5)" fill="#283644" fill-opacity="0.16"/>
<rect x="1386.03" y="24.5" width="6" height="130" fill="#283644" fill-opacity="0.16"/>
<rect x="1400.03" y="37" width="6" height="105" fill="#283644" fill-opacity="0.16"/>
<rect x="1414.03" width="6" height="179" fill="#283644" fill-opacity="0.16"/>
<rect x="1428.03" y="37" width="6" height="105" fill="#283644" fill-opacity="0.16"/>
<rect x="1442.03" y="61.5" width="6" height="56" fill="#283644" fill-opacity="0.16"/>
<rect x="1456.03" y="61.5" width="6" height="56" fill="#283644" fill-opacity="0.16"/>
<rect x="1476.03" y="93.5" width="6" height="8" transform="rotate(-180 1476.03 93.5)" fill="#283644" fill-opacity="0.16"/>
<rect x="1490.03" y="97.5" width="6" height="16" transform="rotate(-180 1490.03 97.5)" fill="#283644" fill-opacity="0.16"/>
<rect x="1498.03" y="73.5" width="6" height="32" fill="#283644" fill-opacity="0.16"/>
<rect x="1512.03" y="61.5" width="6" height="56" fill="#283644" fill-opacity="0.16"/>
<rect x="1526.03" y="37" width="6" height="105" fill="#283644" fill-opacity="0.16"/>
<rect x="1540.03" y="53" width="6" height="73" fill="#283644" fill-opacity="0.16"/>
<rect x="1554.03" y="73.5" width="6" height="32" fill="#283644" fill-opacity="0.16"/>
<rect x="1568.03" y="61.5" width="6" height="56" fill="#283644" fill-opacity="0.16"/>
<rect x="1582.03" y="37" width="6" height="105" fill="#283644" fill-opacity="0.16"/>
<rect x="1596.03" width="6" height="179" fill="#283644" fill-opacity="0.16"/>
<rect x="1610.03" y="24.5" width="6" height="130" fill="#283644" fill-opacity="0.16"/>
<rect x="1624.03" y="53" width="6" height="73" fill="#283644" fill-opacity="0.16"/>
<rect x="1638.03" y="73.5" width="6" height="32" fill="#283644" fill-opacity="0.16"/>
<rect x="1652.03" y="81.5" width="6" height="16" fill="#283644" fill-opacity="0.16"/>
<rect x="1666.03" y="85.5" width="6" height="8" fill="#283644" fill-opacity="0.16"/>
</svg>
