<svg width="880" height="166" viewBox="0 0 880 166" fill="none" xmlns="http://www.w3.org/2000/svg">
<g style="mix-blend-mode:lighten" filter="url(#filter0_f_26_15853)">
<path d="M18.4473 26.5L42.0473 95.5H56.9473L80.5473 26.5H62.4473L49.4473 68.2L36.5473 26.5H18.4473ZM127.68 45.5H112.68V74C112.68 80.9 110.78 83.7 105.68 83.7C100.68 83.7 99.0801 80.7 99.0801 73.9V45.5H84.0801V76.7C84.0801 91.7 92.6801 96.5 102.48 96.5C108.68 96.5 110.98 94.8 112.98 91.6V95.5H127.68V45.5ZM165.417 80.2C163.617 82.5 162.617 83.9 157.917 83.9C151.817 83.9 150.417 80 150.217 74.3H177.217V68.4C177.217 52.8 170.717 44.5 156.217 44.5C143.217 44.5 135.217 51.4 135.217 66.9V73.9C135.217 86.3 142.017 96.5 157.817 96.5C166.917 96.5 172.917 94 176.417 87.9L165.417 80.2ZM156.317 57.1C159.817 57.1 161.917 58.8 162.217 64.3H150.317C150.717 59.8 152.417 57.1 156.317 57.1ZM211.752 26.5V95.5H228.352V68.3H252.352V54.5H228.352V40.3H255.352V26.5H211.752ZM288.561 80.2C286.761 82.5 285.761 83.9 281.061 83.9C274.961 83.9 273.561 80 273.361 74.3H300.361V68.4C300.361 52.8 293.861 44.5 279.361 44.5C266.361 44.5 258.361 51.4 258.361 66.9V73.9C258.361 86.3 265.161 96.5 280.961 96.5C290.061 96.5 296.061 94 299.561 87.9L288.561 80.2ZM279.461 57.1C282.961 57.1 285.061 58.8 285.361 64.3H273.461C273.861 59.8 275.561 57.1 279.461 57.1ZM346.496 52.8C342.596 46.4 335.396 44.5 327.196 44.5C314.396 44.5 307.196 50.5 307.196 60.5C307.196 70.3 314.496 74.9 325.796 77.4C330.496 78.4 332.196 79.1 332.196 81C332.196 82.8 330.196 83.7 326.896 83.7C321.196 83.7 319.196 82.1 317.496 79.8L305.896 88.2C310.396 94.3 316.996 96.5 327.196 96.5C340.096 96.5 347.196 90.6 347.196 80.6C347.196 71.4 342.096 65.9 328.396 63.3C323.796 62.4 322.196 61.6 322.196 59.9C322.196 57.7 324.796 57.3 326.896 57.3C331.496 57.3 333.496 58.6 335.396 60.8L346.496 52.8ZM373.686 85.3C378.686 92.3 386.086 96.5 397.186 96.5C411.686 96.5 420.786 89.3 420.786 69.9V26.5H404.186V69.9C404.186 80.1 401.086 82.7 395.886 82.7C392.786 82.7 389.386 80.9 387.186 77.7L373.686 85.3ZM428.748 80.6C428.748 91.1 436.348 96.5 446.148 96.5C451.648 96.5 454.348 94.1 456.048 91.4V95.5H470.648V63.6C470.648 48.2 462.848 44.5 449.848 44.5C439.248 44.5 433.448 46.6 429.548 52.8L440.048 60.1C441.848 57.5 443.848 56.7 448.148 56.7C455.148 56.7 456.048 58.6 456.048 63.5V65H447.148C436.748 65 428.748 70.1 428.748 80.6ZM456.048 77.1C456.048 81.7 454.448 84.7 449.448 84.7C445.648 84.7 443.348 83.1 443.348 80.2C443.348 76.9 445.448 75.6 449.248 75.6H456.048V77.1ZM523.686 66.9C523.686 52.6 515.886 44.5 504.586 44.5C500.186 44.5 496.986 45.8 494.686 48V45.5H479.686V114.5H494.686V94.5C496.886 95.8 499.986 96.5 504.486 96.5C517.086 96.5 523.686 86.9 523.686 73.9V66.9ZM501.686 83.9C495.886 83.9 494.686 79.9 494.686 74.1V68.2C494.686 60.8 496.286 57.1 501.686 57.1C507.086 57.1 508.686 60.8 508.686 68.2V72.6C508.686 79.2 507.886 83.9 501.686 83.9ZM528.65 80.6C528.65 91.1 536.25 96.5 546.05 96.5C551.55 96.5 554.25 94.1 555.95 91.4V95.5H570.55V63.6C570.55 48.2 562.75 44.5 549.75 44.5C539.15 44.5 533.35 46.6 529.45 52.8L539.95 60.1C541.75 57.5 543.75 56.7 548.05 56.7C555.05 56.7 555.95 58.6 555.95 63.5V65H547.05C536.65 65 528.65 70.1 528.65 80.6ZM555.95 77.1C555.95 81.7 554.35 84.7 549.35 84.7C545.55 84.7 543.25 83.1 543.25 80.2C543.25 76.9 545.35 75.6 549.15 75.6H555.95V77.1ZM579.588 95.5H594.588V66.9C594.588 60.5 596.588 57.3 601.788 57.3C606.588 57.3 608.188 60.3 608.188 67V95.5H623.188V64.1C623.188 48.9 614.588 44.5 604.788 44.5C599.488 44.5 595.788 47.3 594.188 49.3V45.5H579.588V95.5ZM702.025 81.7H680.925L692.725 68.1C697.225 62.9 703.225 55.6 703.225 46.1C703.225 34.8 693.525 25.5 680.425 25.5C667.925 25.5 657.825 34.2 657.825 46.2H672.125C672.525 41.6 675.325 39.1 679.425 39.1C683.325 39.1 686.725 41.4 686.725 46.2C686.725 50.5 685.125 54.4 681.025 59.2L658.525 85.7V95.5H702.025V81.7ZM761.482 73.5V48.4C761.482 30.7 750.082 25.5 736.682 25.5C723.282 25.5 711.882 30.7 711.882 48.5V73.5C711.882 90.3 723.282 96.5 736.682 96.5C750.082 96.5 761.482 90.3 761.482 73.5ZM728.382 50.4C728.382 43 730.382 39.3 736.682 39.3C742.882 39.3 744.882 43 744.882 50.4V71.6C744.882 79 742.882 82.7 736.682 82.7C730.382 82.7 728.382 79 728.382 71.6V50.4ZM813.939 81.7H792.839L804.639 68.1C809.139 62.9 815.139 55.6 815.139 46.1C815.139 34.8 805.439 25.5 792.339 25.5C779.839 25.5 769.739 34.2 769.739 46.2H784.039C784.439 41.6 787.239 39.1 791.339 39.1C795.239 39.1 798.639 41.4 798.639 46.2C798.639 50.5 797.039 54.4 792.939 59.2L770.439 85.7V95.5H813.939V81.7ZM840.396 66.8H845.796C851.896 66.8 854.796 69.7 854.796 74.8C854.796 79.2 852.196 82.7 846.996 82.7C841.796 82.7 838.796 80.2 838.196 76.4H823.896C824.396 88 833.096 96.5 848.296 96.5C863.496 96.5 871.296 87.4 871.296 76C871.296 68 866.896 62.7 861.296 59.7C865.096 57.5 870.296 53 870.296 44.9C870.296 34.8 860.596 25.5 847.496 25.5C834.896 25.5 825.596 33.8 824.896 45.2H839.196C839.996 41.6 842.396 39.1 846.496 39.1C850.696 39.1 853.796 41.6 853.796 45.9C853.796 50.8 849.996 53 845.796 53H840.396V66.8Z" fill="#F17C67"/>
</g>
<g style="mix-blend-mode:lighten" filter="url(#filter1_f_26_15853)">
<path d="M8.44727 30.5L32.0473 99.5H46.9473L70.5473 30.5H52.4473L39.4473 72.2L26.5473 30.5H8.44727ZM117.68 49.5H102.68V78C102.68 84.9 100.78 87.7 95.6801 87.7C90.6801 87.7 89.0801 84.7 89.0801 77.9V49.5H74.0801V80.7C74.0801 95.7 82.6801 100.5 92.4801 100.5C98.6801 100.5 100.98 98.8 102.98 95.6V99.5H117.68V49.5ZM155.417 84.2C153.617 86.5 152.617 87.9 147.917 87.9C141.817 87.9 140.417 84 140.217 78.3H167.217V72.4C167.217 56.8 160.717 48.5 146.217 48.5C133.217 48.5 125.217 55.4 125.217 70.9V77.9C125.217 90.3 132.017 100.5 147.817 100.5C156.917 100.5 162.917 98 166.417 91.9L155.417 84.2ZM146.317 61.1C149.817 61.1 151.917 62.8 152.217 68.3H140.317C140.717 63.8 142.417 61.1 146.317 61.1ZM201.752 30.5V99.5H218.352V72.3H242.352V58.5H218.352V44.3H245.352V30.5H201.752ZM278.561 84.2C276.761 86.5 275.761 87.9 271.061 87.9C264.961 87.9 263.561 84 263.361 78.3H290.361V72.4C290.361 56.8 283.861 48.5 269.361 48.5C256.361 48.5 248.361 55.4 248.361 70.9V77.9C248.361 90.3 255.161 100.5 270.961 100.5C280.061 100.5 286.061 98 289.561 91.9L278.561 84.2ZM269.461 61.1C272.961 61.1 275.061 62.8 275.361 68.3H263.461C263.861 63.8 265.561 61.1 269.461 61.1ZM336.496 56.8C332.596 50.4 325.396 48.5 317.196 48.5C304.396 48.5 297.196 54.5 297.196 64.5C297.196 74.3 304.496 78.9 315.796 81.4C320.496 82.4 322.196 83.1 322.196 85C322.196 86.8 320.196 87.7 316.896 87.7C311.196 87.7 309.196 86.1 307.496 83.8L295.896 92.2C300.396 98.3 306.996 100.5 317.196 100.5C330.096 100.5 337.196 94.6 337.196 84.6C337.196 75.4 332.096 69.9 318.396 67.3C313.796 66.4 312.196 65.6 312.196 63.9C312.196 61.7 314.796 61.3 316.896 61.3C321.496 61.3 323.496 62.6 325.396 64.8L336.496 56.8ZM363.686 89.3C368.686 96.3 376.086 100.5 387.186 100.5C401.686 100.5 410.786 93.3 410.786 73.9V30.5H394.186V73.9C394.186 84.1 391.086 86.7 385.886 86.7C382.786 86.7 379.386 84.9 377.186 81.7L363.686 89.3ZM418.748 84.6C418.748 95.1 426.348 100.5 436.148 100.5C441.648 100.5 444.348 98.1 446.048 95.4V99.5H460.648V67.6C460.648 52.2 452.848 48.5 439.848 48.5C429.248 48.5 423.448 50.6 419.548 56.8L430.048 64.1C431.848 61.5 433.848 60.7 438.148 60.7C445.148 60.7 446.048 62.6 446.048 67.5V69H437.148C426.748 69 418.748 74.1 418.748 84.6ZM446.048 81.1C446.048 85.7 444.448 88.7 439.448 88.7C435.648 88.7 433.348 87.1 433.348 84.2C433.348 80.9 435.448 79.6 439.248 79.6H446.048V81.1ZM513.686 70.9C513.686 56.6 505.886 48.5 494.586 48.5C490.186 48.5 486.986 49.8 484.686 52V49.5H469.686V118.5H484.686V98.5C486.886 99.8 489.986 100.5 494.486 100.5C507.086 100.5 513.686 90.9 513.686 77.9V70.9ZM491.686 87.9C485.886 87.9 484.686 83.9 484.686 78.1V72.2C484.686 64.8 486.286 61.1 491.686 61.1C497.086 61.1 498.686 64.8 498.686 72.2V76.6C498.686 83.2 497.886 87.9 491.686 87.9ZM518.65 84.6C518.65 95.1 526.25 100.5 536.05 100.5C541.55 100.5 544.25 98.1 545.95 95.4V99.5H560.55V67.6C560.55 52.2 552.75 48.5 539.75 48.5C529.15 48.5 523.35 50.6 519.45 56.8L529.95 64.1C531.75 61.5 533.75 60.7 538.05 60.7C545.05 60.7 545.95 62.6 545.95 67.5V69H537.05C526.65 69 518.65 74.1 518.65 84.6ZM545.95 81.1C545.95 85.7 544.35 88.7 539.35 88.7C535.55 88.7 533.25 87.1 533.25 84.2C533.25 80.9 535.35 79.6 539.15 79.6H545.95V81.1ZM569.588 99.5H584.588V70.9C584.588 64.5 586.588 61.3 591.788 61.3C596.588 61.3 598.188 64.3 598.188 71V99.5H613.188V68.1C613.188 52.9 604.588 48.5 594.788 48.5C589.488 48.5 585.788 51.3 584.188 53.3V49.5H569.588V99.5ZM692.025 85.7H670.925L682.725 72.1C687.225 66.9 693.225 59.6 693.225 50.1C693.225 38.8 683.525 29.5 670.425 29.5C657.925 29.5 647.825 38.2 647.825 50.2H662.125C662.525 45.6 665.325 43.1 669.425 43.1C673.325 43.1 676.725 45.4 676.725 50.2C676.725 54.5 675.125 58.4 671.025 63.2L648.525 89.7V99.5H692.025V85.7ZM751.482 77.5V52.4C751.482 34.7 740.082 29.5 726.682 29.5C713.282 29.5 701.882 34.7 701.882 52.5V77.5C701.882 94.3 713.282 100.5 726.682 100.5C740.082 100.5 751.482 94.3 751.482 77.5ZM718.382 54.4C718.382 47 720.382 43.3 726.682 43.3C732.882 43.3 734.882 47 734.882 54.4V75.6C734.882 83 732.882 86.7 726.682 86.7C720.382 86.7 718.382 83 718.382 75.6V54.4ZM803.939 85.7H782.839L794.639 72.1C799.139 66.9 805.139 59.6 805.139 50.1C805.139 38.8 795.439 29.5 782.339 29.5C769.839 29.5 759.739 38.2 759.739 50.2H774.039C774.439 45.6 777.239 43.1 781.339 43.1C785.239 43.1 788.639 45.4 788.639 50.2C788.639 54.5 787.039 58.4 782.939 63.2L760.439 89.7V99.5H803.939V85.7ZM830.396 70.8H835.796C841.896 70.8 844.796 73.7 844.796 78.8C844.796 83.2 842.196 86.7 836.996 86.7C831.796 86.7 828.796 84.2 828.196 80.4H813.896C814.396 92 823.096 100.5 838.296 100.5C853.496 100.5 861.296 91.4 861.296 80C861.296 72 856.896 66.7 851.296 63.7C855.096 61.5 860.296 57 860.296 48.9C860.296 38.8 850.596 29.5 837.496 29.5C824.896 29.5 815.596 37.8 814.896 49.2H829.196C829.996 45.6 832.396 43.1 836.496 43.1C840.696 43.1 843.796 45.6 843.796 49.9C843.796 54.8 839.996 57 835.796 57H830.396V70.8Z" fill="#33A6B8"/>
</g>
<path d="M12.4473 28.5L36.0473 97.5H50.9473L74.5473 28.5H56.4473L43.4473 70.2L30.5473 28.5H12.4473ZM121.68 47.5H106.68V76C106.68 82.9 104.78 85.7 99.6801 85.7C94.6801 85.7 93.0801 82.7 93.0801 75.9V47.5H78.0801V78.7C78.0801 93.7 86.6801 98.5 96.4801 98.5C102.68 98.5 104.98 96.8 106.98 93.6V97.5H121.68V47.5ZM159.417 82.2C157.617 84.5 156.617 85.9 151.917 85.9C145.817 85.9 144.417 82 144.217 76.3H171.217V70.4C171.217 54.8 164.717 46.5 150.217 46.5C137.217 46.5 129.217 53.4 129.217 68.9V75.9C129.217 88.3 136.017 98.5 151.817 98.5C160.917 98.5 166.917 96 170.417 89.9L159.417 82.2ZM150.317 59.1C153.817 59.1 155.917 60.8 156.217 66.3H144.317C144.717 61.8 146.417 59.1 150.317 59.1ZM205.752 28.5V97.5H222.352V70.3H246.352V56.5H222.352V42.3H249.352V28.5H205.752ZM282.561 82.2C280.761 84.5 279.761 85.9 275.061 85.9C268.961 85.9 267.561 82 267.361 76.3H294.361V70.4C294.361 54.8 287.861 46.5 273.361 46.5C260.361 46.5 252.361 53.4 252.361 68.9V75.9C252.361 88.3 259.161 98.5 274.961 98.5C284.061 98.5 290.061 96 293.561 89.9L282.561 82.2ZM273.461 59.1C276.961 59.1 279.061 60.8 279.361 66.3H267.461C267.861 61.8 269.561 59.1 273.461 59.1ZM340.496 54.8C336.596 48.4 329.396 46.5 321.196 46.5C308.396 46.5 301.196 52.5 301.196 62.5C301.196 72.3 308.496 76.9 319.796 79.4C324.496 80.4 326.196 81.1 326.196 83C326.196 84.8 324.196 85.7 320.896 85.7C315.196 85.7 313.196 84.1 311.496 81.8L299.896 90.2C304.396 96.3 310.996 98.5 321.196 98.5C334.096 98.5 341.196 92.6 341.196 82.6C341.196 73.4 336.096 67.9 322.396 65.3C317.796 64.4 316.196 63.6 316.196 61.9C316.196 59.7 318.796 59.3 320.896 59.3C325.496 59.3 327.496 60.6 329.396 62.8L340.496 54.8ZM367.686 87.3C372.686 94.3 380.086 98.5 391.186 98.5C405.686 98.5 414.786 91.3 414.786 71.9V28.5H398.186V71.9C398.186 82.1 395.086 84.7 389.886 84.7C386.786 84.7 383.386 82.9 381.186 79.7L367.686 87.3ZM422.748 82.6C422.748 93.1 430.348 98.5 440.148 98.5C445.648 98.5 448.348 96.1 450.048 93.4V97.5H464.648V65.6C464.648 50.2 456.848 46.5 443.848 46.5C433.248 46.5 427.448 48.6 423.548 54.8L434.048 62.1C435.848 59.5 437.848 58.7 442.148 58.7C449.148 58.7 450.048 60.6 450.048 65.5V67H441.148C430.748 67 422.748 72.1 422.748 82.6ZM450.048 79.1C450.048 83.7 448.448 86.7 443.448 86.7C439.648 86.7 437.348 85.1 437.348 82.2C437.348 78.9 439.448 77.6 443.248 77.6H450.048V79.1ZM517.686 68.9C517.686 54.6 509.886 46.5 498.586 46.5C494.186 46.5 490.986 47.8 488.686 50V47.5H473.686V116.5H488.686V96.5C490.886 97.8 493.986 98.5 498.486 98.5C511.086 98.5 517.686 88.9 517.686 75.9V68.9ZM495.686 85.9C489.886 85.9 488.686 81.9 488.686 76.1V70.2C488.686 62.8 490.286 59.1 495.686 59.1C501.086 59.1 502.686 62.8 502.686 70.2V74.6C502.686 81.2 501.886 85.9 495.686 85.9ZM522.65 82.6C522.65 93.1 530.25 98.5 540.05 98.5C545.55 98.5 548.25 96.1 549.95 93.4V97.5H564.55V65.6C564.55 50.2 556.75 46.5 543.75 46.5C533.15 46.5 527.35 48.6 523.45 54.8L533.95 62.1C535.75 59.5 537.75 58.7 542.05 58.7C549.05 58.7 549.95 60.6 549.95 65.5V67H541.05C530.65 67 522.65 72.1 522.65 82.6ZM549.95 79.1C549.95 83.7 548.35 86.7 543.35 86.7C539.55 86.7 537.25 85.1 537.25 82.2C537.25 78.9 539.35 77.6 543.15 77.6H549.95V79.1ZM573.588 97.5H588.588V68.9C588.588 62.5 590.588 59.3 595.788 59.3C600.588 59.3 602.188 62.3 602.188 69V97.5H617.188V66.1C617.188 50.9 608.588 46.5 598.788 46.5C593.488 46.5 589.788 49.3 588.188 51.3V47.5H573.588V97.5ZM696.025 83.7H674.925L686.725 70.1C691.225 64.9 697.225 57.6 697.225 48.1C697.225 36.8 687.525 27.5 674.425 27.5C661.925 27.5 651.825 36.2 651.825 48.2H666.125C666.525 43.6 669.325 41.1 673.425 41.1C677.325 41.1 680.725 43.4 680.725 48.2C680.725 52.5 679.125 56.4 675.025 61.2L652.525 87.7V97.5H696.025V83.7ZM755.482 75.5V50.4C755.482 32.7 744.082 27.5 730.682 27.5C717.282 27.5 705.882 32.7 705.882 50.5V75.5C705.882 92.3 717.282 98.5 730.682 98.5C744.082 98.5 755.482 92.3 755.482 75.5ZM722.382 52.4C722.382 45 724.382 41.3 730.682 41.3C736.882 41.3 738.882 45 738.882 52.4V73.6C738.882 81 736.882 84.7 730.682 84.7C724.382 84.7 722.382 81 722.382 73.6V52.4ZM807.939 83.7H786.839L798.639 70.1C803.139 64.9 809.139 57.6 809.139 48.1C809.139 36.8 799.439 27.5 786.339 27.5C773.839 27.5 763.739 36.2 763.739 48.2H778.039C778.439 43.6 781.239 41.1 785.339 41.1C789.239 41.1 792.639 43.4 792.639 48.2C792.639 52.5 791.039 56.4 786.939 61.2L764.439 87.7V97.5H807.939V83.7ZM834.396 68.8H839.796C845.896 68.8 848.796 71.7 848.796 76.8C848.796 81.2 846.196 84.7 840.996 84.7C835.796 84.7 832.796 82.2 832.196 78.4H817.896C818.396 90 827.096 98.5 842.296 98.5C857.496 98.5 865.296 89.4 865.296 78C865.296 70 860.896 64.7 855.296 61.7C859.096 59.5 864.296 55 864.296 46.9C864.296 36.8 854.596 27.5 841.496 27.5C828.896 27.5 819.596 35.8 818.896 47.2H833.196C833.996 43.6 836.396 41.1 840.496 41.1C844.696 41.1 847.796 43.6 847.796 47.9C847.796 52.8 843.996 55 839.796 55H834.396V68.8Z" fill="white"/>
<path d="M416.192 154.9H409.38L413.618 149.83C414.762 148.452 416.322 146.684 416.322 144.422C416.322 141.406 413.956 139.326 410.888 139.326C407.924 139.326 405.48 141.328 405.48 144.37H408.236C408.314 142.758 409.38 141.9 410.784 141.9C412.11 141.9 413.332 142.732 413.332 144.37C413.332 145.618 412.682 146.788 411.512 148.14L405.35 155.368V157.5H416.192V154.9ZM430.192 152.248V144.812C430.192 141.016 427.54 139.326 424.55 139.326C421.56 139.326 418.908 141.016 418.908 144.838V152.248C418.908 155.966 421.56 157.734 424.55 157.734C427.54 157.734 430.192 155.966 430.192 152.248ZM427.176 144.994V152.066C427.176 153.99 426.162 155.108 424.55 155.108C422.912 155.108 421.898 153.99 421.898 152.066V144.994C421.898 143.07 422.912 141.952 424.55 141.952C426.162 141.952 427.176 143.07 427.176 144.994ZM443.36 154.9H436.548L440.786 149.83C441.93 148.452 443.49 146.684 443.49 144.422C443.49 141.406 441.124 139.326 438.056 139.326C435.092 139.326 432.648 141.328 432.648 144.37H435.404C435.482 142.758 436.548 141.9 437.952 141.9C439.278 141.9 440.5 142.732 440.5 144.37C440.5 145.618 439.85 146.788 438.68 148.14L432.518 155.368V157.5H443.36V154.9ZM449.872 149.544H451.12C453.2 149.544 454.266 150.636 454.266 152.456C454.266 153.964 453.2 155.108 451.64 155.108C449.794 155.108 448.884 154.12 448.676 152.82H445.92C446.076 155.654 448.13 157.734 451.77 157.734C455.228 157.734 457.256 155.368 457.256 152.534C457.256 150.324 456.086 148.92 454.448 148.192C455.852 147.49 456.996 146.138 456.996 144.188C456.996 141.484 454.708 139.326 451.562 139.326C448.676 139.326 446.232 141.224 446.154 144.11H448.91C449.04 142.862 450.002 141.9 451.458 141.9C452.992 141.9 454.006 142.966 454.006 144.266C454.006 145.956 452.992 146.944 451.12 146.944H449.872V149.544ZM463.664 153.912H460.076V157.5H463.664V153.912ZM474.059 139.56H471.225L468.469 141.536V144.578L471.043 142.81V157.5H474.059V139.56ZM491.231 152.248V144.812C491.231 141.016 488.579 139.326 485.589 139.326C482.599 139.326 479.947 141.016 479.947 144.838V152.248C479.947 155.966 482.599 157.734 485.589 157.734C488.579 157.734 491.231 155.966 491.231 152.248ZM488.215 144.994V152.066C488.215 153.99 487.201 155.108 485.589 155.108C483.951 155.108 482.937 153.99 482.937 152.066V144.994C482.937 143.07 483.951 141.952 485.589 141.952C487.201 141.952 488.215 143.07 488.215 144.994ZM497.535 153.912H493.947V157.5H497.535V153.912ZM511.102 154.9H504.29L508.528 149.83C509.672 148.452 511.232 146.684 511.232 144.422C511.232 141.406 508.866 139.326 505.798 139.326C502.834 139.326 500.39 141.328 500.39 144.37H503.146C503.224 142.758 504.29 141.9 505.694 141.9C507.02 141.9 508.242 142.732 508.242 144.37C508.242 145.618 507.592 146.788 506.422 148.14L500.26 155.368V157.5H511.102V154.9ZM513.662 152.482C513.662 155.758 516.366 157.734 519.46 157.734C522.554 157.734 525.258 155.758 525.258 152.482C525.258 150.454 524.01 148.816 522.554 148.192C523.984 147.464 524.998 145.956 524.998 144.266C524.998 141.172 522.372 139.326 519.46 139.326C516.574 139.326 513.922 141.172 513.922 144.266C513.922 145.956 514.936 147.464 516.366 148.192C514.962 148.816 513.662 150.454 513.662 152.482ZM516.678 152.3C516.678 150.558 518.082 149.492 519.46 149.492C520.786 149.492 522.268 150.558 522.268 152.3C522.268 153.86 521.02 155.134 519.46 155.134C517.848 155.134 516.678 153.86 516.678 152.3ZM516.912 144.474C516.912 143.07 518.03 141.952 519.46 141.952C520.864 141.952 522.008 143.07 522.008 144.474C522.008 145.904 520.864 147.048 519.46 147.048C518.03 147.048 516.912 145.904 516.912 144.474ZM546.356 142.264C545.082 140.288 543.08 139.326 540.22 139.326C536.008 139.326 534.24 141.588 534.24 144.292C534.24 147.334 536.19 148.998 539.648 149.726C542.768 150.402 543.574 151.286 543.574 152.716C543.574 154.016 542.794 155.108 540.324 155.108C538.27 155.108 537.204 154.432 536.138 153.158L533.772 154.796C535.254 156.798 537.412 157.734 540.48 157.734C544.796 157.734 546.59 155.264 546.59 152.586C546.59 149.362 544.718 148.01 541.104 147.23C538.608 146.684 537.256 146.008 537.256 144.292C537.256 142.784 538.348 141.952 540.194 141.952C542.222 141.952 543.184 142.68 544.068 143.902L546.356 142.264ZM550.811 157.5L552.033 153.782H558.507L559.729 157.5H562.927L556.687 139.56H553.827L547.587 157.5H550.811ZM555.257 143.928L557.649 151.182H552.865L555.257 143.928ZM562.291 139.56V142.186H567.465V157.5H570.481V142.186H575.629V139.56H562.291Z" fill="#42B983"/>
<rect x="592" y="148" width="98" height="2" fill="#42B983"/>
<path d="M718.287 139.56V151.91L710.903 139.56H708.303V157.5H711.215V145.306L718.521 157.5H721.199V139.56H718.287ZM724.019 153.678C724.019 156.278 725.787 157.734 728.647 157.734C730.233 157.734 731.039 157.318 731.663 156.304V157.5H734.393V148.764C734.393 145.306 732.599 144.266 729.271 144.266C726.697 144.266 725.293 144.89 724.357 146.424L726.359 147.828C726.983 146.814 727.685 146.658 729.089 146.658C731.039 146.658 731.663 147.1 731.663 148.738V149.83H728.855C726.073 149.83 724.019 150.896 724.019 153.678ZM731.663 152.586C731.663 154.848 730.649 155.368 728.959 155.368C727.633 155.368 726.749 154.874 726.749 153.678C726.749 152.534 727.425 151.962 729.063 151.962H731.663V152.586ZM744.488 144.5L740.146 149.57V139.56H737.364V157.5H740.146V153.236L741.03 152.248L745.32 157.5H748.674L742.928 150.09L747.894 144.5H744.488ZM749.587 153.678C749.587 156.278 751.355 157.734 754.215 157.734C755.801 157.734 756.607 157.318 757.231 156.304V157.5H759.961V148.764C759.961 145.306 758.167 144.266 754.839 144.266C752.265 144.266 750.861 144.89 749.925 146.424L751.927 147.828C752.551 146.814 753.253 146.658 754.657 146.658C756.607 146.658 757.231 147.1 757.231 148.738V149.83H754.423C751.641 149.83 749.587 150.896 749.587 153.678ZM757.231 152.586C757.231 154.848 756.217 155.368 754.527 155.368C753.201 155.368 752.317 154.874 752.317 153.678C752.317 152.534 752.993 151.962 754.631 151.962H757.231V152.586ZM762.932 157.5H765.714V149.648C765.714 147.906 766.676 146.736 768.392 146.736C769.822 146.736 770.862 147.386 770.862 149.674V157.5H773.618V149.362C773.618 145.618 771.564 144.266 768.886 144.266C767.17 144.266 766.234 144.89 765.662 145.67V144.5H762.932V157.5ZM787.122 150.168C787.122 146.346 785.12 144.266 781.61 144.266C778.1 144.266 776.072 146.346 776.072 150.168V151.806C776.072 155.394 777.97 157.734 781.61 157.734C785.432 157.734 787.122 155.264 787.122 151.806V150.168ZM781.61 155.342C779.504 155.342 778.828 153.756 778.828 151.728V150.22C778.828 147.984 779.738 146.684 781.61 146.684C783.456 146.684 784.366 147.958 784.366 150.22V151.728C784.366 153.756 783.586 155.342 781.61 155.342ZM792.484 153.912H789.416V161.478L792.484 158.852V153.912ZM800.734 139.56V142.186H805.908V157.5H808.924V142.186H814.072V139.56H800.734ZM828.851 149.674V147.386C828.851 141.744 826.147 139.326 822.117 139.326C818.113 139.326 815.409 141.744 815.409 147.386V149.674C815.409 155.316 818.113 157.734 822.117 157.734C826.147 157.734 828.851 155.316 828.851 149.674ZM818.425 147.386C818.425 143.512 819.725 141.952 822.117 141.952C824.509 141.952 825.835 143.512 825.835 147.386V149.674C825.835 153.548 824.509 155.108 822.117 155.108C819.725 155.108 818.425 153.548 818.425 149.674V147.386ZM846.564 157.5L839.726 146.788L845.394 139.56H841.702L835.098 148.218V139.56H832.082V157.5H835.098V152.716L837.75 149.31L842.95 157.5H846.564ZM846.694 139.56L852.284 150.012V157.5H855.3V150.012L860.89 139.56H857.406L853.792 146.736L850.204 139.56H846.694ZM875.418 149.674V147.386C875.418 141.744 872.714 139.326 868.684 139.326C864.68 139.326 861.976 141.744 861.976 147.386V149.674C861.976 155.316 864.68 157.734 868.684 157.734C872.714 157.734 875.418 155.316 875.418 149.674ZM864.992 147.386C864.992 143.512 866.292 141.952 868.684 141.952C871.076 141.952 872.402 143.512 872.402 147.386V149.674C872.402 153.548 871.076 155.108 868.684 155.108C866.292 155.108 864.992 153.548 864.992 149.674V147.386Z" fill="#42B983"/>
<defs>
<filter id="filter0_f_26_15853" x="10.4473" y="17.5" width="868.848" height="105" filterUnits="userSpaceOnUse" color-interpolation-filters="sRGB">
<feFlood flood-opacity="0" result="BackgroundImageFix"/>
<feBlend mode="normal" in="SourceGraphic" in2="BackgroundImageFix" result="shape"/>
<feGaussianBlur stdDeviation="4" result="effect1_foregroundBlur_26_15853"/>
</filter>
<filter id="filter1_f_26_15853" x="0.447266" y="21.5" width="868.848" height="105" filterUnits="userSpaceOnUse" color-interpolation-filters="sRGB">
<feFlood flood-opacity="0" result="BackgroundImageFix"/>
<feBlend mode="normal" in="SourceGraphic" in2="BackgroundImageFix" result="shape"/>
<feGaussianBlur stdDeviation="4" result="effect1_foregroundBlur_26_15853"/>
</filter>
</defs>
</svg>
